<svg width="748" height="422" viewBox="0 0 748 422" fill="none" xmlns="http://www.w3.org/2000/svg">
<g clip-path="url(#clip0)">
<path d="M239.699 359.833C266.301 333.232 266.301 290.102 239.699 263.5C213.097 236.898 169.968 236.898 143.366 263.5C116.764 290.102 116.764 333.232 143.366 359.833C169.968 386.435 213.097 386.435 239.699 359.833Z" fill="#B2C952"/>
<path d="M183.721 412.694C183.721 412.694 183.614 410.764 183.506 407.224C183.399 405.507 183.399 403.469 183.399 401.002C183.399 398.534 183.292 395.853 183.399 392.956C183.507 390.06 183.506 389.953 183.506 388.344C183.595 387.921 183.631 387.488 183.614 387.056C183.601 386.66 183.637 386.264 183.721 385.876C183.721 385.018 183.828 384.16 183.828 383.195C184.257 379.762 184.901 376.222 185.652 372.575C186.403 368.927 187.261 365.28 187.905 361.526C188.518 357.803 188.805 354.034 188.763 350.262C188.763 346.507 188.548 342.538 188.334 338.676C188.119 334.815 188.334 330.846 188.548 327.198C188.763 323.551 189.192 319.904 189.514 316.578C189.836 313.253 190.05 310.035 190.265 307.138C190.479 304.242 190.694 301.56 190.801 299.2C190.908 296.84 191.123 294.695 191.123 292.978C191.123 291.262 191.337 287.615 191.337 287.615C191.445 285.684 191.981 284.182 192.41 284.397C192.839 284.611 193.161 286.006 193.161 287.615C193.161 289.224 193.161 289.653 193.268 293.086C193.268 294.802 193.268 296.84 193.161 299.308C193.054 301.775 193.054 304.349 192.946 307.353C192.839 310.357 192.732 313.467 192.625 316.793C192.517 320.118 192.196 323.766 192.088 327.413C191.857 331.094 191.893 334.786 192.196 338.462C192.41 342.324 192.839 346.186 192.946 350.262C193.089 354.275 192.91 358.292 192.41 362.276C191.766 366.138 191.016 369.893 190.372 373.54C189.685 376.907 189.183 380.309 188.87 383.731C188.763 384.482 188.763 385.34 188.656 386.091V388.451C188.548 390.06 188.548 391.562 188.548 392.956C188.548 394.351 188.548 398.534 188.656 401.002C188.763 403.469 188.656 405.4 188.763 407.009C188.977 410.442 189.085 412.373 189.085 412.373C189.067 413.089 189.103 413.807 189.192 414.518V416.449C189.215 417.594 189.179 418.74 189.085 419.882C188.763 421.92 188.226 423.207 187.476 423.422C186.725 423.636 185.974 422.456 185.33 420.525C184.852 419.468 184.527 418.349 184.365 417.2C184.03 415.827 183.814 414.427 183.721 413.016V412.694Z" fill="#9E5B3E"/>
<path d="M186.832 356.698L186.618 356.269C186.402 355.821 186.151 355.391 185.867 354.982C184.798 353.466 183.576 352.064 182.219 350.798L179.43 348.117L175.998 345.435L172.243 342.324L170.312 340.715L168.489 339.106C166.021 337.067 163.34 335.137 160.872 333.313C158.506 331.712 156.248 329.956 154.114 328.057C152.545 326.733 151.108 325.26 149.823 323.658C149.423 323.267 149.063 322.836 148.75 322.371L148.429 321.835C147.892 321.191 147.785 320.44 148.107 320.333C148.429 320.226 148.965 320.548 149.394 320.977L149.823 321.513L151.003 322.693C152.389 324.069 153.858 325.358 155.401 326.555C157.332 327.949 159.692 329.558 162.267 331.167C164.841 332.777 167.738 334.6 170.527 336.638L172.458 338.247L174.389 339.749L178.143 342.538L181.79 345.327C182.876 346.163 183.914 347.059 184.901 348.009C186.487 349.434 187.925 351.015 189.192 352.729L190.158 354.338L190.479 354.875L190.909 355.84C191.016 356.162 191.016 356.377 191.123 356.698C191.261 357.259 191.298 357.841 191.23 358.415C191.123 359.38 190.801 360.024 190.265 360.131C189.929 360.15 189.594 360.081 189.293 359.93C188.992 359.78 188.735 359.553 188.549 359.273L187.69 358.2L187.369 357.557C187.202 357.32 187.059 357.069 186.939 356.806L186.832 356.698Z" fill="#9E5B3E"/>
<path d="M189.083 338.784L189.405 338.247C189.744 337.613 190.178 337.034 190.692 336.531C192.349 334.718 194.356 333.258 196.592 332.24C197.963 331.558 199.401 331.019 200.883 330.631L205.71 329.344L210.966 328.486L216.223 327.842C219.655 327.306 223.195 326.662 226.306 325.911C229.228 325.158 232.066 324.116 234.781 322.8L237.892 321.191C238.723 320.765 239.513 320.262 240.252 319.689C240.968 319.281 241.65 318.814 242.29 318.295C242.933 317.758 243.684 317.651 243.899 317.973C244.113 318.295 243.684 318.831 243.148 319.367L241.217 320.977L238.857 322.693C237.828 323.407 236.753 324.052 235.639 324.624C232.924 326.185 230.046 327.444 227.057 328.378C223.642 329.437 220.167 330.297 216.652 330.953L211.395 331.811L206.461 332.776L201.955 334.064C200.652 334.469 199.393 335.008 198.201 335.673C196.507 336.493 194.979 337.621 193.695 338.998C193.365 339.357 193.077 339.753 192.837 340.178C192.799 340.222 192.769 340.273 192.751 340.328C192.732 340.383 192.725 340.442 192.73 340.5H192.623C192.237 341.379 191.807 342.239 191.335 343.075L190.692 344.04C190.603 344.16 190.491 344.26 190.362 344.334C190.232 344.408 190.089 344.454 189.941 344.469C189.405 344.469 188.868 344.04 188.546 342.967C188.178 341.603 188.331 340.149 188.976 338.891L189.083 338.784Z" fill="#9E5B3E"/>
<path d="M209.57 327.413L210.75 326.233L214.075 323.551C214.826 323.122 215.577 322.478 216.328 321.942L218.795 320.118L219.117 319.904C219.117 319.797 219.117 319.904 219.224 319.797H219.332L219.868 319.153L220.941 317.973L223.086 315.398C223.837 314.54 224.481 313.575 225.124 312.717L226.841 309.927L228.342 307.246L229.522 304.778L230.488 302.633C230.778 302.092 230.995 301.515 231.132 300.917C231.36 300.435 231.539 299.932 231.668 299.415C231.882 298.878 232.204 298.557 232.419 298.664C232.633 298.771 232.741 299.2 232.526 299.737C232.411 300.245 232.268 300.746 232.097 301.238C231.99 301.775 231.775 302.311 231.561 303.062C231.346 303.813 231.132 304.457 230.81 305.315L229.737 307.889L228.342 310.786L226.733 313.682L224.802 316.686C224.052 317.544 223.408 318.509 222.657 319.475L221.584 320.762L221.048 321.406H220.833C220.833 321.513 220.726 321.62 220.619 321.727L220.297 321.942L217.83 323.98L215.684 325.589C214.593 326.418 213.554 327.314 212.573 328.271L211.501 329.237C211.09 329.761 210.58 330.198 209.999 330.524C209.866 330.682 209.703 330.811 209.518 330.904C209.334 330.996 209.132 331.049 208.926 331.06C208.712 331.06 208.604 330.953 208.39 330.738C208.287 330.427 208.251 330.099 208.282 329.773C208.433 328.918 208.845 328.13 209.462 327.52L209.57 327.413Z" fill="#9E5B3E"/>
<path d="M167.627 335.78L166.984 334.278C166.769 333.742 166.662 333.206 166.34 332.455L166.018 331.382C165.924 330.938 165.78 330.506 165.589 330.095L165.267 328.7L164.838 327.306C164.624 326.233 164.409 325.16 164.087 324.088C163.766 323.015 163.229 319.582 162.907 317.115C162.585 314.648 162.264 312.395 162.049 310.249C161.835 308.104 161.62 305.959 161.513 304.135C161.405 302.311 161.191 300.917 161.084 299.844C160.976 298.771 160.869 298.235 160.869 298.235C160.869 298.235 160.976 297.162 161.298 297.162C161.62 297.162 161.727 297.591 161.835 298.128C161.942 298.664 161.942 298.664 162.049 299.737C162.156 300.809 162.585 302.204 162.8 303.92C163.015 305.637 163.444 307.782 163.766 309.928C164.087 312.073 164.516 314.54 164.945 316.793C165.375 319.046 165.911 321.406 166.447 323.551C166.984 325.697 166.984 325.697 167.305 326.662L167.627 328.057C167.818 328.468 167.962 328.9 168.056 329.344C168.164 329.773 168.378 330.202 168.485 330.524L168.807 331.597C169.129 332.24 169.236 332.884 169.451 333.313L170.095 334.815C170.738 336.424 170.846 337.926 170.202 338.355C169.558 338.784 168.378 337.604 167.627 335.888V335.78Z" fill="#9E5B3E"/>
<path d="M189.086 320.226C188.986 320.099 188.913 319.953 188.871 319.797L188.442 318.831C187.808 317.547 187.054 316.326 186.189 315.184L184.259 313.039C183.567 312.164 182.814 311.339 182.006 310.571C181.255 309.713 180.397 308.962 179.539 308.104L178.251 306.709L176.964 305.315C175.329 303.464 173.789 301.53 172.351 299.522C170.957 297.699 169.67 295.982 168.382 294.588C167.095 293.193 166.13 292.12 165.486 291.37L164.199 290.19C163.662 289.868 163.448 289.331 163.662 289.224C163.877 289.117 164.306 289.224 164.735 289.546L166.13 290.511C166.88 291.262 168.168 292.335 169.455 293.73C170.742 295.124 172.137 296.733 173.639 298.449C175.14 300.166 176.749 302.204 178.466 303.92C180.182 305.637 182.006 307.246 183.722 308.855L186.082 311.322C186.822 312.054 187.503 312.844 188.12 313.682C189.142 314.876 190.041 316.169 190.802 317.544L191.338 318.831L191.553 319.26C191.852 320.121 191.962 321.035 191.875 321.942C191.66 322.693 191.338 323.122 191.017 323.122C190.695 323.122 190.266 322.8 189.944 322.264L189.515 321.406L189.086 320.333V320.226Z" fill="#9E5B3E"/>
<path d="M190.478 305.422C190.587 304.947 190.73 304.481 190.907 304.028C191.377 302.882 191.99 301.801 192.731 300.809C193.205 300.15 193.744 299.539 194.34 298.986C194.935 298.361 195.58 297.787 196.27 297.269C197.708 296.076 199.212 294.966 200.776 293.944L205.281 290.94C206.633 290.183 207.924 289.322 209.143 288.366C210.047 287.746 210.907 287.065 211.718 286.328L212.576 285.362C212.898 285.04 213.327 284.933 213.434 285.148C213.541 285.362 213.541 285.684 213.327 286.006L212.469 286.971C211.702 287.847 210.877 288.672 210.001 289.439L206.247 292.442L201.956 295.66C200.534 296.689 199.173 297.799 197.88 298.986C197.236 299.629 196.592 300.166 196.163 300.702L194.769 302.311C194.186 303.1 193.717 303.967 193.374 304.886C193.329 305.178 193.257 305.465 193.16 305.744C193.097 305.799 193.059 305.876 193.052 305.958C193.007 306.497 192.822 307.015 192.516 307.46C192.301 307.889 191.98 308.211 191.658 308.211C191.336 308.211 190.907 308.104 190.692 307.568C190.519 307.261 190.41 306.921 190.374 306.571C190.337 306.22 190.372 305.866 190.478 305.529V305.422Z" fill="#9E5B3E"/>
<path d="M197.772 295.982L197.987 295.768L198.523 295.124L200.669 293.086L202.063 291.906C202.59 291.432 203.092 290.931 203.565 290.404L204.209 289.653L204.853 288.688L205.496 287.829L206.14 286.757C206.891 285.469 207.534 284.075 208.178 282.68C208.822 281.286 209.251 280.106 209.787 279.033L211.074 276.459C211.26 276.157 211.404 275.833 211.503 275.493C211.718 275.171 211.933 274.957 212.04 275.064C212.147 275.171 212.04 275.493 211.932 275.708C211.833 276.047 211.689 276.372 211.503 276.673C211.182 277.317 210.86 278.282 210.431 279.355L208.929 283.109C208.392 284.397 207.749 285.898 206.998 287.293L206.462 288.366L205.818 289.331L205.174 290.297L204.423 291.262C203.95 291.789 203.449 292.29 202.922 292.764L201.527 294.051C200.669 294.909 199.918 295.553 199.489 296.089L199.06 296.626L198.845 296.84L198.309 297.377C198.228 297.598 198.078 297.786 197.88 297.913C197.665 298.128 197.343 298.342 197.129 298.235C196.914 298.128 196.914 297.913 197.022 297.484C197.107 297.238 197.179 296.987 197.236 296.733L197.772 295.982Z" fill="#9E5B3E"/>
<path d="M210.861 327.735C211.172 327.365 211.533 327.04 211.934 326.769C212.951 325.922 214.068 325.201 215.259 324.624L217.512 323.444L220.086 322.371L222.875 321.191L224.377 320.655L225.772 320.011L228.454 318.509L231.028 317.115L235.641 314.326L238.752 312.18L239.932 311.322C240.361 311 240.683 310.893 240.79 311C240.66 311.312 240.434 311.575 240.146 311.751L239.074 312.609C238.323 313.146 237.357 314.004 235.963 314.862L231.564 317.866L228.99 319.367L226.201 320.869L224.806 321.62L223.305 322.264L220.623 323.444C219.728 323.751 218.865 324.146 218.048 324.624L215.795 325.697C214.743 326.297 213.739 326.979 212.792 327.735C212.437 328.022 212.114 328.346 211.826 328.7L210.646 330.095C210.325 330.417 210.217 330.738 210.003 330.738C209.788 330.738 209.681 330.309 209.788 329.773C209.908 329.047 210.244 328.373 210.754 327.842L210.861 327.735Z" fill="#9E5B3E"/>
<path d="M167.203 332.991L166.666 331.704L165.057 328.164C164.706 327.391 164.312 326.639 163.877 325.911L162.59 323.337L161.088 320.655L159.479 317.973L156.046 312.717L154.545 310.249C154.058 309.533 153.628 308.78 153.257 307.997L152.721 306.924C152.534 306.623 152.39 306.298 152.292 305.958C152.077 305.315 151.755 304.778 151.648 304.349C151.534 303.876 151.391 303.41 151.219 302.955C151.112 302.418 151.112 301.989 151.219 301.989C151.428 302.237 151.575 302.531 151.648 302.848L152.185 304.135C152.371 304.682 152.586 305.219 152.828 305.744L153.257 306.602C153.5 306.924 153.681 307.288 153.794 307.675L155.188 309.82C155.65 310.655 156.189 311.445 156.797 312.18L160.337 317.329L162.054 320.118L163.663 322.8L165.057 325.267L166.237 327.627C166.881 329.022 167.525 330.309 167.846 331.167C168.08 331.609 168.261 332.077 168.383 332.562C169.026 334.064 169.134 335.458 168.812 335.566C168.49 335.673 167.739 334.6 167.203 333.098V332.991Z" fill="#9E5B3E"/>
<path d="M189.083 338.14C188.902 337.837 188.758 337.513 188.654 337.175C188.59 336.757 188.444 336.356 188.225 335.995C188.094 335.513 187.914 335.046 187.689 334.6C187.367 334.064 187.152 333.42 186.831 332.884L185.865 330.953L183.505 326.984C182.754 325.589 181.896 324.302 181.252 322.907C180.559 321.736 179.95 320.517 179.429 319.26C179 318.188 178.678 317.222 178.463 316.578L178.142 315.506C178.07 315.077 178.07 314.862 178.142 314.862C178.249 314.862 178.463 315.077 178.571 315.398L178.892 316.364C179.214 317.008 179.536 317.973 180.072 319.046C180.639 320.232 181.284 321.379 182.003 322.478L184.363 326.447L186.831 330.417L187.903 332.24L188.761 333.957L189.512 335.458C189.62 335.864 189.764 336.259 189.941 336.638L190.263 337.711C190.692 338.891 190.585 339.964 190.263 340.071C189.941 340.178 189.405 339.32 189.083 338.247V338.14Z" fill="#9E5B3E"/>
<path d="M191.66 333.849L191.981 332.133C192.332 330.703 192.798 329.304 193.376 327.949C193.724 327.036 194.118 326.141 194.556 325.267C194.763 324.746 195.014 324.244 195.307 323.766L196.058 322.371C197.244 320.316 198.57 318.344 200.027 316.471C201.421 314.54 202.923 312.717 204.425 311L208.609 306.602C209.554 305.547 210.557 304.544 211.612 303.598L212.792 302.418C213.221 301.989 213.65 301.882 213.758 302.097C213.865 302.311 213.758 302.633 213.436 303.062L212.363 304.242L209.574 307.46L205.712 312.18C204.425 313.897 203.03 315.72 201.743 317.651C200.432 319.499 199.249 321.434 198.203 323.444L197.452 324.946L196.809 326.233C196.487 327.198 196.058 328.057 195.736 328.807C195.309 330.111 194.95 331.436 194.663 332.777L194.341 334.278C194.206 335.015 193.991 335.735 193.698 336.424C193.376 336.96 193.054 337.282 192.732 337.282C192.411 337.282 191.981 336.96 191.767 336.317C191.552 335.673 191.66 335.673 191.66 335.244C191.573 335.041 191.537 334.82 191.552 334.6C191.638 334.397 191.675 334.177 191.66 333.957V333.849Z" fill="#9E5B3E"/>
<path d="M180.508 420.418V418.594C180.615 417.414 180.722 415.805 181.044 413.874C181.366 411.944 181.366 411.944 181.581 410.978C181.795 410.013 181.902 408.833 182.117 407.76C182.241 407.232 182.313 406.693 182.331 406.151C182.455 405.586 182.527 405.012 182.546 404.434L182.868 400.894C183.082 398.427 183.297 395.96 183.511 393.707C183.726 391.455 184.155 389.309 184.37 387.485C184.584 385.662 184.906 384.16 185.121 383.087L185.442 381.371C185.456 381.244 185.494 381.121 185.555 381.009C185.617 380.896 185.7 380.798 185.799 380.718C185.899 380.638 186.014 380.579 186.137 380.543C186.26 380.508 186.388 380.498 186.515 380.513C186.721 380.602 186.894 380.753 187.009 380.946C187.125 381.138 187.177 381.362 187.159 381.585V383.302C187.159 384.375 187.051 385.876 187.051 387.7V406.58C186.944 407.224 186.944 407.76 186.837 408.404L186.515 411.729C186.308 412.644 186.2 413.58 186.193 414.518C186.01 415.906 185.903 417.302 185.871 418.702V420.204C185.959 420.878 185.808 421.561 185.442 422.134C185.025 422.712 184.518 423.219 183.941 423.636C183.585 423.806 183.183 423.857 182.796 423.779C182.409 423.702 182.058 423.501 181.795 423.207C181.45 422.861 181.16 422.463 180.937 422.027C180.73 421.547 180.586 421.042 180.508 420.525V420.418Z" fill="#9E5B3E"/>
<path d="M186.618 421.384L186.403 420.954C186.207 420.583 186.063 420.186 185.974 419.774C185.436 418.351 185.041 416.878 184.794 415.376C184.687 414.518 184.472 413.553 184.365 412.587C184.2 411.521 184.092 410.447 184.043 409.369C183.829 407.224 183.722 404.864 183.614 402.611C183.523 400.285 183.595 397.955 183.829 395.638C184.043 393.493 184.258 391.562 184.58 389.845C184.902 388.129 184.902 386.735 185.116 385.769C185.331 384.804 185.223 384.16 185.223 384.16C185.237 384.033 185.275 383.91 185.336 383.798C185.398 383.686 185.481 383.587 185.58 383.507C185.68 383.427 185.795 383.368 185.918 383.333C186.041 383.297 186.169 383.287 186.296 383.302C186.409 383.315 186.518 383.351 186.618 383.407C186.717 383.462 186.804 383.538 186.874 383.627C186.944 383.717 186.995 383.82 187.025 383.93C187.054 384.04 187.062 384.154 187.047 384.267C187.047 384.267 187.047 384.804 187.154 385.876C187.262 386.949 187.262 388.236 187.262 389.953V395.853C187.369 397.891 187.476 400.144 187.798 402.289C187.999 404.486 188.321 406.671 188.763 408.833C188.89 409.807 189.069 410.774 189.3 411.729C189.405 412.601 189.584 413.462 189.836 414.304C190.265 415.913 190.587 417.093 190.909 417.951L191.338 418.809V419.131C191.493 419.435 191.601 419.76 191.66 420.096C191.677 420.422 191.64 420.748 191.552 421.062C191.449 421.74 191.151 422.374 190.694 422.885C190.443 423.163 190.117 423.361 189.755 423.456C189.393 423.551 189.011 423.539 188.656 423.422C188.205 423.276 187.799 423.017 187.476 422.671C187.072 422.352 186.743 421.95 186.511 421.491L186.618 421.384Z" fill="#9E5B3E"/>
<path d="M615.4 352.467C643.567 324.3 643.567 278.633 615.4 250.467C587.234 222.3 541.567 222.3 513.4 250.467C485.234 278.633 485.234 324.3 513.4 352.467C541.567 380.633 587.234 380.633 615.4 352.467Z" fill="#B2C952"/>
<path d="M556.128 408.437C556.128 408.437 556.014 406.393 555.9 402.645C555.787 400.827 555.787 398.669 555.787 396.057C555.787 393.444 555.673 390.605 555.787 387.538C555.9 384.471 555.9 384.358 555.9 382.654C555.994 382.206 556.032 381.748 556.014 381.291C556 380.872 556.039 380.452 556.128 380.042C556.128 379.133 556.241 378.224 556.241 377.202C556.695 373.568 557.377 369.819 558.172 365.958C558.967 362.096 559.876 358.234 560.557 354.259C561.207 350.317 561.511 346.327 561.466 342.332C561.466 338.357 561.239 334.154 561.012 330.065C560.784 325.976 561.012 321.774 561.239 317.912C561.466 314.05 561.92 310.188 562.261 306.667C562.602 303.146 562.829 299.739 563.056 296.672C563.283 293.605 563.51 290.766 563.624 288.267C563.738 285.768 563.965 283.497 563.965 281.679C563.965 279.862 564.192 276 564.192 276C564.305 273.956 564.873 272.366 565.328 272.593C565.782 272.82 566.123 274.296 566.123 276C566.123 277.704 566.123 278.158 566.236 281.793C566.236 283.61 566.236 285.768 566.123 288.381C566.009 290.993 566.009 293.719 565.896 296.899C565.782 300.08 565.668 303.374 565.555 306.895C565.441 310.416 565.101 314.277 564.987 318.139C564.742 322.037 564.78 325.946 565.101 329.838C565.328 333.927 565.782 338.016 565.896 342.332C566.047 346.581 565.857 350.835 565.328 355.054C564.646 359.143 563.851 363.118 563.17 366.98C562.442 370.545 561.911 374.147 561.579 377.77C561.466 378.565 561.466 379.474 561.352 380.269V382.768C561.239 384.471 561.239 386.062 561.239 387.538C561.239 389.015 561.239 393.444 561.352 396.057C561.466 398.669 561.352 400.714 561.466 402.417C561.693 406.052 561.807 408.097 561.807 408.097C561.788 408.856 561.826 409.615 561.92 410.368V412.413C561.945 413.625 561.907 414.839 561.807 416.047C561.466 418.205 560.898 419.568 560.103 419.796C559.308 420.023 558.513 418.773 557.831 416.729C557.325 415.61 556.981 414.424 556.809 413.208C556.454 411.754 556.226 410.272 556.128 408.778V408.437Z" fill="#9E5B3E"/>
<path d="M559.424 349.147L559.196 348.693C558.968 348.218 558.702 347.763 558.401 347.33C557.27 345.724 555.976 344.24 554.539 342.9L551.586 340.061L547.952 337.221L543.976 333.927L541.932 332.223L540.001 330.52C537.388 328.362 534.549 326.317 531.937 324.386C529.431 322.691 527.041 320.832 524.781 318.821C523.119 317.419 521.598 315.859 520.238 314.164C519.814 313.749 519.433 313.293 519.102 312.801L518.761 312.233C518.193 311.551 518.079 310.756 518.42 310.643C518.761 310.529 519.329 310.87 519.783 311.324L520.238 311.892L521.487 313.142C522.955 314.598 524.51 315.964 526.144 317.231C528.188 318.707 530.687 320.411 533.413 322.115C536.139 323.818 539.206 325.749 542.159 327.907L544.203 329.611L546.248 331.201L550.223 334.154L554.085 337.108C555.235 337.993 556.334 338.941 557.379 339.947C559.058 341.455 560.581 343.13 561.922 344.945L562.945 346.648L563.285 347.216L563.74 348.239C563.853 348.579 563.853 348.807 563.967 349.147C564.113 349.741 564.152 350.357 564.08 350.965C563.967 351.987 563.626 352.668 563.058 352.782C562.702 352.802 562.347 352.729 562.029 352.569C561.71 352.41 561.438 352.17 561.241 351.873L560.332 350.737L559.991 350.056C559.815 349.806 559.663 349.54 559.537 349.261L559.424 349.147Z" fill="#9E5B3E"/>
<path d="M561.808 330.179L562.148 329.611C562.508 328.94 562.967 328.327 563.511 327.794C565.266 325.874 567.391 324.329 569.758 323.25C571.21 322.528 572.733 321.957 574.302 321.547L579.413 320.184L584.978 319.275L590.544 318.593C594.179 318.026 597.927 317.344 601.221 316.549C604.314 315.752 607.32 314.649 610.194 313.255L613.488 311.551C614.368 311.1 615.205 310.568 615.986 309.961C616.745 309.529 617.467 309.035 618.144 308.485C618.826 307.917 619.621 307.803 619.848 308.144C620.075 308.485 619.621 309.053 619.053 309.62L617.009 311.324L614.51 313.142C613.42 313.898 612.282 314.581 611.102 315.186C608.228 316.839 605.181 318.172 602.016 319.161C598.399 320.283 594.72 321.193 590.998 321.887L585.433 322.796L580.208 323.818L575.437 325.181C574.057 325.61 572.725 326.181 571.462 326.885C569.668 327.754 568.05 328.948 566.692 330.406C566.342 330.786 566.037 331.205 565.783 331.655C565.742 331.702 565.711 331.756 565.691 331.814C565.671 331.873 565.664 331.935 565.669 331.996H565.556C565.147 332.927 564.692 333.837 564.193 334.722L563.511 335.744C563.418 335.871 563.298 335.977 563.162 336.055C563.025 336.134 562.873 336.182 562.716 336.199C562.148 336.199 561.58 335.744 561.24 334.609C560.849 333.163 561.011 331.625 561.694 330.292L561.808 330.179Z" fill="#9E5B3E"/>
<path d="M583.502 318.139L584.751 316.89L588.272 314.05C589.067 313.596 589.862 312.914 590.657 312.346L593.27 310.416L593.61 310.188C593.61 310.075 593.61 310.188 593.724 310.075H593.838L594.406 309.393L595.541 308.144L597.813 305.418C598.608 304.509 599.29 303.487 599.971 302.578L601.788 299.625L603.379 296.786L604.628 294.173L605.65 291.902C605.958 291.329 606.187 290.718 606.332 290.084C606.573 289.574 606.764 289.042 606.9 288.494C607.127 287.926 607.468 287.585 607.695 287.699C607.922 287.813 608.036 288.267 607.808 288.835C607.687 289.373 607.535 289.904 607.354 290.425C607.24 290.993 607.013 291.561 606.786 292.356C606.559 293.151 606.332 293.832 605.991 294.741L604.855 297.467L603.379 300.534L601.675 303.601L599.63 306.781C598.835 307.69 598.154 308.712 597.359 309.734L596.223 311.097L595.655 311.778H595.428C595.428 311.892 595.314 312.006 595.201 312.119L594.86 312.346L592.247 314.504L589.976 316.208C588.82 317.086 587.72 318.034 586.682 319.048L585.546 320.07C585.111 320.625 584.571 321.088 583.956 321.433C583.816 321.601 583.643 321.738 583.447 321.835C583.252 321.933 583.038 321.989 582.82 322.001C582.593 322.001 582.479 321.887 582.252 321.66C582.144 321.331 582.105 320.983 582.139 320.638C582.297 319.732 582.734 318.899 583.388 318.253L583.502 318.139Z" fill="#9E5B3E"/>
<path d="M539.089 326.999L538.408 325.408C538.181 324.841 538.067 324.273 537.726 323.478L537.386 322.342C537.286 321.872 537.134 321.414 536.931 320.979L536.59 319.502L536.136 318.026C535.909 316.89 535.682 315.754 535.341 314.618C535 313.482 534.432 309.848 534.092 307.235C533.751 304.623 533.41 302.238 533.183 299.966C532.956 297.694 532.729 295.423 532.615 293.492C532.501 291.561 532.274 290.084 532.161 288.948C532.047 287.813 531.934 287.245 531.934 287.245C531.934 287.245 532.047 286.109 532.388 286.109C532.729 286.109 532.842 286.563 532.956 287.131C533.069 287.699 533.069 287.699 533.183 288.835C533.297 289.971 533.751 291.447 533.978 293.265C534.205 295.082 534.66 297.354 535 299.625C535.341 301.897 535.795 304.509 536.25 306.895C536.704 309.28 537.272 311.779 537.84 314.05C538.408 316.322 538.408 316.322 538.749 317.344L539.089 318.821C539.292 319.256 539.444 319.714 539.544 320.184C539.657 320.638 539.884 321.092 539.998 321.433L540.339 322.569C540.679 323.25 540.793 323.932 541.02 324.386L541.702 325.976C542.383 327.68 542.497 329.27 541.815 329.725C541.134 330.179 539.884 328.93 539.089 327.112V326.999Z" fill="#9E5B3E"/>
<path d="M561.811 310.529C561.705 310.395 561.627 310.24 561.583 310.075L561.129 309.053C560.458 307.693 559.659 306.4 558.744 305.191L556.699 302.919C555.967 301.993 555.17 301.12 554.314 300.307C553.519 299.398 552.611 298.603 551.702 297.694L550.339 296.218L548.976 294.741C547.245 292.781 545.615 290.734 544.092 288.608C542.615 286.677 541.252 284.86 539.889 283.383C538.526 281.906 537.504 280.771 536.823 279.975L535.46 278.726C534.892 278.385 534.665 277.817 534.892 277.704C535.119 277.59 535.573 277.704 536.028 278.045L537.504 279.067C538.299 279.862 539.662 280.998 541.025 282.474C542.388 283.951 543.865 285.655 545.455 287.472C547.045 289.289 548.749 291.447 550.566 293.265C552.383 295.082 554.314 296.786 556.132 298.489L558.63 301.102C559.414 301.877 560.135 302.713 560.788 303.601C561.87 304.864 562.822 306.234 563.628 307.69L564.196 309.053L564.423 309.507C564.74 310.418 564.856 311.387 564.764 312.347C564.537 313.142 564.196 313.596 563.855 313.596C563.514 313.596 563.06 313.255 562.719 312.687L562.265 311.779L561.811 310.643V310.529Z" fill="#9E5B3E"/>
<path d="M563.286 294.855C563.401 294.352 563.553 293.859 563.74 293.378C564.237 292.166 564.886 291.021 565.671 289.971C566.173 289.272 566.744 288.625 567.375 288.04C568.004 287.378 568.688 286.771 569.419 286.223C570.941 284.959 572.533 283.783 574.189 282.701L578.96 279.521C580.391 278.719 581.758 277.808 583.049 276.795C584.006 276.139 584.917 275.418 585.775 274.637L586.684 273.615C587.024 273.274 587.479 273.161 587.592 273.388C587.706 273.615 587.706 273.956 587.479 274.296L586.57 275.319C585.758 276.246 584.885 277.119 583.958 277.931L579.982 281.111L575.439 284.519C573.933 285.608 572.492 286.784 571.123 288.04C570.441 288.721 569.76 289.289 569.305 289.857L567.829 291.561C567.212 292.396 566.715 293.314 566.352 294.287C566.304 294.596 566.228 294.9 566.125 295.196C566.059 295.254 566.019 295.335 566.012 295.423C565.964 295.993 565.768 296.541 565.444 297.013C565.216 297.467 564.876 297.808 564.535 297.808C564.194 297.808 563.74 297.694 563.513 297.126C563.329 296.801 563.214 296.442 563.175 296.071C563.136 295.7 563.174 295.324 563.286 294.968V294.855Z" fill="#9E5B3E"/>
<path d="M571.006 284.859L571.234 284.632L571.801 283.951L574.073 281.793L575.55 280.543C576.108 280.042 576.639 279.511 577.14 278.953L577.821 278.158L578.503 277.136L579.184 276.227L579.866 275.091C580.661 273.728 581.342 272.252 582.024 270.775C582.705 269.299 583.16 268.049 583.728 266.913L585.091 264.187C585.287 263.868 585.44 263.525 585.545 263.165C585.772 262.824 585.999 262.597 586.113 262.711C586.226 262.824 586.113 263.165 585.999 263.392C585.894 263.752 585.741 264.096 585.545 264.415C585.204 265.096 584.863 266.118 584.409 267.254L582.819 271.23C582.251 272.593 581.57 274.183 580.774 275.659L580.207 276.795L579.525 277.817L578.844 278.84L578.048 279.862C577.547 280.42 577.016 280.951 576.458 281.452L574.982 282.815C574.073 283.724 573.278 284.405 572.824 284.973L572.369 285.541L572.142 285.768L571.574 286.336C571.489 286.57 571.33 286.77 571.12 286.904C570.893 287.131 570.552 287.358 570.325 287.245C570.098 287.131 570.098 286.904 570.211 286.45C570.302 286.189 570.378 285.924 570.438 285.655L571.006 284.859Z" fill="#9E5B3E"/>
<path d="M584.866 318.48C585.196 318.089 585.578 317.745 586.002 317.458C587.079 316.56 588.261 315.797 589.523 315.186L591.908 313.937L594.634 312.801L597.587 311.551L599.177 310.983L600.654 310.302L603.493 308.712L606.219 307.235L611.104 304.282L614.397 302.01L615.647 301.102C616.101 300.761 616.442 300.647 616.555 300.761C616.417 301.091 616.179 301.369 615.874 301.556L614.738 302.465C613.943 303.033 612.921 303.941 611.444 304.85L606.787 308.03L604.061 309.62L601.108 311.211L599.632 312.006L598.042 312.687L595.202 313.937C594.254 314.262 593.341 314.68 592.476 315.186L590.091 316.322C588.977 316.958 587.913 317.68 586.91 318.48C586.535 318.784 586.192 319.127 585.888 319.502L584.639 320.979C584.298 321.319 584.184 321.66 583.957 321.66C583.73 321.66 583.617 321.206 583.73 320.638C583.857 319.869 584.213 319.156 584.752 318.593L584.866 318.48Z" fill="#9E5B3E"/>
<path d="M538.64 324.045L538.072 322.682L536.368 318.934C535.997 318.117 535.579 317.32 535.119 316.549L533.756 313.823L532.166 310.983L530.462 308.144L526.827 302.578L525.237 299.966C524.722 299.207 524.266 298.41 523.874 297.581L523.306 296.445C523.109 296.127 522.956 295.783 522.852 295.423C522.625 294.741 522.284 294.173 522.17 293.719C522.049 293.218 521.898 292.725 521.716 292.242C521.602 291.674 521.602 291.22 521.716 291.22C521.938 291.483 522.093 291.794 522.17 292.129L522.738 293.492C522.936 294.071 523.163 294.64 523.42 295.196L523.874 296.104C524.131 296.445 524.323 296.83 524.442 297.24L525.919 299.512C526.408 300.396 526.978 301.232 527.622 302.01L531.371 307.462L533.188 310.416L534.892 313.255L536.368 315.868L537.618 318.366C538.299 319.843 538.981 321.206 539.321 322.115C539.569 322.582 539.76 323.078 539.889 323.591C540.571 325.181 540.684 326.658 540.344 326.771C540.003 326.885 539.208 325.749 538.64 324.159V324.045Z" fill="#9E5B3E"/>
<path d="M561.81 329.497C561.618 329.176 561.466 328.833 561.356 328.475C561.288 328.033 561.134 327.608 560.902 327.226C560.762 326.716 560.572 326.221 560.334 325.749C559.993 325.181 559.766 324.5 559.425 323.932L558.403 321.887L555.904 317.685C555.109 316.208 554.2 314.845 553.519 313.369C552.785 312.129 552.14 310.838 551.588 309.507C551.133 308.371 550.793 307.349 550.565 306.667L550.225 305.532C550.149 305.077 550.149 304.85 550.225 304.85C550.338 304.85 550.566 305.077 550.679 305.418L551.02 306.44C551.361 307.122 551.701 308.144 552.269 309.28C552.869 310.536 553.552 311.75 554.314 312.914L556.813 317.117L559.425 321.319L560.561 323.25L561.469 325.068L562.265 326.658C562.379 327.087 562.531 327.505 562.719 327.907L563.06 329.043C563.514 330.293 563.4 331.428 563.06 331.542C562.719 331.655 562.151 330.747 561.81 329.611V329.497Z" fill="#9E5B3E"/>
<path d="M564.531 324.954L564.872 323.137C565.243 321.623 565.737 320.141 566.349 318.707C566.717 317.74 567.134 316.793 567.598 315.868C567.817 315.316 568.083 314.784 568.393 314.277L569.188 312.801C570.444 310.624 571.848 308.537 573.391 306.554C574.867 304.509 576.458 302.578 578.048 300.761L582.477 296.104C583.479 294.987 584.541 293.925 585.658 292.924L586.907 291.674C587.361 291.22 587.816 291.107 587.929 291.334C588.043 291.561 587.929 291.902 587.589 292.356L586.453 293.605L583.5 297.013L579.411 302.011C578.048 303.828 576.571 305.759 575.208 307.803C573.82 309.76 572.568 311.809 571.46 313.937L570.665 315.527L569.983 316.89C569.643 317.912 569.188 318.821 568.848 319.616C568.395 320.996 568.016 322.398 567.712 323.818L567.371 325.409C567.228 326.188 566.999 326.95 566.689 327.68C566.349 328.248 566.008 328.589 565.667 328.589C565.326 328.589 564.872 328.248 564.645 327.567C564.418 326.885 564.531 326.885 564.531 326.431C564.44 326.216 564.401 325.982 564.418 325.749C564.509 325.534 564.548 325.301 564.531 325.068V324.954Z" fill="#9E5B3E"/>
<path d="M552.723 416.615V414.684C552.836 413.435 552.95 411.731 553.291 409.687C553.631 407.642 553.631 407.642 553.858 406.62C554.086 405.598 554.199 404.348 554.426 403.213C554.558 402.653 554.634 402.083 554.654 401.509C554.785 400.911 554.861 400.303 554.881 399.691L555.221 395.943C555.449 393.331 555.676 390.718 555.903 388.333C556.13 385.948 556.584 383.676 556.812 381.745C557.039 379.815 557.38 378.224 557.607 377.089L557.947 375.271C557.962 375.137 558.002 375.006 558.067 374.888C558.132 374.769 558.22 374.664 558.326 374.58C558.431 374.495 558.553 374.432 558.683 374.395C558.813 374.358 558.949 374.347 559.083 374.363C559.301 374.457 559.484 374.617 559.607 374.821C559.729 375.025 559.784 375.262 559.765 375.498V377.316C559.765 378.452 559.651 380.042 559.651 381.973V401.963C559.538 402.645 559.538 403.212 559.424 403.894L559.083 407.415C558.864 408.384 558.75 409.374 558.743 410.368C558.549 411.838 558.435 413.316 558.402 414.798V416.388C558.495 417.102 558.334 417.825 557.947 418.433C557.506 419.044 556.969 419.581 556.357 420.023C555.98 420.203 555.555 420.256 555.146 420.174C554.736 420.092 554.364 419.88 554.086 419.568C553.72 419.202 553.413 418.78 553.177 418.319C552.958 417.811 552.805 417.276 552.723 416.729V416.615Z" fill="#9E5B3E"/>
<path d="M559.197 417.638L558.97 417.183C558.762 416.789 558.61 416.369 558.516 415.934C557.946 414.427 557.527 412.867 557.266 411.277C557.153 410.368 556.926 409.346 556.812 408.324C556.637 407.195 556.523 406.057 556.471 404.916C556.244 402.645 556.131 400.146 556.017 397.761C555.921 395.297 555.997 392.83 556.244 390.378C556.471 388.106 556.698 386.062 557.039 384.244C557.38 382.427 557.38 380.95 557.607 379.928C557.834 378.906 557.721 378.224 557.721 378.224C557.735 378.09 557.775 377.959 557.84 377.841C557.905 377.722 557.993 377.617 558.099 377.533C558.204 377.448 558.326 377.385 558.456 377.348C558.586 377.311 558.722 377.3 558.857 377.316C558.976 377.33 559.092 377.367 559.197 377.427C559.302 377.486 559.394 377.565 559.468 377.66C559.542 377.755 559.596 377.864 559.628 377.981C559.659 378.097 559.667 378.218 559.652 378.338C559.652 378.338 559.652 378.906 559.765 380.042C559.879 381.177 559.879 382.54 559.879 384.358V390.605C559.992 392.763 560.106 395.148 560.447 397.42C560.659 399.746 561.001 402.059 561.469 404.348C561.603 405.38 561.793 406.404 562.037 407.415C562.148 408.338 562.338 409.25 562.605 410.141C563.059 411.845 563.4 413.094 563.741 414.003L564.195 414.912V415.252C564.359 415.574 564.473 415.919 564.536 416.275C564.554 416.619 564.515 416.964 564.422 417.297C564.313 418.015 563.997 418.686 563.513 419.228C563.247 419.521 562.902 419.731 562.519 419.832C562.136 419.933 561.731 419.92 561.355 419.796C560.878 419.641 560.448 419.367 560.106 419.001C559.678 418.663 559.33 418.237 559.084 417.751L559.197 417.638Z" fill="#9E5B3E"/>
<path d="M249.332 416.666C249.332 416.666 345.655 222.022 380.427 240.008C415.199 257.993 496.534 416.666 496.534 416.666H249.332Z" fill="#B2C952"/>
<path d="M363.918 419.663C360.311 419.663 356.852 419.348 354.302 418.785C351.751 418.223 350.318 417.461 350.318 416.666V215.827C350.318 215.032 351.751 214.269 354.302 213.707C356.852 213.145 360.311 212.829 363.918 212.829C367.525 212.829 370.984 213.145 373.535 213.707C376.085 214.269 377.518 215.032 377.518 215.827V416.666C377.518 417.461 376.085 418.223 373.535 418.785C370.984 419.348 367.525 419.663 363.918 419.663Z" fill="url(#paint0_linear)"/>
<path d="M390.685 42.9655H342.124C334.343 43.0241 326.891 46.1055 321.341 51.5587L286.968 85.9311C281.479 91.4571 278.391 98.9254 278.375 106.714V155.076C278.403 162.921 281.485 170.447 286.968 176.059L321.341 210.231C324.064 212.967 327.303 215.136 330.871 216.611C334.439 218.086 338.263 218.838 342.124 218.824H390.685C394.545 218.838 398.37 218.086 401.938 216.611C405.505 215.136 408.745 212.967 411.468 210.231L445.641 176.059C448.392 173.305 450.568 170.032 452.043 166.43C453.519 162.828 454.263 158.968 454.234 155.076V106.714C454.27 102.851 453.528 99.0192 452.052 95.4485C450.575 91.8778 448.395 88.641 445.641 85.9311L411.468 51.5587C405.918 46.1055 398.465 43.0241 390.685 42.9655Z" fill="url(#paint1_linear)"/>
<path d="M344.923 135.891C345.322 135.891 345.522 137.29 345.522 139.888C345.522 142.486 345.322 143.885 344.923 143.885H341.525V150.479C341.525 150.879 340.726 151.079 339.327 151.279H333.532C331.733 151.079 330.734 150.879 330.734 150.279V144.084H320.342C319.451 142.949 318.65 141.746 317.944 140.487C317.319 139.52 316.91 138.43 316.745 137.29C316.73 136.793 316.87 136.305 317.145 135.891L328.536 115.507C328.736 115.108 329.735 114.908 331.733 114.908H338.128C340.326 114.908 341.326 114.908 341.326 115.108V135.891H344.923ZM332.333 135.891V125.1L326.138 135.891H332.333Z" fill="white"/>
<path d="M364.309 152.078C362.265 152.142 360.233 151.744 358.365 150.913C356.496 150.083 354.839 148.842 353.517 147.282C350.72 144.084 349.521 139.288 349.521 133.093C349.227 128.112 350.636 123.179 353.517 119.104C354.915 117.598 356.619 116.408 358.515 115.615C360.411 114.822 362.455 114.445 364.509 114.508C366.501 114.463 368.48 114.851 370.309 115.644C372.137 116.438 373.772 117.618 375.1 119.104C377.898 122.302 379.297 127.098 379.297 133.293C379.297 139.488 377.898 144.284 375.1 147.482C373.733 148.973 372.063 150.154 370.202 150.947C368.34 151.74 366.331 152.125 364.309 152.078ZM364.309 124.5C363.603 124.55 362.922 124.778 362.328 125.163C361.734 125.547 361.247 126.075 360.912 126.698C359.845 128.725 359.36 131.008 359.513 133.293C359.355 135.515 359.841 137.735 360.912 139.688C361.227 140.319 361.711 140.85 362.312 141.221C362.912 141.593 363.603 141.789 364.309 141.789C365.014 141.789 365.706 141.593 366.306 141.221C366.906 140.85 367.391 140.319 367.706 139.688C368.773 137.661 369.257 135.379 369.105 133.093C369.263 130.871 368.777 128.651 367.706 126.698C367.371 126.075 366.884 125.547 366.29 125.163C365.696 124.778 365.014 124.55 364.309 124.5Z" fill="white"/>
<path d="M409.673 135.891C410.072 135.891 410.272 137.29 410.272 139.888C410.272 142.486 410.072 143.885 409.673 143.885H406.275V150.479C406.275 150.879 405.476 151.079 404.077 151.279H398.282C396.483 151.079 395.484 150.879 395.484 150.279V144.084H385.092L382.694 140.487C382.069 139.52 381.66 138.43 381.495 137.29C381.48 136.793 381.62 136.305 381.895 135.891L393.286 115.507C393.486 115.108 394.485 114.908 396.483 114.908H402.878C405.076 114.908 406.075 114.908 406.075 115.108V135.891H409.673ZM397.083 135.891V125.1L390.888 135.891H397.083Z" fill="white"/>
<path d="M386.291 421.662H340.328C339.533 421.662 338.77 421.346 338.208 420.784C337.646 420.222 337.33 419.459 337.33 418.664C337.33 417.869 337.646 417.107 338.208 416.545C338.77 415.982 339.533 415.667 340.328 415.667H386.291C387.086 415.667 387.848 415.982 388.41 416.545C388.973 417.107 389.288 417.869 389.288 418.664C389.288 419.459 388.973 420.222 388.41 420.784C387.848 421.346 387.086 421.662 386.291 421.662Z" fill="url(#paint2_linear)"/>
<path d="M316.346 421.662H246.402C245.607 421.662 244.844 421.346 244.282 420.784C243.72 420.222 243.404 419.459 243.404 418.664C243.404 417.869 243.72 417.107 244.282 416.545C244.844 415.982 245.607 415.667 246.402 415.667H316.346C317.141 415.667 317.903 415.982 318.465 416.545C319.028 417.107 319.343 417.869 319.343 418.664C319.343 419.459 319.028 420.222 318.465 420.784C317.903 421.346 317.141 421.662 316.346 421.662Z" fill="url(#paint3_linear)"/>
<path d="M220.425 421.662H146.484C145.689 421.662 144.926 421.346 144.364 420.784C143.802 420.222 143.486 419.459 143.486 418.664C143.486 417.869 143.802 417.107 144.364 416.545C144.926 415.982 145.689 415.667 146.484 415.667H220.425C221.22 415.667 221.982 415.982 222.544 416.545C223.106 417.107 223.422 417.869 223.422 418.664C223.422 419.459 223.106 420.222 222.544 420.784C221.982 421.346 221.22 421.662 220.425 421.662Z" fill="url(#paint4_linear)"/>
<path d="M606.112 421.662H408.271C407.476 421.662 406.714 421.346 406.151 420.784C405.589 420.222 405.273 419.459 405.273 418.664C405.273 417.869 405.589 417.107 406.151 416.545C406.714 415.982 407.476 415.667 408.271 415.667H606.112C606.907 415.667 607.67 415.982 608.232 416.545C608.794 417.107 609.11 417.869 609.11 418.664C609.11 419.459 608.794 420.222 608.232 420.784C607.67 421.346 606.907 421.662 606.112 421.662Z" fill="url(#paint5_linear)"/>
<path d="M220.423 68.9447H12.9896C9.54453 68.9447 6.24058 67.5762 3.80456 65.1401C1.36854 62.7041 0 59.4002 0 55.9551H0C0 52.5101 1.36854 49.2061 3.80456 46.7701C6.24058 44.3341 9.54453 42.9655 12.9896 42.9655H220.423C223.868 42.9655 227.172 44.3341 229.608 46.7701C232.044 49.2061 233.413 52.5101 233.413 55.9551C233.413 59.4002 232.044 62.7041 229.608 65.1401C227.172 67.5762 223.868 68.9447 220.423 68.9447Z" fill="#F5F5F5"/>
<path d="M270.583 51.9583H63.1497C59.7047 51.9583 56.4007 50.5898 53.9647 48.1538C51.5287 45.7177 50.1602 42.4138 50.1602 38.9687C50.1602 35.5237 51.5287 32.2197 53.9647 29.7837C56.4007 27.3477 59.7047 25.9792 63.1497 25.9792H270.583C274.028 25.9792 277.332 27.3477 279.768 29.7837C282.204 32.2197 283.573 35.5237 283.573 38.9687C283.573 42.4138 282.204 45.7177 279.768 48.1538C277.332 50.5898 274.028 51.9583 270.583 51.9583Z" fill="#F5F5F5"/>
<path d="M212.829 25.9792H87.3294C83.8844 25.9792 80.5804 24.6106 78.1444 22.1746C75.7084 19.7386 74.3398 16.4346 74.3398 12.9896C74.3398 9.54453 75.7084 6.24058 78.1444 3.80456C80.5804 1.36854 83.8844 0 87.3294 0L212.829 0C216.274 0 219.578 1.36854 222.014 3.80456C224.45 6.24058 225.818 9.54453 225.818 12.9896C225.818 16.4346 224.45 19.7386 222.014 22.1746C219.578 24.6106 216.274 25.9792 212.829 25.9792Z" fill="#F5F5F5"/>
<path d="M200.639 61.7505H41.1669C34.7655 61.7505 29.5762 66.9398 29.5762 73.3412V76.1389C29.5762 82.5403 34.7655 87.7297 41.1669 87.7297H200.639C207.04 87.7297 212.23 82.5403 212.23 76.1389V73.3412C212.23 66.9398 207.04 61.7505 200.639 61.7505Z" fill="#F5F5F5"/>
<path d="M684.851 191.646H477.417C473.988 191.595 470.714 190.21 468.289 187.785C465.864 185.36 464.479 182.086 464.428 178.657C464.428 175.212 465.796 171.908 468.232 169.472C470.668 167.036 473.972 165.667 477.417 165.667H684.851C688.296 165.667 691.6 167.036 694.036 169.472C696.472 171.908 697.841 175.212 697.841 178.657C697.789 182.086 696.404 185.36 693.979 187.785C691.554 190.21 688.28 191.595 684.851 191.646Z" fill="#F5F5F5"/>
<path d="M735.009 174.46H527.576C524.13 174.46 520.827 173.092 518.391 170.656C515.954 168.219 514.586 164.916 514.586 161.47C514.638 158.042 516.023 154.767 518.448 152.342C520.872 149.918 524.147 148.532 527.576 148.481H735.009C738.438 148.532 741.712 149.918 744.137 152.342C746.562 154.767 747.947 158.042 747.999 161.47C747.999 164.916 746.63 168.219 744.194 170.656C741.758 173.092 738.454 174.46 735.009 174.46Z" fill="#F5F5F5"/>
<path d="M191.647 266.187H71.3431C67.898 266.187 64.5941 264.818 62.1581 262.382C59.7221 259.946 58.3535 256.642 58.3535 253.197C58.3535 249.752 59.7221 246.448 62.1581 244.012C64.5941 241.576 67.898 240.207 71.3431 240.207H191.647C195.076 240.259 198.35 241.644 200.775 244.069C203.2 246.494 204.585 249.768 204.636 253.197C204.585 256.626 203.2 259.9 200.775 262.325C198.35 264.75 195.076 266.135 191.647 266.187Z" fill="#F5F5F5"/>
<path d="M156.475 290.367H36.1712C32.7422 290.316 29.4682 288.93 27.0432 286.506C24.6183 284.081 23.2332 280.807 23.1816 277.378C23.1816 273.932 24.5502 270.629 26.9862 268.193C29.4222 265.756 32.7262 264.388 36.1712 264.388H156.475C159.92 264.388 163.224 265.756 165.66 268.193C168.096 270.629 169.464 273.932 169.464 277.378C169.413 280.807 168.028 284.081 165.603 286.506C163.178 288.93 159.904 290.316 156.475 290.367Z" fill="#F5F5F5"/>
<path d="M611.909 155.675H486.409C482.964 155.675 479.661 154.307 477.224 151.871C474.788 149.435 473.42 146.131 473.42 142.686C473.42 139.24 474.788 135.937 477.224 133.501C479.661 131.064 482.964 129.696 486.409 129.696H611.909C615.354 129.696 618.658 131.064 621.094 133.501C623.53 135.937 624.898 139.24 624.898 142.686C624.898 146.131 623.53 149.435 621.094 151.871C618.658 154.307 615.354 155.675 611.909 155.675Z" fill="#F5F5F5"/>
<path d="M711.029 184.252H551.557C545.156 184.252 539.967 189.442 539.967 195.843V198.641C539.967 205.042 545.156 210.231 551.557 210.231H711.029C717.431 210.231 722.62 205.042 722.62 198.641V195.843C722.62 189.442 717.431 184.252 711.029 184.252Z" fill="#F5F5F5"/>
</g>
<defs>
<linearGradient id="paint0_linear" x1="377.518" y1="419.663" x2="350.318" y2="419.663" gradientUnits="userSpaceOnUse">
<stop offset="0.02" stop-color="#669935"/>
<stop offset="1" stop-color="#335F5E"/>
</linearGradient>
<linearGradient id="paint1_linear" x1="454.235" y1="218.825" x2="278.375" y2="218.825" gradientUnits="userSpaceOnUse">
<stop offset="0.02" stop-color="#669935"/>
<stop offset="1" stop-color="#335F5E"/>
</linearGradient>
<linearGradient id="paint2_linear" x1="389.288" y1="421.662" x2="337.33" y2="421.662" gradientUnits="userSpaceOnUse">
<stop offset="0.02" stop-color="#669935"/>
<stop offset="1" stop-color="#335F5E"/>
</linearGradient>
<linearGradient id="paint3_linear" x1="319.343" y1="421.662" x2="243.404" y2="421.662" gradientUnits="userSpaceOnUse">
<stop offset="0.02" stop-color="#669935"/>
<stop offset="1" stop-color="#335F5E"/>
</linearGradient>
<linearGradient id="paint4_linear" x1="223.422" y1="421.662" x2="143.486" y2="421.662" gradientUnits="userSpaceOnUse">
<stop offset="0.02" stop-color="#669935"/>
<stop offset="1" stop-color="#335F5E"/>
</linearGradient>
<linearGradient id="paint5_linear" x1="609.11" y1="421.662" x2="405.273" y2="421.662" gradientUnits="userSpaceOnUse">
<stop offset="0.02" stop-color="#669935"/>
<stop offset="1" stop-color="#335F5E"/>
</linearGradient>
<clipPath id="clip0">
<rect width="748" height="421.662" fill="white"/>
</clipPath>
</defs>
</svg>
