<svg width="48" height="48" viewBox="0 0 48 48" fill="none" xmlns="http://www.w3.org/2000/svg">
<rect x="47.5" y="0.5" width="47" height="47" rx="3.5" transform="rotate(90 47.5 0.5)" fill="white" stroke="#EEEEEE"/>
<g clip-path="url(#clip0)">
<path fill-rule="evenodd" clip-rule="evenodd" d="M33.774 19.226C33.8456 19.2974 33.9024 19.3823 33.9412 19.4757C33.98 19.5692 33.9999 19.6693 33.9999 19.7705C33.9999 19.8717 33.98 19.9719 33.9412 20.0653C33.9024 20.1587 33.8456 20.2436 33.774 20.3151L24.5443 29.5448C24.4728 29.6164 24.388 29.6732 24.2945 29.712C24.2011 29.7508 24.1009 29.7707 23.9997 29.7707C23.8986 29.7707 23.7984 29.7508 23.705 29.712C23.6115 29.6732 23.5266 29.6164 23.4552 29.5448L14.2255 20.3151C14.0811 20.1706 13.9999 19.9748 13.9999 19.7705C13.9999 19.5663 14.0811 19.3704 14.2255 19.226C14.3699 19.0815 14.5658 19.0004 14.7701 19.0004C14.9743 19.0004 15.1702 19.0815 15.3146 19.226L23.9997 27.9126L32.6849 19.226C32.7563 19.1543 32.8412 19.0975 32.9346 19.0587C33.0281 19.02 33.1283 19 33.2294 19C33.3306 19 33.4308 19.02 33.5242 19.0587C33.6177 19.0975 33.7025 19.1543 33.774 19.226Z" fill="url(#paint0_linear)"/>
</g>
<defs>
<linearGradient id="paint0_linear" x1="13.9999" y1="29.7707" x2="13.9999" y2="19" gradientUnits="userSpaceOnUse">
<stop offset="0.02" stop-color="#669935"/>
<stop offset="1" stop-color="#335F5E"/>
</linearGradient>
<clipPath id="clip0">
<rect width="20" height="20" fill="white" transform="translate(34 14) rotate(90)"/>
</clipPath>
</defs>
</svg>
