<svg width="48" height="48" viewBox="0 0 48 48" fill="none" xmlns="http://www.w3.org/2000/svg">
<rect x="0.5" y="0.5" width="47" height="47" rx="3.5" fill="white" stroke="#EEEEEE"/>
<g clip-path="url(#clip0)">
<path fill-rule="evenodd" clip-rule="evenodd" d="M19.226 14.226C19.2974 14.1543 19.3823 14.0975 19.4757 14.0587C19.5692 14.02 19.6693 14 19.7705 14C19.8717 14 19.9719 14.02 20.0653 14.0587C20.1587 14.0975 20.2436 14.1543 20.3151 14.226L29.5448 23.4557C29.6164 23.5271 29.6732 23.612 29.712 23.7054C29.7508 23.7989 29.7707 23.899 29.7707 24.0002C29.7707 24.1014 29.7508 24.2015 29.712 24.295C29.6732 24.3884 29.6164 24.4733 29.5448 24.5448L20.3151 33.7744C20.1706 33.9189 19.9748 34 19.7705 34C19.5663 34 19.3704 33.9189 19.226 33.7744C19.0815 33.63 19.0004 33.4341 19.0004 33.2299C19.0004 33.0256 19.0815 32.8298 19.226 32.6853L27.9126 24.0002L19.226 15.3151C19.1543 15.2436 19.0975 15.1587 19.0587 15.0653C19.02 14.9719 19 14.8717 19 14.7705C19 14.6693 19.02 14.5692 19.0587 14.4757C19.0975 14.3823 19.1543 14.2974 19.226 14.226Z" fill="url(#paint0_linear)"/>
</g>
<defs>
<linearGradient id="paint0_linear" x1="29.7707" y1="34" x2="19" y2="34" gradientUnits="userSpaceOnUse">
<stop offset="0.02" stop-color="#669935"/>
<stop offset="1" stop-color="#335F5E"/>
</linearGradient>
<clipPath id="clip0">
<rect width="20" height="20" fill="white" transform="translate(14 14)"/>
</clipPath>
</defs>
</svg>
