<svg width="64" height="64" viewBox="0 0 64 64" fill="none" xmlns="http://www.w3.org/2000/svg">
<path d="M27.8711 20.6453H36.1292V22.7098H27.8711V20.6453Z" fill="url(#paint0_linear)"/>
<path d="M27.8711 24.7742H36.1292V26.8387H27.8711V24.7742Z" fill="url(#paint1_linear)"/>
<path d="M52.6449 12.3871C54.9222 12.3871 56.774 10.5353 56.774 8.25806C56.774 5.98085 54.9222 4.12903 52.6449 4.12903H46.4514V7.22581H44.835L42.4957 11.1245L41.2478 8.94153C41.1485 7.42792 40.7659 5.93145 40.0875 4.57611L37.7992 0H26.2004L23.9131 4.57611C23.2347 5.93246 22.8521 7.42792 22.7528 8.94153L21.5048 11.1245L19.1646 7.22581H17.5482V4.12903H11.3546C9.0774 4.12903 7.22559 5.98085 7.22559 8.25806C7.22559 10.5353 9.0774 12.3871 11.3546 12.3871H17.5482V9.29032H17.9963L20.3299 13.1799L19.0139 15.4839H13.4191C11.712 15.4839 10.3224 16.8735 10.3224 18.5806C10.3224 20.2878 11.712 21.6774 13.4191 21.6774H18.5804V25.2586L19.1182 25.7061L14.4514 29.44V29.9355C14.4514 35.0948 15.9418 40.1588 18.6591 44.5131L11.3546 45.5564V50.5806H18.5804V51.6129C18.5804 53.3201 19.97 54.7097 21.6772 54.7097H23.464L23.8677 57.8064H26.8385V58.8387C26.8385 61.6845 29.154 64 31.9998 64C34.8455 64 37.1611 61.6845 37.1611 58.8387V57.8064H40.1318L40.5356 54.7097H42.3224C44.0295 54.7097 45.4191 53.3201 45.4191 51.6129V50.5806H52.6449V45.5564L45.3405 44.5131C48.0577 40.1588 49.5482 35.0948 49.5482 29.9355V29.44L44.8813 25.7061L45.4191 25.2586V21.6774H50.5804C52.2876 21.6774 53.6772 20.2878 53.6772 18.5806C53.6772 16.8735 52.2876 15.4839 50.5804 15.4839H44.9857L43.6696 13.1799L46.0033 9.29032H46.4514V12.3871H52.6449ZM15.4837 10.3226H11.3546C10.216 10.3226 9.2901 9.39667 9.2901 8.25806C9.2901 7.11946 10.216 6.19355 11.3546 6.19355H15.4837V7.22581H12.3869V9.29032H15.4837V10.3226ZM35.2825 39.2258H28.717L27.0658 30.9677H36.9348L35.2825 39.2258ZM37.8198 28.9032H26.1797L21.0774 24.6512L26.281 18.5806H37.7185L42.9222 24.6512L37.8198 28.9032ZM23.2936 13.2767L24.6419 17.3201L20.6449 21.9839V16.7908L23.0779 12.5328C23.1429 12.7812 23.212 13.0312 23.2936 13.2767ZM43.3546 21.9839L39.3576 17.3201L40.7059 13.2767C40.7886 13.0312 40.8566 12.7812 40.9217 12.5318L43.3546 16.7908V21.9839ZM25.7599 5.49899L27.4766 2.06452H36.523L38.2407 5.49899C38.8849 6.78831 39.2256 8.23135 39.2256 9.67238C39.2256 10.6789 39.0648 11.6719 38.7468 12.6235L37.4489 16.5161H26.5507L25.2528 12.6235C24.9348 11.6719 24.774 10.6789 24.774 9.67238C24.774 8.23135 25.1147 6.78831 25.7599 5.49899ZM13.4191 19.6129C12.8506 19.6129 12.3869 19.1502 12.3869 18.5806C12.3869 18.0111 12.8506 17.5484 13.4191 17.5484H18.5804V19.6129H13.4191ZM20.7367 27.0554L24.1424 29.8931L20.5759 32.5685L22.3471 46.1532L22.092 45.8352C18.5981 41.4688 16.6293 36.0146 16.5199 30.4279L20.7367 27.0554ZM13.4191 48.5161V47.3468L18.5804 46.6094V48.5161H13.4191ZM21.6772 52.6452C21.1087 52.6452 20.6449 52.1825 20.6449 51.6129V47.3301L22.8632 50.1028L23.1948 52.6452H21.6772ZM37.1611 55.7419V53.6774H35.0966V58.8387C35.0966 60.5459 33.7069 61.9355 31.9998 61.9355C30.2926 61.9355 28.903 60.5459 28.903 58.8387V46.4516H26.8385V55.7419H25.6802L22.7785 33.496L25.1157 31.7439L26.8385 40.3604V44.3871H28.903V41.2903H35.0966V51.6129H37.1611V40.3604L38.8839 31.7439L41.2211 33.496L38.3193 55.7419H37.1611ZM42.3224 52.6452H40.8047L41.1364 50.1028L43.3546 47.3301V51.6129C43.3546 52.1825 42.8909 52.6452 42.3224 52.6452ZM50.5804 48.5161H45.4191V46.6094L50.5804 47.3468V48.5161ZM47.4786 30.4279C47.3692 36.0146 45.4005 41.4677 41.9065 45.8352L41.6515 46.1532L43.4227 32.5685L39.8561 29.8931L43.2619 27.0554L47.4786 30.4279ZM51.6127 18.5806C51.6127 19.1502 51.149 19.6129 50.5804 19.6129H45.4191V17.5484H50.5804C51.149 17.5484 51.6127 18.0111 51.6127 18.5806ZM48.5159 6.19355H52.6449C53.7835 6.19355 54.7095 7.11946 54.7095 8.25806C54.7095 9.39667 53.7835 10.3226 52.6449 10.3226H48.5159V9.29032H51.6127V7.22581H48.5159V6.19355Z" fill="url(#paint2_linear)"/>
<path d="M30.2373 5.89107L31.697 4.4314L36.8583 9.59218L35.3981 11.0524L30.2373 5.89107Z" fill="url(#paint3_linear)"/>
<path d="M27.1406 8.988L28.6003 7.52832L34.7938 13.7214L33.3337 15.181L27.1406 8.988Z" fill="url(#paint4_linear)"/>
<defs>
<linearGradient id="paint0_linear" x1="36.1292" y1="22.7098" x2="27.8711" y2="22.7098" gradientUnits="userSpaceOnUse">
<stop offset="0.02" stop-color="#669935"/>
<stop offset="1" stop-color="#335F5E"/>
</linearGradient>
<linearGradient id="paint1_linear" x1="36.1292" y1="26.8387" x2="27.8711" y2="26.8387" gradientUnits="userSpaceOnUse">
<stop offset="0.02" stop-color="#669935"/>
<stop offset="1" stop-color="#335F5E"/>
</linearGradient>
<linearGradient id="paint2_linear" x1="56.774" y1="64" x2="7.22559" y2="64" gradientUnits="userSpaceOnUse">
<stop offset="0.02" stop-color="#669935"/>
<stop offset="1" stop-color="#335F5E"/>
</linearGradient>
<linearGradient id="paint3_linear" x1="36.8583" y1="11.0524" x2="30.2373" y2="11.0524" gradientUnits="userSpaceOnUse">
<stop offset="0.02" stop-color="#669935"/>
<stop offset="1" stop-color="#335F5E"/>
</linearGradient>
<linearGradient id="paint4_linear" x1="34.7938" y1="15.181" x2="27.1406" y2="15.181" gradientUnits="userSpaceOnUse">
<stop offset="0.02" stop-color="#669935"/>
<stop offset="1" stop-color="#335F5E"/>
</linearGradient>
</defs>
</svg>
