<svg width="24" height="24" viewBox="0 0 24 24" fill="none" xmlns="http://www.w3.org/2000/svg">
<path d="M0.703125 24H23.2969C23.6852 24 24 23.6852 24 23.2969V2.10938C24 1.72106 23.6852 1.40625 23.2969 1.40625H21.1406V0.703125C21.1406 0.314812 20.8258 0 20.4375 0C20.0492 0 19.7344 0.314812 19.7344 0.703125V1.40625H16.9219V0.703125C16.9219 0.314812 16.6071 0 16.2188 0C15.8304 0 15.5156 0.314812 15.5156 0.703125V1.40625H8.48438V0.703125C8.48438 0.314812 8.16956 0 7.78125 0C7.39294 0 7.07812 0.314812 7.07812 0.703125V1.40625H4.26562V0.703125C4.26562 0.314812 3.95081 0 3.5625 0C3.17419 0 2.85938 0.314812 2.85938 0.703125V1.40625H0.703125C0.314812 1.40625 0 1.72106 0 2.10938V23.2969C0 23.6852 0.314812 24 0.703125 24ZM1.40625 22.5938V7.125H22.5938V22.5938H1.40625ZM2.85938 2.8125V3.5625C2.85938 3.95081 3.17419 4.26562 3.5625 4.26562C3.95081 4.26562 4.26562 3.95081 4.26562 3.5625V2.8125H7.07812V3.5625C7.07812 3.95081 7.39294 4.26562 7.78125 4.26562C8.16956 4.26562 8.48438 3.95081 8.48438 3.5625V2.8125H15.5156V3.5625C15.5156 3.95081 15.8304 4.26562 16.2188 4.26562C16.6071 4.26562 16.9219 3.95081 16.9219 3.5625V2.8125H19.7344V3.5625C19.7344 3.95081 20.0492 4.26562 20.4375 4.26562C20.8258 4.26562 21.1406 3.95081 21.1406 3.5625V2.8125H22.5938V5.71875H1.40625V2.8125H2.85938Z" fill="url(#paint0_linear)"/>
<path d="M19.0312 9.9375H17.625C17.2367 9.9375 16.9219 10.2523 16.9219 10.6406C16.9219 11.0289 17.2367 11.3438 17.625 11.3438H19.0312C19.4196 11.3438 19.7344 11.0289 19.7344 10.6406C19.7344 10.2523 19.4196 9.9375 19.0312 9.9375Z" fill="url(#paint1_linear)"/>
<path d="M13.4062 11.3438H14.8125C15.2008 11.3438 15.5156 11.0289 15.5156 10.6406C15.5156 10.2523 15.2008 9.9375 14.8125 9.9375H13.4062C13.0179 9.9375 12.7031 10.2523 12.7031 10.6406C12.7031 11.0289 13.0179 11.3438 13.4062 11.3438Z" fill="url(#paint2_linear)"/>
<path d="M19.0312 14.1562H17.625C17.2367 14.1562 16.9219 14.4711 16.9219 14.8594C16.9219 15.2477 17.2367 15.5625 17.625 15.5625H19.0312C19.4196 15.5625 19.7344 15.2477 19.7344 14.8594C19.7344 14.4711 19.4196 14.1562 19.0312 14.1562Z" fill="url(#paint3_linear)"/>
<path d="M13.4062 15.5625H14.8125C15.2008 15.5625 15.5156 15.2477 15.5156 14.8594C15.5156 14.4711 15.2008 14.1562 14.8125 14.1562H13.4062C13.0179 14.1562 12.7031 14.4711 12.7031 14.8594C12.7031 15.2477 13.0179 15.5625 13.4062 15.5625Z" fill="url(#paint4_linear)"/>
<path d="M10.5938 14.1562H9.1875C8.79919 14.1562 8.48438 14.4711 8.48438 14.8594C8.48438 15.2477 8.79919 15.5625 9.1875 15.5625H10.5938C10.9821 15.5625 11.2969 15.2477 11.2969 14.8594C11.2969 14.4711 10.9821 14.1562 10.5938 14.1562Z" fill="url(#paint5_linear)"/>
<path d="M6.375 14.1562H4.96875C4.58044 14.1562 4.26562 14.4711 4.26562 14.8594C4.26562 15.2477 4.58044 15.5625 4.96875 15.5625H6.375C6.76331 15.5625 7.07812 15.2477 7.07812 14.8594C7.07812 14.4711 6.76331 14.1562 6.375 14.1562Z" fill="url(#paint6_linear)"/>
<path d="M10.5938 18.375H9.1875C8.79919 18.375 8.48438 18.6898 8.48438 19.0781C8.48438 19.4664 8.79919 19.7812 9.1875 19.7812H10.5938C10.9821 19.7812 11.2969 19.4664 11.2969 19.0781C11.2969 18.6898 10.9821 18.375 10.5938 18.375Z" fill="url(#paint7_linear)"/>
<path d="M6.375 18.375H4.96875C4.58044 18.375 4.26562 18.6898 4.26562 19.0781C4.26562 19.4664 4.58044 19.7812 4.96875 19.7812H6.375C6.76331 19.7812 7.07812 19.4664 7.07812 19.0781C7.07812 18.6898 6.76331 18.375 6.375 18.375Z" fill="url(#paint8_linear)"/>
<path d="M19.0312 16.9688H13.4062C13.0179 16.9688 12.7031 17.2836 12.7031 17.6719V20.4844C12.7031 20.8727 13.0179 21.1875 13.4062 21.1875H19.0312C19.4196 21.1875 19.7344 20.8727 19.7344 20.4844V17.6719C19.7344 17.2836 19.4196 16.9688 19.0312 16.9688ZM18.3281 19.7812H14.1094V18.375H18.3281V19.7812Z" fill="url(#paint9_linear)"/>
<path d="M10.5938 8.53125H4.96875C4.58044 8.53125 4.26562 8.84606 4.26562 9.23438V12.0469C4.26562 12.4352 4.58044 12.75 4.96875 12.75H10.5938C10.9821 12.75 11.2969 12.4352 11.2969 12.0469V9.23438C11.2969 8.84606 10.9821 8.53125 10.5938 8.53125ZM9.89062 11.3438H5.67188V9.9375H9.89062V11.3438Z" fill="url(#paint10_linear)"/>
<defs>
<linearGradient id="paint0_linear" x1="24" y1="24" x2="-1.93715e-07" y2="24" gradientUnits="userSpaceOnUse">
<stop offset="0.02" stop-color="#669935"/>
<stop offset="1" stop-color="#335F5E"/>
</linearGradient>
<linearGradient id="paint1_linear" x1="19.7344" y1="11.3438" x2="16.9219" y2="11.3438" gradientUnits="userSpaceOnUse">
<stop offset="0.02" stop-color="#669935"/>
<stop offset="1" stop-color="#335F5E"/>
</linearGradient>
<linearGradient id="paint2_linear" x1="15.5156" y1="11.3438" x2="12.7031" y2="11.3438" gradientUnits="userSpaceOnUse">
<stop offset="0.02" stop-color="#669935"/>
<stop offset="1" stop-color="#335F5E"/>
</linearGradient>
<linearGradient id="paint3_linear" x1="19.7344" y1="15.5625" x2="16.9219" y2="15.5625" gradientUnits="userSpaceOnUse">
<stop offset="0.02" stop-color="#669935"/>
<stop offset="1" stop-color="#335F5E"/>
</linearGradient>
<linearGradient id="paint4_linear" x1="15.5156" y1="15.5625" x2="12.7031" y2="15.5625" gradientUnits="userSpaceOnUse">
<stop offset="0.02" stop-color="#669935"/>
<stop offset="1" stop-color="#335F5E"/>
</linearGradient>
<linearGradient id="paint5_linear" x1="11.2969" y1="15.5625" x2="8.48437" y2="15.5625" gradientUnits="userSpaceOnUse">
<stop offset="0.02" stop-color="#669935"/>
<stop offset="1" stop-color="#335F5E"/>
</linearGradient>
<linearGradient id="paint6_linear" x1="7.07812" y1="15.5625" x2="4.26562" y2="15.5625" gradientUnits="userSpaceOnUse">
<stop offset="0.02" stop-color="#669935"/>
<stop offset="1" stop-color="#335F5E"/>
</linearGradient>
<linearGradient id="paint7_linear" x1="11.2969" y1="19.7813" x2="8.48437" y2="19.7813" gradientUnits="userSpaceOnUse">
<stop offset="0.02" stop-color="#669935"/>
<stop offset="1" stop-color="#335F5E"/>
</linearGradient>
<linearGradient id="paint8_linear" x1="7.07812" y1="19.7813" x2="4.26562" y2="19.7813" gradientUnits="userSpaceOnUse">
<stop offset="0.02" stop-color="#669935"/>
<stop offset="1" stop-color="#335F5E"/>
</linearGradient>
<linearGradient id="paint9_linear" x1="19.7344" y1="21.1875" x2="12.7031" y2="21.1875" gradientUnits="userSpaceOnUse">
<stop offset="0.02" stop-color="#669935"/>
<stop offset="1" stop-color="#335F5E"/>
</linearGradient>
<linearGradient id="paint10_linear" x1="11.2969" y1="12.75" x2="4.26562" y2="12.75" gradientUnits="userSpaceOnUse">
<stop offset="0.02" stop-color="#669935"/>
<stop offset="1" stop-color="#335F5E"/>
</linearGradient>
</defs>
</svg>
