<svg width="24" height="24" viewBox="0 0 24 24" fill="none" xmlns="http://www.w3.org/2000/svg">
<path d="M19.0312 9.84375H20.4375C21.6006 9.84375 22.5469 8.89748 22.5469 7.73438V2.10938C22.5469 0.946266 21.6006 0 20.4375 0H19.0312C17.8681 0 16.9219 0.946266 16.9219 2.10938V4.21875H13.9884C13.6982 3.40041 12.9166 2.8125 12 2.8125C11.0834 2.8125 10.3018 3.40041 10.0116 4.21875H7.07812V2.10938C7.07812 0.946266 6.13186 0 4.96875 0H3.5625C2.39939 0 1.45312 0.946266 1.45312 2.10938V7.73438C1.45312 8.89748 2.39939 9.84375 3.5625 9.84375H4.96875C6.13186 9.84375 7.07812 8.89748 7.07812 7.73438V5.625H10.0116C10.2238 6.22331 10.6986 6.69811 11.2969 6.91031V11.4179C10.4785 11.7081 9.89062 12.4897 9.89062 13.4063V14.8125C9.89062 15.7292 10.4785 16.5107 11.2969 16.801V18.3281H7.07812V16.2188C7.07812 15.0556 6.13186 14.1094 4.96875 14.1094H3.5625C2.39939 14.1094 1.45312 15.0556 1.45312 16.2188V21.8906C1.45312 23.0537 2.39939 24 3.5625 24H4.96875C6.13186 24 7.07812 23.0537 7.07812 21.8906V19.7344H16.9219V21.8906C16.9219 23.0537 17.8681 24 19.0312 24H20.4375C21.6006 24 22.5469 23.0537 22.5469 21.8906V16.2188C22.5469 15.0556 21.6006 14.1094 20.4375 14.1094H19.0312C17.8681 14.1094 16.9219 15.0556 16.9219 16.2188V18.3281H12.7031V16.8009C13.5215 16.5107 14.1094 15.7291 14.1094 14.8125V13.4062C14.1094 12.4896 13.5215 11.7081 12.7031 11.4178V6.91031C13.3014 6.69811 13.7762 6.22331 13.9884 5.625H16.9219V7.73438C16.9219 8.89748 17.8681 9.84375 19.0312 9.84375ZM18.3281 2.10938C18.3281 1.72167 18.6435 1.40625 19.0312 1.40625H20.4375C20.8252 1.40625 21.1406 1.72167 21.1406 2.10938V7.73438C21.1406 8.12208 20.8252 8.4375 20.4375 8.4375H19.0312C18.6435 8.4375 18.3281 8.12208 18.3281 7.73438V2.10938ZM5.67188 7.73438C5.67188 8.12208 5.35645 8.4375 4.96875 8.4375H3.5625C3.1748 8.4375 2.85938 8.12208 2.85938 7.73438V2.10938C2.85938 1.72167 3.1748 1.40625 3.5625 1.40625H4.96875C5.35645 1.40625 5.67188 1.72167 5.67188 2.10938V7.73438ZM5.67188 21.8906C5.67188 22.2783 5.35645 22.5938 4.96875 22.5938H3.5625C3.1748 22.5938 2.85938 22.2783 2.85938 21.8906V16.2188C2.85938 15.831 3.1748 15.5156 3.5625 15.5156H4.96875C5.35645 15.5156 5.67188 15.831 5.67188 16.2188V21.8906ZM18.3281 16.2188C18.3281 15.831 18.6435 15.5156 19.0312 15.5156H20.4375C20.8252 15.5156 21.1406 15.831 21.1406 16.2188V21.8906C21.1406 22.2783 20.8252 22.5938 20.4375 22.5938H19.0312C18.6435 22.5938 18.3281 22.2783 18.3281 21.8906V16.2188ZM12.7031 14.8125C12.7031 15.2002 12.3877 15.5156 12 15.5156C11.6123 15.5156 11.2969 15.2002 11.2969 14.8125V13.4062C11.2969 13.0185 11.6123 12.7031 12 12.7031C12.3877 12.7031 12.7031 13.0185 12.7031 13.4062V14.8125ZM12 5.625C11.6123 5.625 11.2969 5.30958 11.2969 4.92188C11.2969 4.53417 11.6123 4.21875 12 4.21875C12.3877 4.21875 12.7031 4.53417 12.7031 4.92188C12.7031 5.30958 12.3877 5.625 12 5.625Z" fill="url(#paint0_linear)"/>
<defs>
<linearGradient id="paint0_linear" x1="22.5469" y1="24" x2="1.45312" y2="24" gradientUnits="userSpaceOnUse">
<stop offset="0.02" stop-color="#669935"/>
<stop offset="1" stop-color="#335F5E"/>
</linearGradient>
</defs>
</svg>
