<svg width="48" height="48" viewBox="0 0 48 48" fill="none" xmlns="http://www.w3.org/2000/svg">
<path d="M40.9705 7.02938C36.4375 2.49647 30.4106 0 24 0C17.5894 0 11.5625 2.49647 7.02947 7.02938C2.49638 11.5625 0 17.5894 0 24C0 30.4106 2.49638 36.4375 7.02947 40.9706C11.5625 45.5035 17.5894 48 24 48C30.4106 48 36.4375 45.5035 40.9705 40.9706C45.5036 36.4375 48 30.4106 48 24C48 17.5894 45.5036 11.5625 40.9705 7.02938ZM24 46.125C11.8002 46.125 1.875 36.1998 1.875 24C1.875 11.8002 11.8002 1.875 24 1.875C36.1998 1.875 46.125 11.8002 46.125 24C46.125 36.1998 36.1998 46.125 24 46.125Z" fill="url(#paint0_linear)"/>
<path d="M24.0004 5.84531C13.9899 5.84531 5.8457 13.9895 5.8457 24C5.8457 34.0105 13.9899 42.1547 24.0004 42.1547C34.0109 42.1547 42.1551 34.0105 42.1551 24C42.1551 13.9895 34.0109 5.84531 24.0004 5.84531ZM24.0004 40.2797C15.0237 40.2797 7.7207 32.9766 7.7207 24C7.7207 15.0233 15.0237 7.72031 24.0004 7.72031C32.977 7.72031 40.2801 15.0233 40.2801 24C40.2801 32.9766 32.977 40.2797 24.0004 40.2797Z" fill="url(#paint1_linear)"/>
<path d="M32.0956 23.0625H27.2956C26.9717 21.9253 26.0739 21.0274 24.9366 20.7036V12.1376C24.9366 11.6199 24.5169 11.2001 23.9991 11.2001C23.4813 11.2001 23.0616 11.6199 23.0616 12.1376V20.7036C21.6263 21.1123 20.5723 22.4354 20.5723 24C20.5723 25.8895 22.1096 27.4269 23.9991 27.4269C25.5637 27.4269 26.8869 26.3728 27.2956 24.9375H32.0956C32.6133 24.9375 33.0331 24.5177 33.0331 24C33.0331 23.4822 32.6133 23.0625 32.0956 23.0625ZM23.9991 25.5519C23.1435 25.5519 22.4473 24.8557 22.4473 24C22.4473 23.1444 23.1435 22.4482 23.9991 22.4482C24.8548 22.4482 25.551 23.1444 25.551 24C25.551 24.8557 24.8548 25.5519 23.9991 25.5519Z" fill="url(#paint2_linear)"/>
<defs>
<linearGradient id="paint0_linear" x1="48" y1="48" x2="-3.8743e-07" y2="48" gradientUnits="userSpaceOnUse">
<stop offset="0.02" stop-color="#669935"/>
<stop offset="1" stop-color="#335F5E"/>
</linearGradient>
<linearGradient id="paint1_linear" x1="42.1551" y1="42.1547" x2="5.8457" y2="42.1547" gradientUnits="userSpaceOnUse">
<stop offset="0.02" stop-color="#669935"/>
<stop offset="1" stop-color="#335F5E"/>
</linearGradient>
<linearGradient id="paint2_linear" x1="33.0331" y1="27.4269" x2="20.5723" y2="27.4269" gradientUnits="userSpaceOnUse">
<stop offset="0.02" stop-color="#669935"/>
<stop offset="1" stop-color="#335F5E"/>
</linearGradient>
</defs>
</svg>
