<svg width="64" height="64" viewBox="0 0 64 64" fill="none" xmlns="http://www.w3.org/2000/svg">
<path d="M7.44812 7.4629V62.9017C7.44812 63.4906 7.92547 63.9679 8.51437 63.9679H49.0274C49.6159 63.9679 50.0932 63.4906 50.0932 62.9017V18.1245C50.0932 18.1008 50.0818 18.0806 50.0796 18.0573C50.0743 17.9638 50.0559 17.8716 50.0251 17.7833C50.0133 17.749 50.0049 17.7161 49.99 17.6827C49.9382 17.5668 49.8662 17.461 49.7766 17.3705L39.1154 6.70933C39.025 6.6193 38.9187 6.54728 38.8019 6.4959C38.7698 6.48229 38.7373 6.47087 38.7039 6.46077C38.6148 6.43003 38.5221 6.41159 38.4277 6.40544C38.4097 6.40851 38.3886 6.39709 38.3662 6.39709H8.51437C7.92547 6.39709 7.44812 6.87401 7.44812 7.4629ZM46.4536 17.0583H39.432V10.0367L46.4536 17.0583ZM9.58018 8.52915H37.3V18.1245C37.3 18.713 37.7773 19.1903 38.3658 19.1903H47.9611V61.8359H9.58018V8.52915Z" fill="#F2F2F2"/>
<path d="M52.2257 55.4387V57.5708H55.424C56.0129 57.5708 56.4902 57.0939 56.4902 56.505V1.06625C56.4902 0.477352 56.0129 0 55.424 0H14.911C14.3221 0 13.8447 0.477352 13.8447 1.06625V4.26455H15.9772V2.13206H54.3578V55.4387H52.2257Z" fill="#F2F2F2"/>
<path d="M15.9773 21.3228H41.5642V23.4548H15.9773V21.3228Z" fill="#F2F2F2"/>
<path d="M15.9773 14.9258H24.5064V17.0583H15.9773V14.9258Z" fill="#F2F2F2"/>
<path d="M15.9773 27.7194H33.0355V29.8518H15.9773V27.7194Z" fill="#F2F2F2"/>
<path d="M35.1676 27.7194H41.5642V29.8518H35.1676V27.7194Z" fill="#F2F2F2"/>
<path d="M15.9773 34.116H41.5642V36.2485H15.9773V34.116Z" fill="#F2F2F2"/>
<path d="M15.9773 46.9097H41.5642V49.0422H15.9773V46.9097Z" fill="#F2F2F2"/>
<path d="M25.5723 40.5131H41.5642V42.6451H25.5723V40.5131Z" fill="#F2F2F2"/>
<path d="M15.9773 40.5131H23.4402V42.6451H15.9773V40.5131Z" fill="#F2F2F2"/>
<path d="M15.9773 53.3068H20.2418V55.4388H15.9773V53.3068Z" fill="#F2F2F2"/>
<path d="M22.3739 53.3068H41.5642V55.4388H22.3739V53.3068Z" fill="#F2F2F2"/>
</svg>
