<svg width="64" height="64" viewBox="0 0 64 64" fill="none" xmlns="http://www.w3.org/2000/svg">
<path d="M19 5H25V7H19V5Z" fill="#F2F2F2"/>
<path d="M15 5H17V7H15V5Z" fill="#F2F2F2"/>
<path d="M11.414 27.923C12.23 29.147 13.311 30.175 14.555 30.944L12.901 31.417C11.193 31.904 10 33.486 10 35.263V37H30V35.263C30 33.486 28.807 31.905 27.099 31.417L25.445 30.944C26.689 30.175 27.77 29.147 28.586 27.923L29.057 27.218L28.058 21.724C27.35 17.828 23.961 15 20 15C16.039 15 12.65 17.828 11.943 21.725L10.943 27.219L11.414 27.923ZM23 26C23 27.654 21.654 29 20 29C18.346 29 17 27.654 17 26V24C17 23.514 17.349 23.107 17.81 23.018C19.189 23.661 20.714 24 22.236 24H23V26ZM27.982 35H12.018C12.122 34.222 12.682 33.56 13.451 33.34L16.099 32.583C17.112 32.294 17.949 31.619 18.461 30.732C18.949 30.892 19.46 31 20 31C20.54 31 21.051 30.892 21.539 30.732C22.051 31.619 22.888 32.294 23.901 32.583L26.549 33.34C27.318 33.56 27.878 34.222 27.982 35V35ZM13.911 22.082C14.445 19.137 17.007 17 20 17C22.993 17 25.555 19.137 26.09 22.082L26.944 26.781L26.923 26.814C26.041 28.137 24.766 29.158 23.31 29.783C23.301 29.769 23.289 29.757 23.281 29.743C24.325 28.826 25 27.497 25 26V22H22.236C20.927 22 19.617 21.691 18.447 21.105L18.236 21H18C16.346 21 15 22.346 15 24V26C15 27.497 15.675 28.826 16.72 29.743C16.712 29.757 16.7 29.769 16.691 29.783C15.235 29.157 13.96 28.137 13.078 26.813L13.057 26.781L13.911 22.082Z" fill="#F2F2F2"/>
<path d="M7 15H11V13H5V19H7V15Z" fill="#F2F2F2"/>
<path d="M33 19H35V13H29V15H33V19Z" fill="#F2F2F2"/>
<path d="M33 39H29V41H35V35H33V39Z" fill="#F2F2F2"/>
<path d="M11 39H7V35H5V41H11V39Z" fill="#F2F2F2"/>
<path d="M25 45H23.618L22.618 43H17.382L16.382 45H15C13.897 45 13 45.897 13 47V51C13 52.103 13.897 53 15 53H25C26.103 53 27 52.103 27 51V47C27 45.897 26.103 45 25 45ZM25 51H15V47H17.618L18.618 45H21.382L22.382 47H25V51Z" fill="#F2F2F2"/>
<path d="M32 47C30.346 47 29 48.346 29 50C29 51.654 30.346 53 32 53C33.654 53 35 51.654 35 50C35 48.346 33.654 47 32 47ZM32 51C31.448 51 31 50.551 31 50C31 49.449 31.448 49 32 49C32.552 49 33 49.449 33 50C33 50.551 32.552 51 32 51Z" fill="#F2F2F2"/>
<path d="M8 53C9.654 53 11 51.654 11 50C11 48.346 9.654 47 8 47C6.346 47 5 48.346 5 50C5 51.654 6.346 53 8 53ZM8 49C8.552 49 9 49.449 9 50C9 50.551 8.552 51 8 51C7.448 51 7 50.551 7 50C7 49.449 7.448 49 8 49Z" fill="#F2F2F2"/>
<path d="M20 49C20.5523 49 21 48.5523 21 48C21 47.4477 20.5523 47 20 47C19.4477 47 19 47.4477 19 48C19 48.5523 19.4477 49 20 49Z" fill="#F2F2F2"/>
<path d="M63 13H39V6C39 3.243 36.757 1 34 1H6C3.243 1 1 3.243 1 6V58C1 60.757 3.243 63 6 63H34C36.757 63 39 60.757 39 58V53H63V13ZM39 39.186L41.099 38.583C42.112 38.294 42.949 37.619 43.461 36.732C43.949 36.892 44.46 37 45 37C45.54 37 46.051 36.892 46.539 36.732C47.051 37.619 47.888 38.294 48.901 38.583L51.549 39.34C52.318 39.56 52.877 40.222 52.982 41H39V39.186ZM48 32C48 33.654 46.654 35 45 35C43.346 35 42 33.654 42 32V30C42 29.514 42.349 29.107 42.81 29.018C44.189 29.661 45.714 30 47.236 30H48V32ZM48.309 35.783C48.3 35.769 48.288 35.757 48.28 35.743C49.325 34.826 50 33.497 50 32V28H47.236C45.927 28 44.617 27.691 43.447 27.105L43.236 27H43C41.346 27 40 28.346 40 30V32C40 33.497 40.675 34.826 41.72 35.743C41.463 36.181 41.051 36.517 40.55 36.66L39 37.103V27.698C39.687 24.929 42.137 23 45 23C47.993 23 50.555 25.137 51.09 28.082L51.944 32.781L51.923 32.814C51.04 34.137 49.765 35.157 48.309 35.783V35.783ZM39 43H55V41.263C55 39.486 53.807 37.905 52.099 37.417L50.445 36.944C51.689 36.175 52.77 35.147 53.586 33.923L54.057 33.218L53.058 27.724C52.35 23.828 48.961 21 45 21C42.647 21 40.505 21.985 39 23.607V19H57V45H39V43ZM6 3H34C35.654 3 37 4.346 37 6V9H3V6C3 4.346 4.346 3 6 3ZM3 11H37V52C37 53.654 35.654 55 34 55H6C4.346 55 3 53.654 3 52V11ZM34 61H6C4.346 61 3 59.654 3 58V55.974C3.838 56.609 4.87 57 6 57H34C35.13 57 36.162 56.609 37 55.974V58C37 59.654 35.654 61 34 61ZM61 51H39V47H59V17H39V15H61V51Z" fill="#F2F2F2"/>
</svg>
