<svg width="64" height="64" viewBox="0 0 64 64" fill="none" xmlns="http://www.w3.org/2000/svg">
<path d="M43.7071 2.29288C43.6143 2.20002 43.504 2.12636 43.3827 2.07611C43.2614 2.02586 43.1313 2 43 2H13C11.6744 2.00149 10.4035 2.52875 9.46611 3.46611C8.52875 4.40347 8.00149 5.67437 8 7V57C8.00149 58.3256 8.52875 59.5965 9.46611 60.5339C10.4035 61.4712 11.6744 61.9985 13 62H51C52.3256 61.9985 53.5965 61.4712 54.5339 60.5339C55.4712 59.5965 55.9985 58.3256 56 57V15C56 14.8687 55.9741 14.7386 55.9239 14.6173C55.8736 14.496 55.8 14.3857 55.7071 14.2929L43.7071 2.29288ZM44 5.41412L52.5859 14H47C46.2046 13.9991 45.4421 13.6827 44.8797 13.1203C44.3173 12.5579 44.0009 11.7954 44 11V5.41412ZM54 57C53.9991 57.7954 53.6827 58.5579 53.1203 59.1203C52.5579 59.6827 51.7954 59.9991 51 60H13C12.2046 59.9991 11.4421 59.6827 10.8797 59.1203C10.3173 58.5579 10.0009 57.7954 10 57V7C10.0009 6.20463 10.3173 5.44211 10.8797 4.8797C11.4421 4.31729 12.2046 4.00093 13 4H42V11C42.0015 12.3256 42.5288 13.5965 43.4661 14.5339C44.4035 15.4712 45.6744 15.9985 47 16H54V57Z" fill="#F2F2F2"/>
<path d="M29 25C29 25.2652 29.1054 25.5196 29.2929 25.7071C29.4804 25.8946 29.7348 26 30 26H49C49.2652 26 49.5196 25.8946 49.7071 25.7071C49.8946 25.5196 50 25.2652 50 25C50 24.7348 49.8946 24.4804 49.7071 24.2929C49.5196 24.1054 49.2652 24 49 24H30C29.7348 24 29.4804 24.1054 29.2929 24.2929C29.1054 24.4804 29 24.7348 29 25Z" fill="#F2F2F2"/>
<path d="M15 30H35C35.2652 30 35.5196 29.8946 35.7071 29.7071C35.8946 29.5196 36 29.2652 36 29C36 28.7348 35.8946 28.4804 35.7071 28.2929C35.5196 28.1054 35.2652 28 35 28H15C14.7348 28 14.4804 28.1054 14.2929 28.2929C14.1054 28.4804 14 28.7348 14 29C14 29.2652 14.1054 29.5196 14.2929 29.7071C14.4804 29.8946 14.7348 30 15 30V30Z" fill="#F2F2F2"/>
<path d="M49 32H31C30.7348 32 30.4804 32.1054 30.2929 32.2929C30.1054 32.4804 30 32.7348 30 33C30 33.2652 30.1054 33.5196 30.2929 33.7071C30.4804 33.8946 30.7348 34 31 34H49C49.2652 34 49.5196 33.8946 49.7071 33.7071C49.8946 33.5196 50 33.2652 50 33C50 32.7348 49.8946 32.4804 49.7071 32.2929C49.5196 32.1054 49.2652 32 49 32V32Z" fill="#F2F2F2"/>
<path d="M15 38H39C39.2652 38 39.5196 37.8946 39.7071 37.7071C39.8946 37.5196 40 37.2652 40 37C40 36.7348 39.8946 36.4804 39.7071 36.2929C39.5196 36.1054 39.2652 36 39 36H15C14.7348 36 14.4804 36.1054 14.2929 36.2929C14.1054 36.4804 14 36.7348 14 37C14 37.2652 14.1054 37.5196 14.2929 37.7071C14.4804 37.8946 14.7348 38 15 38V38Z" fill="#F2F2F2"/>
<path d="M18 24C17.7348 24 17.4804 24.1054 17.2929 24.2929C17.1054 24.4804 17 24.7348 17 25C17 25.2652 17.1054 25.5196 17.2929 25.7071C17.4804 25.8946 17.7348 26 18 26H26C26.2652 26 26.5196 25.8946 26.7071 25.7071C26.8946 25.5196 27 25.2652 27 25C27 24.7348 26.8946 24.4804 26.7071 24.2929C26.5196 24.1054 26.2652 24 26 24H18Z" fill="#F2F2F2"/>
<path d="M49 28H39C38.7348 28 38.4804 28.1054 38.2929 28.2929C38.1054 28.4804 38 28.7348 38 29C38 29.2652 38.1054 29.5196 38.2929 29.7071C38.4804 29.8946 38.7348 30 39 30H49C49.2652 30 49.5196 29.8946 49.7071 29.7071C49.8946 29.5196 50 29.2652 50 29C50 28.7348 49.8946 28.4804 49.7071 28.2929C49.5196 28.1054 49.2652 28 49 28Z" fill="#F2F2F2"/>
<path d="M15 34H27C27.2652 34 27.5196 33.8946 27.7071 33.7071C27.8946 33.5196 28 33.2652 28 33C28 32.7348 27.8946 32.4804 27.7071 32.2929C27.5196 32.1054 27.2652 32 27 32H15C14.7348 32 14.4804 32.1054 14.2929 32.2929C14.1054 32.4804 14 32.7348 14 33C14 33.2652 14.1054 33.5196 14.2929 33.7071C14.4804 33.8946 14.7348 34 15 34V34Z" fill="#F2F2F2"/>
<path d="M49 36H43C42.7348 36 42.4804 36.1054 42.2929 36.2929C42.1054 36.4804 42 36.7348 42 37C42 37.2652 42.1054 37.5196 42.2929 37.7071C42.4804 37.8946 42.7348 38 43 38H49C49.2652 38 49.5196 37.8946 49.7071 37.7071C49.8946 37.5196 50 37.2652 50 37C50 36.7348 49.8946 36.4804 49.7071 36.2929C49.5196 36.1054 49.2652 36 49 36Z" fill="#F2F2F2"/>
<path d="M15 42H23C23.2652 42 23.5196 41.8946 23.7071 41.7071C23.8946 41.5196 24 41.2652 24 41C24 40.7348 23.8946 40.4804 23.7071 40.2929C23.5196 40.1054 23.2652 40 23 40H15C14.7348 40 14.4804 40.1054 14.2929 40.2929C14.1054 40.4804 14 40.7348 14 41C14 41.2652 14.1054 41.5196 14.2929 41.7071C14.4804 41.8946 14.7348 42 15 42V42Z" fill="#F2F2F2"/>
<path d="M27 40C26.7348 40 26.4804 40.1054 26.2929 40.2929C26.1054 40.4804 26 40.7348 26 41C26 41.2652 26.1054 41.5196 26.2929 41.7071C26.4804 41.8946 26.7348 42 27 42H37C37.2652 42 37.5196 41.8946 37.7071 41.7071C37.8946 41.5196 38 41.2652 38 41C38 40.7348 37.8946 40.4804 37.7071 40.2929C37.5196 40.1054 37.2652 40 37 40H27Z" fill="#F2F2F2"/>
<path d="M15 17H17V19C17 19.2652 17.1054 19.5196 17.2929 19.7071C17.4804 19.8946 17.7348 20 18 20H22C22.2652 20 22.5196 19.8946 22.7071 19.7071C22.8946 19.5196 23 19.2652 23 19V17H25C25.2652 17 25.5196 16.8946 25.7071 16.7071C25.8946 16.5196 26 16.2652 26 16V12C26 11.7348 25.8946 11.4804 25.7071 11.2929C25.5196 11.1054 25.2652 11 25 11H23V9C23 8.73478 22.8946 8.48043 22.7071 8.29289C22.5196 8.10536 22.2652 8 22 8H18C17.7348 8 17.4804 8.10536 17.2929 8.29289C17.1054 8.48043 17 8.73478 17 9V11H15C14.7348 11 14.4804 11.1054 14.2929 11.2929C14.1054 11.4804 14 11.7348 14 12V16C14 16.2652 14.1054 16.5196 14.2929 16.7071C14.4804 16.8946 14.7348 17 15 17ZM16 13H18C18.2652 13 18.5196 12.8946 18.7071 12.7071C18.8946 12.5196 19 12.2652 19 12V10H21V12C21 12.2652 21.1054 12.5196 21.2929 12.7071C21.4804 12.8946 21.7348 13 22 13H24V15H22C21.7348 15 21.4804 15.1054 21.2929 15.2929C21.1054 15.4804 21 15.7348 21 16V18H19V16C19 15.7348 18.8946 15.4804 18.7071 15.2929C18.5196 15.1054 18.2652 15 18 15H16V13Z" fill="#F2F2F2"/>
<path d="M33 44H15C14.7348 44 14.4804 44.1054 14.2929 44.2929C14.1054 44.4804 14 44.7348 14 45C14 45.2652 14.1054 45.5196 14.2929 45.7071C14.4804 45.8946 14.7348 46 15 46H33C33.2652 46 33.5196 45.8946 33.7071 45.7071C33.8946 45.5196 34 45.2652 34 45C34 44.7348 33.8946 44.4804 33.7071 44.2929C33.5196 44.1054 33.2652 44 33 44Z" fill="#F2F2F2"/>
<path d="M49 40H41C40.7348 40 40.4804 40.1054 40.2929 40.2929C40.1054 40.4804 40 40.7348 40 41C40 41.2652 40.1054 41.5196 40.2929 41.7071C40.4804 41.8946 40.7348 42 41 42H49C49.2652 42 49.5196 41.8946 49.7071 41.7071C49.8946 41.5196 50 41.2652 50 41C50 40.7348 49.8946 40.4804 49.7071 40.2929C49.5196 40.1054 49.2652 40 49 40Z" fill="#F2F2F2"/>
<path d="M41 54H37C36.7348 54 36.4804 54.1054 36.2929 54.2929C36.1054 54.4804 36 54.7348 36 55C36 55.2652 36.1054 55.5196 36.2929 55.7071C36.4804 55.8946 36.7348 56 37 56H41C41.2652 56 41.5196 55.8946 41.7071 55.7071C41.8946 55.5196 42 55.2652 42 55C42 54.7348 41.8946 54.4804 41.7071 54.2929C41.5196 54.1054 41.2652 54 41 54Z" fill="#F2F2F2"/>
<path d="M49 54H45C44.7348 54 44.4804 54.1054 44.2929 54.2929C44.1054 54.4804 44 54.7348 44 55C44 55.2652 44.1054 55.5196 44.2929 55.7071C44.4804 55.8946 44.7348 56 45 56H49C49.2652 56 49.5196 55.8946 49.7071 55.7071C49.8946 55.5196 50 55.2652 50 55C50 54.7348 49.8946 54.4804 49.7071 54.2929C49.5196 54.1054 49.2652 54 49 54Z" fill="#F2F2F2"/>
<path d="M49.8944 47.5527C49.7758 47.3155 49.5678 47.1352 49.3162 47.0513C49.0646 46.9674 48.79 46.987 48.5528 47.1056L42.7639 50H40.618L39.8944 48.5527C39.8235 48.411 39.72 48.2881 39.5924 48.1943C39.4647 48.1004 39.3166 48.0382 39.1602 48.0129C39.0038 47.9875 38.8436 47.9996 38.6928 48.0483C38.542 48.097 38.4049 48.1808 38.2929 48.2928L36.2929 50.2928C36.1054 50.4804 36 50.7347 36 51C36 51.2652 36.1054 51.5195 36.2929 51.7071C36.4804 51.8946 36.7348 52 37 52C37.2652 52 37.5196 51.8946 37.7072 51.7071L38.7261 50.6881L39.1057 51.4472C39.1887 51.6133 39.3164 51.753 39.4743 51.8506C39.6323 51.9482 39.8143 51.9999 40 52H43C43.1553 52 43.3084 51.9638 43.4473 51.8943L49.4473 48.8943C49.6845 48.7757 49.8648 48.5677 49.9487 48.3161C50.0325 48.0645 50.013 47.7899 49.8944 47.5527Z" fill="#F2F2F2"/>
</svg>
