<svg width="64" height="64" viewBox="0 0 64 64" fill="none" xmlns="http://www.w3.org/2000/svg">
<path d="M11.885 20.778C11.8825 22.8063 12.3497 24.8075 13.25 26.625C13.2802 26.7252 13.3283 26.819 13.392 26.902C14.511 29.0451 16.1968 30.84 18.2656 32.0912C20.3343 33.3423 22.7068 34.0017 25.1245 33.9975C27.5422 33.9934 29.9124 33.3258 31.9768 32.0675C34.0413 30.8092 35.7208 29.0085 36.8325 26.8615C36.8686 26.807 36.8984 26.7487 36.9215 26.6875C37.8418 24.8535 38.3211 22.83 38.3211 20.778C38.3211 18.7261 37.8418 16.7025 36.9215 14.8685C36.8984 14.8074 36.8686 14.749 36.8325 14.6945C35.7208 12.5476 34.0413 10.7468 31.9768 9.48855C29.9124 8.23027 27.5422 7.56267 25.1245 7.55849C22.7068 7.55431 20.3343 8.21372 18.2656 9.46486C16.1968 10.716 14.511 12.5109 13.392 14.654C13.3283 14.737 13.2802 14.8309 13.25 14.931C12.3497 16.7485 11.8825 18.7498 11.885 20.778ZM25.104 9.30852C26.4155 9.30852 27.8195 11.204 28.674 14.3085H21.534C22.3885 11.2045 23.7925 9.30852 25.104 9.30852ZM29.0715 16.0585C29.2965 17.3281 29.4266 18.6126 29.4605 19.9015H20.75C20.7839 18.6126 20.9139 17.3281 21.139 16.0585H29.0715ZM35.554 25.496H30.854C31.0615 24.2247 31.1818 22.9407 31.214 21.653H36.537C36.4368 22.9817 36.1041 24.2825 35.554 25.496ZM25.104 32.246C23.7925 32.246 22.3885 30.3505 21.534 27.246H28.674C27.8195 30.35 26.4155 32.25 25.104 32.25V32.246ZM21.1365 25.496C20.9114 24.2265 20.7814 22.9419 20.7475 21.653H29.4605C29.4266 22.9419 29.2965 24.2265 29.0715 25.496H21.1365ZM13.6715 21.653H18.9925C19.0246 22.9407 19.1449 24.2247 19.3525 25.496H14.6525C14.103 24.2823 13.7709 22.9816 13.6715 21.653ZM36.537 19.903H31.2155C31.1833 18.6153 31.063 17.3313 30.8555 16.06H35.5555C36.1051 17.2737 36.4373 18.5744 36.537 19.903ZM18.9925 19.903H13.6715C13.7716 18.5743 14.1043 17.2736 14.6545 16.06H19.3545C19.1462 17.3313 19.0253 18.6153 18.9925 19.903ZM15.639 27.246H19.713C20.0672 28.8188 20.6886 30.3192 21.55 31.682C19.1459 30.8927 17.0686 29.3338 15.639 27.246ZM28.656 31.682C29.5182 30.3194 30.1404 28.819 30.4955 27.246H34.5695C33.1392 29.3342 31.0609 30.8932 28.656 31.682ZM34.5695 14.31H30.4955C30.1404 12.7371 29.5182 11.2367 28.656 9.87402C31.0609 10.6629 33.1392 12.2219 34.5695 14.31ZM21.55 9.87452C20.6877 11.2371 20.0655 12.7376 19.7105 14.3105H15.639C17.0686 12.2227 19.1459 10.6638 21.55 9.87452Z" fill="url(#paint0_linear)"/>
<path d="M40.521 39.2999H9.6875C9.45544 39.2999 9.23288 39.3921 9.06878 39.5562C8.90469 39.7203 8.8125 39.9429 8.8125 40.1749V43.4339C8.8125 43.666 8.90469 43.8886 9.06878 44.0526C9.23288 44.2167 9.45544 44.3089 9.6875 44.3089H40.521C40.7531 44.3089 40.9756 44.2167 41.1397 44.0526C41.3038 43.8886 41.396 43.666 41.396 43.4339V40.1724C41.3953 39.9408 41.3029 39.7189 41.1388 39.5553C40.9748 39.3918 40.7526 39.2999 40.521 39.2999ZM39.646 42.5589H10.5625V41.0499H39.646V42.5589Z" fill="url(#paint1_linear)"/>
<path d="M35.1875 46.8401H15.021C14.7889 46.8401 14.5664 46.9323 14.4023 47.0964C14.2382 47.2605 14.146 47.483 14.146 47.7151V50.9741C14.146 51.2062 14.2382 51.4287 14.4023 51.5928C14.5664 51.7569 14.7889 51.8491 15.021 51.8491H35.1875C35.4196 51.8491 35.6421 51.7569 35.8062 51.5928C35.9703 51.4287 36.0625 51.2062 36.0625 50.9741V47.7151C36.0625 47.483 35.9703 47.2605 35.8062 47.0964C35.6421 46.9323 35.4196 46.8401 35.1875 46.8401ZM34.3125 50.0991H15.896V48.5901H34.3125V50.0991Z" fill="url(#paint2_linear)"/>
<path d="M57.9375 14.5835H47.021V2.875C47.0202 2.11275 46.717 1.38194 46.1781 0.842945C45.6391 0.30395 44.9083 0.000794153 44.146 0L6.0625 0C5.30025 0.000794153 4.56944 0.30395 4.03045 0.842945C3.49145 1.38194 3.18829 2.11275 3.1875 2.875V61.125C3.18829 61.8873 3.49145 62.6181 4.03045 63.1571C4.56944 63.696 5.30025 63.9992 6.0625 64H44.146C44.9083 63.9992 45.6391 63.696 46.1781 63.1571C46.717 62.6181 47.0202 61.8873 47.021 61.125V49.4165H57.9375C58.6998 49.4157 59.4306 49.1125 59.9696 48.5736C60.5085 48.0346 60.8117 47.3038 60.8125 46.5415V17.4585C60.8117 16.6962 60.5085 15.9654 59.9696 15.4264C59.4306 14.8875 58.6998 14.5843 57.9375 14.5835ZM47.021 22.8085H47.363C48.4658 22.8085 49.5235 23.2466 50.3033 24.0264C51.0831 24.8062 51.5213 25.8639 51.5213 26.9667C51.5213 28.0696 51.0831 29.1273 50.3033 29.9071C49.5235 30.6869 48.4658 31.125 47.363 31.125H47.021V22.8085ZM47.021 39.0415H55.2915V42.125H47.021V39.0415ZM45.271 61.125C45.2706 61.4232 45.1519 61.7092 44.9411 61.9201C44.7302 62.1309 44.4442 62.2496 44.146 62.25H6.0625C5.76425 62.2496 5.47834 62.1309 5.26744 61.9201C5.05655 61.7092 4.9379 61.4232 4.9375 61.125V2.875C4.9379 2.57675 5.05655 2.29084 5.26744 2.07994C5.47834 1.86905 5.76425 1.7504 6.0625 1.75H44.146C44.4442 1.7504 44.7302 1.86905 44.9411 2.07994C45.1519 2.29084 45.2706 2.57675 45.271 2.875V61.125ZM59.0625 46.5415C59.0621 46.8397 58.9434 47.1257 58.7326 47.3366C58.5217 47.5474 58.2357 47.6661 57.9375 47.6665H47.021V43.875H56.1665C56.3986 43.875 56.6211 43.7828 56.7852 43.6187C56.9493 43.4546 57.0415 43.2321 57.0415 43V38.1665C57.0415 37.9344 56.9493 37.7119 56.7852 37.5478C56.6211 37.3837 56.3986 37.2915 56.1665 37.2915H47.021V32.875H47.363C48.93 32.875 50.4328 32.2525 51.5408 31.1445C52.6488 30.0365 53.2713 28.5337 53.2713 26.9667C53.2713 25.3998 52.6488 23.897 51.5408 22.789C50.4328 21.681 48.93 21.0585 47.363 21.0585H47.021V16.3335H57.9375C58.2357 16.3339 58.5217 16.4526 58.7326 16.6634C58.9434 16.8743 59.0621 17.1603 59.0625 17.4585V46.5415Z" fill="url(#paint3_linear)"/>
<defs>
<linearGradient id="paint0_linear" x1="38.3211" y1="33.9976" x2="11.8849" y2="33.9976" gradientUnits="userSpaceOnUse">
<stop offset="0.02" stop-color="#669935"/>
<stop offset="1" stop-color="#335F5E"/>
</linearGradient>
<linearGradient id="paint1_linear" x1="41.396" y1="44.3089" x2="8.8125" y2="44.3089" gradientUnits="userSpaceOnUse">
<stop offset="0.02" stop-color="#669935"/>
<stop offset="1" stop-color="#335F5E"/>
</linearGradient>
<linearGradient id="paint2_linear" x1="36.0625" y1="51.8491" x2="14.146" y2="51.8491" gradientUnits="userSpaceOnUse">
<stop offset="0.02" stop-color="#669935"/>
<stop offset="1" stop-color="#335F5E"/>
</linearGradient>
<linearGradient id="paint3_linear" x1="60.8125" y1="64" x2="3.1875" y2="64" gradientUnits="userSpaceOnUse">
<stop offset="0.02" stop-color="#669935"/>
<stop offset="1" stop-color="#335F5E"/>
</linearGradient>
</defs>
</svg>
