<svg width="13" height="13" viewBox="0 0 13 13" fill="none" xmlns="http://www.w3.org/2000/svg">
<g clip-path="url(#clip0)">
<path fill-rule="evenodd" clip-rule="evenodd" d="M12.8531 3.39688C12.8997 3.44332 12.9366 3.49849 12.9618 3.55922C12.987 3.61996 13 3.68508 13 3.75083C13 3.81659 12.987 3.88171 12.9618 3.94245C12.9366 4.00318 12.8997 4.05835 12.8531 4.10479L6.85383 10.1041C6.80739 10.1506 6.75222 10.1876 6.69148 10.2128C6.63074 10.238 6.56563 10.251 6.49987 10.251C6.43411 10.251 6.369 10.238 6.30826 10.2128C6.24752 10.1876 6.19235 10.1506 6.14591 10.1041L0.146615 4.10479C0.0527391 4.01092 9.53674e-07 3.88359 9.53674e-07 3.75083C9.53674e-07 3.61807 0.0527391 3.49075 0.146615 3.39688C0.240491 3.303 0.367813 3.25026 0.500573 3.25026C0.633334 3.25026 0.760656 3.303 0.854532 3.39688L6.49987 9.04321L12.1452 3.39688C12.1916 3.35032 12.2468 3.31338 12.3076 3.28818C12.3683 3.26297 12.4334 3.25 12.4992 3.25C12.5649 3.25 12.63 3.26297 12.6908 3.28818C12.7515 3.31338 12.8067 3.35032 12.8531 3.39688Z" fill="#222222"/>
</g>
<defs>
<clipPath id="clip0">
<rect width="13" height="13" fill="white" transform="translate(13) rotate(90)"/>
</clipPath>
</defs>
</svg>
