<svg width="24" height="24" viewBox="0 0 24 24" fill="none" xmlns="http://www.w3.org/2000/svg">
<path d="M11.9766 0.09375C13.9766 0.09375 15.6094 0.117188 16.875 0.164062C17.9531 0.210938 18.9141 0.398438 19.7578 0.726562C20.5703 1.03906 21.2734 1.49219 21.8672 2.08594C22.4609 2.67969 22.9141 3.38281 23.2266 4.19531C23.5547 5.03906 23.7422 6 23.7891 7.07812C23.8359 8.34375 23.8594 9.97656 23.8594 11.9766C23.8594 13.9766 23.8359 15.6094 23.7891 16.875C23.7422 17.9531 23.5547 18.9141 23.2266 19.7578C22.9141 20.5703 22.4609 21.2734 21.8672 21.8672C21.2734 22.4609 20.5703 22.9141 19.7578 23.2266C18.9141 23.5547 17.9531 23.7422 16.875 23.7891C15.6094 23.8359 13.9766 23.8594 11.9766 23.8594C9.97656 23.8594 8.34375 23.8359 7.07812 23.7891C6 23.7422 5.03906 23.5547 4.19531 23.2266C3.38281 22.9141 2.67969 22.4609 2.08594 21.8672C1.49219 21.2734 1.03906 20.5703 0.726562 19.7578C0.398438 18.9141 0.210938 17.9531 0.164062 16.875C0.117188 15.6094 0.09375 13.9766 0.09375 11.9766C0.09375 9.97656 0.117188 8.34375 0.164062 7.07812C0.210938 6 0.398438 5.03906 0.726562 4.19531C1.03906 3.38281 1.49219 2.67969 2.08594 2.08594C2.67969 1.49219 3.38281 1.03906 4.19531 0.726562C5.03906 0.398438 6 0.210938 7.07812 0.164062C8.34375 0.117188 9.97656 0.09375 11.9766 0.09375ZM11.9766 1.64062C9.89844 1.64062 8.20312 1.66406 6.89062 1.71094C6.04688 1.74219 5.26562 1.89063 4.54688 2.15625C3.42188 2.625 2.625 3.42188 2.15625 4.54688C1.89063 5.26562 1.74219 6.04688 1.71094 6.89062C1.66406 8.20312 1.64062 9.89844 1.64062 11.9766C1.64062 14.0547 1.66406 15.75 1.71094 17.0625C1.74219 17.9062 1.89063 18.6875 2.15625 19.4062C2.625 20.5312 3.42188 21.3281 4.54688 21.7969C5.26562 22.0625 6.04688 22.2109 6.89062 22.2422C8.20312 22.2891 9.89844 22.3125 11.9766 22.3125C14.0547 22.3125 15.75 22.2891 17.0625 22.2422C17.9062 22.2109 18.6875 22.0625 19.4062 21.7969C20.5312 21.3281 21.3281 20.5312 21.7969 19.4062C22.0625 18.6875 22.2109 17.9062 22.2422 17.0625C22.2891 15.75 22.3125 14.0547 22.3125 11.9766C22.3125 9.89844 22.2891 8.20312 22.2422 6.89062C22.2109 6.04688 22.0625 5.26562 21.7969 4.54688C21.3281 3.42188 20.5312 2.625 19.4062 2.15625C18.6875 1.89063 17.9062 1.74219 17.0625 1.71094C15.75 1.66406 14.0547 1.64062 11.9766 1.64062ZM11.9766 16.7344C13.2891 16.7344 14.4102 16.2695 15.3398 15.3398C16.2695 14.4102 16.7344 13.2891 16.7344 11.9766C16.7344 10.6641 16.2695 9.54297 15.3398 8.61328C14.4102 7.68359 13.2891 7.21875 11.9766 7.21875C10.6641 7.21875 9.54297 7.68359 8.61328 8.61328C7.68359 9.54297 7.21875 10.6641 7.21875 11.9766C7.21875 13.2891 7.68359 14.4102 8.61328 15.3398C9.54297 16.2695 10.6641 16.7344 11.9766 16.7344ZM11.9766 5.88281C13.6641 5.88281 15.1016 6.47656 16.2891 7.66406C17.4766 8.85156 18.0703 10.2891 18.0703 11.9766C18.0703 13.6641 17.4766 15.1016 16.2891 16.2891C15.1016 17.4766 13.6641 18.0703 11.9766 18.0703C10.2891 18.0703 8.85156 17.4766 7.66406 16.2891C6.47656 15.1016 5.88281 13.6641 5.88281 11.9766C5.88281 10.2891 6.47656 8.85156 7.66406 7.66406C8.85156 6.47656 10.2891 5.88281 11.9766 5.88281ZM19.7578 5.64844C19.7578 6.03906 19.6172 6.37109 19.3359 6.64453C19.0547 6.91797 18.7109 7.05469 18.3047 7.05469C17.9141 7.05469 17.582 6.91797 17.3086 6.64453C17.0352 6.37109 16.8984 6.03906 16.8984 5.64844C16.8984 5.24219 17.0352 4.89844 17.3086 4.61719C17.582 4.33594 17.9141 4.19531 18.3047 4.19531C18.6953 4.19531 19.0352 4.33984 19.3242 4.62891C19.6133 4.91797 19.7578 5.25781 19.7578 5.64844Z" fill="#669935"/>
</svg>
