<svg width="64" height="64" viewBox="0 0 64 64" fill="none" xmlns="http://www.w3.org/2000/svg">
<path d="M60.8 14.9333H57.6C55.8327 14.9333 54.4 16.3659 54.4 18.1333V19.1999H53.3333V12.7999C53.3286 8.67814 49.9884 5.33795 45.8667 5.33325H18.1333C14.0116 5.33795 10.6714 8.67814 10.6667 12.7999V19.1999H9.6V18.1333C9.6 16.3659 8.16731 14.9333 6.4 14.9333H3.2C1.43269 14.9333 0 16.3659 0 18.1333V20.2666C0 22.0339 1.43269 23.4666 3.2 23.4666H6.4C7.75124 23.461 8.95333 22.6072 9.40373 21.3333H10.6667V22.9333C8.76551 24.5062 7.36125 26.5966 6.624 28.9514C4.63253 29.4399 0 31.0207 0 35.1999C0 35.6821 0.228267 36.8639 2.22293 37.6533C2.17085 37.899 2.14087 38.1489 2.13333 38.3999V54.3999C2.13775 55.1511 2.34248 55.8876 2.7264 56.5333H1.06667C0.477563 56.5333 0 57.0108 0 57.5999C0 58.189 0.477563 58.6666 1.06667 58.6666H62.9333C63.5224 58.6666 64 58.189 64 57.5999C64 57.0108 63.5224 56.5333 62.9333 56.5333H61.2736C61.6575 55.8876 61.8622 55.1511 61.8666 54.3999V38.3999C61.8591 38.1489 61.8291 37.899 61.7771 37.6533C63.7717 36.8639 64 35.6821 64 35.1999C64 31.0207 59.3675 29.4399 57.3792 28.9333C56.6371 26.5866 55.232 24.5047 53.3333 22.9386V21.3333H54.5962C55.0467 22.6072 56.2487 23.461 57.6 23.4666H60.8C62.5673 23.4666 64 22.0339 64 20.2666V18.1333C64 16.3659 62.5673 14.9333 60.8 14.9333ZM7.46666 20.2666C7.46666 20.8557 6.9891 21.3333 6.4 21.3333H3.2C2.6109 21.3333 2.13333 20.8557 2.13333 20.2666V18.1333C2.13333 17.5441 2.6109 17.0666 3.2 17.0666H6.4C6.9891 17.0666 7.46666 17.5441 7.46666 18.1333V20.2666ZM12.8 12.7999C12.8035 9.85586 15.1893 7.47011 18.1333 7.46659H45.8667C48.8107 7.47011 51.1965 9.85586 51.2 12.7999V22.3999H49.0667V12.7999C49.0667 11.0326 47.634 9.59992 45.8667 9.59992H18.1333C16.366 9.59992 14.9333 11.0326 14.9333 12.7999V22.3999H12.8V12.7999ZM17.0667 22.3999V12.7999C17.0667 12.2108 17.5442 11.7333 18.1333 11.7333H26.8075L19.696 22.3999H17.0667ZM29.3707 11.7333H33.2107L26.096 22.3999H22.256L29.3707 11.7333ZM35.7707 11.7333H45.8667C46.4558 11.7333 46.9333 12.2108 46.9333 12.7999V22.3999H28.6592L35.7707 11.7333ZM4.26667 54.3999V38.3999C4.27128 38.3259 4.28018 38.2521 4.29333 38.1791C5.00273 38.2882 5.71791 38.3555 6.4352 38.3807C6.49195 40.0928 6.92919 41.7707 7.7152 43.2927C6.89101 43.8915 6.40232 44.8479 6.4 45.8666V47.9999C6.4 49.7672 7.83269 51.1999 9.6 51.1999H16V54.3999C16 55.5781 15.0449 56.5333 13.8667 56.5333V54.3999C13.8667 53.8108 13.3891 53.3333 12.8 53.3333C12.2109 53.3333 11.7333 53.8108 11.7333 54.3999V56.5333H8.53333V54.3999C8.53333 53.8108 8.05577 53.3333 7.46666 53.3333C6.87756 53.3333 6.4 53.8108 6.4 54.3999V56.5333C5.22179 56.5333 4.26667 55.5781 4.26667 54.3999ZM54.4 44.7999C54.9891 44.7999 55.4667 45.2775 55.4667 45.8666V47.9999C55.4667 48.589 54.9891 49.0666 54.4 49.0666H39.4667C39.4667 47.8884 38.5115 46.9333 37.3333 46.9333H26.6667C25.4885 46.9333 24.5333 47.8884 24.5333 49.0666H9.6C9.01089 49.0666 8.53333 48.589 8.53333 47.9999V45.8666C8.53333 45.2775 9.01089 44.7999 9.6 44.7999H54.4ZM18.1333 51.1999H24.5333V52.2666C24.5333 53.4448 25.4885 54.3999 26.6667 54.3999H37.3333C38.5115 54.3999 39.4667 53.4448 39.4667 52.2666V51.1999H45.8667V54.3999C45.8711 55.1511 46.0758 55.8876 46.4597 56.5333H17.5403C17.9242 55.8876 18.1289 55.1511 18.1333 54.3999V51.1999ZM26.6667 49.0666H37.3333V52.2666H26.6667V49.0666ZM59.7333 38.3999V54.3999C59.7333 55.5781 58.7782 56.5333 57.6 56.5333V54.3999C57.6 53.8108 57.1224 53.3333 56.5333 53.3333C55.9442 53.3333 55.4667 53.8108 55.4667 54.3999V56.5333H52.2667V54.3999C52.2667 53.8108 51.7891 53.3333 51.2 53.3333C50.6109 53.3333 50.1333 53.8108 50.1333 54.3999V56.5333C48.9551 56.5333 48 55.5781 48 54.3999V51.1999H54.4C56.1673 51.1999 57.6 49.7672 57.6 47.9999V45.8666C57.5974 44.8477 57.1083 43.8913 56.2837 43.2927C57.0697 41.7707 57.507 40.0928 57.5637 38.3807C58.281 38.3555 58.9962 38.2882 59.7056 38.1791C59.7191 38.2521 59.7283 38.3258 59.7333 38.3999ZM55.3419 29.5669C55.557 30.2907 56.1387 30.8468 56.8715 31.0293C58.0267 31.3109 61.76 32.4266 61.8666 35.0794C61.7365 35.2725 60.8522 36.2666 56.5333 36.2666C55.9442 36.2666 55.4667 36.7442 55.4667 37.3333C55.4667 39.1327 55.0101 41.9541 54.0576 42.6666H9.9424C8.98986 41.9541 8.53333 39.1327 8.53333 37.3333C8.53333 36.7442 8.05577 36.2666 7.46666 36.2666C3.14987 36.2666 2.2656 35.2725 2.13333 35.0794C2.24 32.4245 5.97333 31.3109 7.1264 31.0261C7.85888 30.8438 8.44056 30.2881 8.656 29.5647C9.28614 27.5884 10.4804 25.8395 12.0917 24.5333H51.9115C53.5259 25.8364 54.7194 27.5876 55.3419 29.5669ZM61.8666 20.2666C61.8666 20.8557 61.3891 21.3333 60.8 21.3333H57.6C57.0109 21.3333 56.5333 20.8557 56.5333 20.2666V18.1333C56.5333 17.5441 57.0109 17.0666 57.6 17.0666H60.8C61.3891 17.0666 61.8666 17.5441 61.8666 18.1333V20.2666Z" fill="url(#paint0_linear)"/>
<path d="M19.1998 28.7998H13.8665C12.0992 28.7998 10.6665 30.2325 10.6665 31.9998V34.1331C10.6665 35.9005 12.0992 37.3331 13.8665 37.3331H19.1998C20.9672 37.3331 22.3998 35.9005 22.3998 34.1331V31.9998C22.3998 30.2325 20.9672 28.7998 19.1998 28.7998ZM20.2665 34.1331C20.2665 34.7222 19.7889 35.1998 19.1998 35.1998H13.8665C13.2774 35.1998 12.7998 34.7222 12.7998 34.1331V31.9998C12.7998 31.4107 13.2774 30.9331 13.8665 30.9331H19.1998C19.7889 30.9331 20.2665 31.4107 20.2665 31.9998V34.1331Z" fill="url(#paint1_linear)"/>
<path d="M50.1334 28.7998H44.8001C43.0328 28.7998 41.6001 30.2325 41.6001 31.9998V34.1331C41.6001 35.9005 43.0328 37.3331 44.8001 37.3331H50.1334C51.9007 37.3331 53.3334 35.9005 53.3334 34.1331V31.9998C53.3334 30.2325 51.9007 28.7998 50.1334 28.7998ZM51.2001 34.1331C51.2001 34.7222 50.7225 35.1998 50.1334 35.1998H44.8001C44.211 35.1998 43.7334 34.7222 43.7334 34.1331V31.9998C43.7334 31.4107 44.211 30.9331 44.8001 30.9331H50.1334C50.7225 30.9331 51.2001 31.4107 51.2001 31.9998V34.1331Z" fill="url(#paint2_linear)"/>
<path d="M14.9334 38.3999H12.8001C12.211 38.3999 11.7334 38.8775 11.7334 39.4666C11.7334 40.0557 12.211 40.5332 12.8001 40.5332H14.9334C15.5225 40.5332 16.0001 40.0557 16.0001 39.4666C16.0001 38.8775 15.5225 38.3999 14.9334 38.3999Z" fill="url(#paint3_linear)"/>
<path d="M51.2 38.3999H49.0667C48.4776 38.3999 48 38.8775 48 39.4666C48 40.0557 48.4776 40.5332 49.0667 40.5332H51.2C51.7891 40.5332 52.2667 40.0557 52.2667 39.4666C52.2667 38.8775 51.7891 38.3999 51.2 38.3999Z" fill="url(#paint4_linear)"/>
<path d="M25.5999 28.7998C25.0108 28.7998 24.5332 29.2774 24.5332 29.8665V38.3998C24.5332 38.9889 25.0108 39.4665 25.5999 39.4665C26.189 39.4665 26.6665 38.9889 26.6665 38.3998V29.8665C26.6665 29.2774 26.189 28.7998 25.5999 28.7998Z" fill="url(#paint5_linear)"/>
<path d="M29.8665 28.7998C29.2774 28.7998 28.7998 29.2774 28.7998 29.8665V38.3998C28.7998 38.9889 29.2774 39.4665 29.8665 39.4665C30.4556 39.4665 30.9331 38.9889 30.9331 38.3998V29.8665C30.9331 29.2774 30.4556 28.7998 29.8665 28.7998Z" fill="url(#paint6_linear)"/>
<path d="M34.1336 28.7998C33.5445 28.7998 33.0669 29.2774 33.0669 29.8665V38.3998C33.0669 38.9889 33.5445 39.4665 34.1336 39.4665C34.7227 39.4665 35.2002 38.9889 35.2002 38.3998V29.8665C35.2002 29.2774 34.7227 28.7998 34.1336 28.7998Z" fill="url(#paint7_linear)"/>
<path d="M38.4002 28.7998C37.8111 28.7998 37.3335 29.2774 37.3335 29.8665V38.3998C37.3335 38.9889 37.8111 39.4665 38.4002 39.4665C38.9893 39.4665 39.4668 38.9889 39.4668 38.3998V29.8665C39.4668 29.2774 38.9893 28.7998 38.4002 28.7998Z" fill="url(#paint8_linear)"/>
<defs>
<linearGradient id="paint0_linear" x1="64" y1="58.6666" x2="-5.16573e-07" y2="58.6666" gradientUnits="userSpaceOnUse">
<stop offset="0.02" stop-color="#669935"/>
<stop offset="1" stop-color="#335F5E"/>
</linearGradient>
<linearGradient id="paint1_linear" x1="22.3998" y1="37.3331" x2="10.6665" y2="37.3331" gradientUnits="userSpaceOnUse">
<stop offset="0.02" stop-color="#669935"/>
<stop offset="1" stop-color="#335F5E"/>
</linearGradient>
<linearGradient id="paint2_linear" x1="53.3334" y1="37.3331" x2="41.6001" y2="37.3331" gradientUnits="userSpaceOnUse">
<stop offset="0.02" stop-color="#669935"/>
<stop offset="1" stop-color="#335F5E"/>
</linearGradient>
<linearGradient id="paint3_linear" x1="16.0001" y1="40.5332" x2="11.7334" y2="40.5332" gradientUnits="userSpaceOnUse">
<stop offset="0.02" stop-color="#669935"/>
<stop offset="1" stop-color="#335F5E"/>
</linearGradient>
<linearGradient id="paint4_linear" x1="52.2667" y1="40.5332" x2="48" y2="40.5332" gradientUnits="userSpaceOnUse">
<stop offset="0.02" stop-color="#669935"/>
<stop offset="1" stop-color="#335F5E"/>
</linearGradient>
<linearGradient id="paint5_linear" x1="26.6665" y1="39.4665" x2="24.5332" y2="39.4665" gradientUnits="userSpaceOnUse">
<stop offset="0.02" stop-color="#669935"/>
<stop offset="1" stop-color="#335F5E"/>
</linearGradient>
<linearGradient id="paint6_linear" x1="30.9331" y1="39.4665" x2="28.7998" y2="39.4665" gradientUnits="userSpaceOnUse">
<stop offset="0.02" stop-color="#669935"/>
<stop offset="1" stop-color="#335F5E"/>
</linearGradient>
<linearGradient id="paint7_linear" x1="35.2002" y1="39.4665" x2="33.0669" y2="39.4665" gradientUnits="userSpaceOnUse">
<stop offset="0.02" stop-color="#669935"/>
<stop offset="1" stop-color="#335F5E"/>
</linearGradient>
<linearGradient id="paint8_linear" x1="39.4668" y1="39.4665" x2="37.3335" y2="39.4665" gradientUnits="userSpaceOnUse">
<stop offset="0.02" stop-color="#669935"/>
<stop offset="1" stop-color="#335F5E"/>
</linearGradient>
</defs>
</svg>
