<svg width="64" height="64" viewBox="0 0 64 64" fill="none" xmlns="http://www.w3.org/2000/svg">
<g clip-path="url(#clip0)">
<path d="M7.24923 48.8584C5.41773 48.8584 3.92773 50.3485 3.92773 52.18C3.92773 54.0115 5.41786 55.5016 7.24923 55.5016C9.08073 55.5016 10.5709 54.0115 10.5709 52.18C10.5709 50.3485 9.08073 48.8584 7.24923 48.8584ZM7.24923 53.4716C6.53698 53.4716 5.95761 52.8921 5.95761 52.1799C5.95761 51.4676 6.53711 50.8881 7.24923 50.8881C7.96148 50.8881 8.54098 51.4676 8.54098 52.1799C8.54098 52.8921 7.96148 53.4716 7.24923 53.4716Z" fill="url(#paint0_linear)"/>
<path d="M40.89 48.8584C39.0585 48.8584 37.5684 50.3485 37.5684 52.18C37.5684 54.0115 39.0585 55.5016 40.89 55.5016C42.7215 55.5016 44.2116 54.0115 44.2116 52.18C44.2116 50.3485 42.7216 48.8584 40.89 48.8584ZM40.89 53.4716C40.1777 53.4716 39.5982 52.8921 39.5982 52.1799C39.5982 51.4676 40.1777 50.8881 40.89 50.8881C41.6022 50.8881 42.1817 51.4676 42.1817 52.1799C42.1817 52.8921 41.6022 53.4716 40.89 53.4716Z" fill="url(#paint1_linear)"/>
<path d="M62.985 51.1649H55.9651V49.5056V36.9265C55.9651 36.3659 55.5109 35.9115 54.9501 35.9115H50.5129V34.3558V19.6812L50.513 11.4979C50.513 10.9373 50.0589 9.00012 49.4982 9.00012C48.9376 9.00012 48.4831 8.25005 48.483 11.4979L48.4829 18.6662H45.7663V7.72193C45.7663 7.1038 46.2691 6.6008 46.8871 6.6008H47.3619C47.98 6.6008 48.483 7.1038 48.483 7.72193V11.4979C48.483 12.0586 48.9373 12.5129 49.498 12.5129C50.0585 12.5129 50.513 12.0587 50.513 11.4979V7.72193C50.513 5.9843 49.0995 4.5708 47.3619 4.5708H46.8871C45.1496 4.5708 43.7363 5.9843 43.7363 7.72193V19.6812V34.3558V35.9115H40.0626C39.8559 34.3729 38.535 33.1822 36.9405 33.1822H36.4253L29.5741 17.0551H31.9014C33.4362 17.0551 34.6847 15.8064 34.6847 14.2717V13.8372C34.6847 12.3023 33.4361 11.0538 31.9014 11.0538H9.01775C7.483 11.0538 6.23438 12.3024 6.23438 13.8372V14.2717C6.23438 15.477 7.00588 16.5028 8.07987 16.8891L5.66463 33.3125C4.36225 33.6994 3.40925 34.9068 3.40925 36.333V46.0352C1.36387 47.3183 0 49.5923 0 52.1799C0 56.1772 3.252 59.4293 7.24937 59.4293C10.0011 59.4293 12.3994 57.8881 13.6271 55.6237H22.4625H30.0575H34.5126C35.7401 57.8881 38.1385 59.4293 40.8903 59.4293C44.8875 59.4293 48.1395 56.1773 48.1395 52.1799C48.1395 51.6088 48.071 51.0539 47.9458 50.5205H49.4982H53.9355V52.1799C53.9355 52.7405 54.3898 53.1949 54.9505 53.1949H62.9852C63.5459 53.1949 64.0003 52.7407 64.0003 52.1799C64.0003 51.6192 63.5456 51.1649 62.985 51.1649ZM40.0916 37.9414H43.7363V45.5092C42.8465 45.1277 41.8853 44.9305 40.8903 44.9305C40.7599 44.9305 40.6305 44.9343 40.502 44.9413C40.4669 44.9432 40.4318 44.9469 40.3966 44.9493C40.3026 44.9557 40.2086 44.9625 40.1155 44.9724C40.1076 44.9732 40.0996 44.9736 40.0918 44.9744L40.0916 37.9414ZM10.1071 17.0551H13.2592V33.1822H7.73575L10.1071 17.0551ZM7.24937 57.3993C4.37138 57.3993 2.03 55.058 2.03 52.1799C2.03 50.136 3.21137 48.3639 4.9265 47.5078C4.986 47.4782 5.04613 47.4501 5.10638 47.4227C5.134 47.4102 5.16138 47.3972 5.18925 47.3852C5.256 47.3563 5.32337 47.3297 5.391 47.3037C5.42325 47.2913 5.45513 47.2789 5.48763 47.2673C5.56113 47.2408 5.635 47.2158 5.70937 47.1926C5.75763 47.1777 5.80663 47.1646 5.8555 47.1511C5.89575 47.1398 5.93575 47.1284 5.97625 47.1183C6.02775 47.1053 6.07987 47.0937 6.13212 47.0822C6.17163 47.0736 6.21112 47.0652 6.251 47.0574C6.30212 47.0474 6.35375 47.0382 6.40538 47.0298C6.44925 47.0227 6.49325 47.0164 6.53725 47.0104C6.58512 47.0039 6.63287 46.9973 6.68125 46.9921C6.73563 46.9862 6.7905 46.9819 6.84525 46.9777C6.88413 46.9747 6.92275 46.9709 6.96187 46.9688C7.05725 46.9637 7.15313 46.9605 7.24963 46.9605C10.1276 46.9605 12.469 49.3019 12.469 52.1799C12.4689 55.0579 10.1274 57.3993 7.24937 57.3993ZM21.4478 53.5937H14.3614C14.3806 53.4965 14.3965 53.3987 14.4119 53.3007C14.413 53.2937 14.4145 53.2867 14.4155 53.2795C14.4317 53.1729 14.445 53.0655 14.4565 52.958C14.458 52.9438 14.4602 52.9298 14.4616 52.9154C14.4718 52.8142 14.479 52.7124 14.4849 52.6104C14.4861 52.5894 14.4884 52.5689 14.4895 52.5479C14.4956 52.4257 14.4989 52.3032 14.4989 52.1798C14.4989 48.1825 11.2469 44.9304 7.2495 44.9304C7.109 44.9304 6.96962 44.9354 6.83125 44.9434C6.7795 44.9463 6.72825 44.9512 6.67688 44.9552C6.5915 44.9619 6.5065 44.9694 6.42188 44.9792C6.35938 44.9862 6.297 44.9943 6.23475 45.003C6.16187 45.0133 6.08938 45.025 6.01713 45.0375C5.95163 45.0488 5.886 45.0595 5.82088 45.0727C5.74388 45.088 5.66788 45.1062 5.59163 45.1241C5.541 45.1359 5.48975 45.1452 5.43937 45.1582V36.333C5.43937 35.7149 5.94225 35.2122 6.56038 35.2121L6.56187 35.2122L6.5645 35.2121H13.2592V38.9439C13.2592 39.1692 13.3341 39.3878 13.4721 39.5659L16.0225 42.8553L21.4478 49.8529V53.5937ZM20.7356 38.2484V41.2193H18.794V25.4847C18.794 25.0692 19.132 24.7312 19.5475 24.7312H19.982C20.3975 24.7312 20.7355 25.0692 20.7355 25.4847L20.7356 38.2484ZM29.0425 53.5937H23.4775V50.5205H29.0426L29.0425 53.5937ZM29.0425 48.4906H22.96L18.8961 43.2491H21.7506H29.0426L29.0425 48.4906ZM22.7655 41.2049V39.2633H29.0424V41.2049H22.7655ZM29.0425 34.197V37.2334H22.7655V25.4848C22.7655 23.9499 21.5169 22.7014 19.9821 22.7014H19.5476C18.0129 22.7014 16.7642 23.9501 16.7642 25.4848V40.4992L15.2891 38.5968V34.2001L15.2893 34.1972V17.0551H25.0117C25.5722 17.0551 28.3679 16.0401 25.0117 16.0401C27.8679 16.0401 25.5724 15.0251 25.0117 15.0251H14.2743H9.23063C9.19513 15.0251 9.16025 15.0273 9.12562 15.0309C9.09013 15.0272 9.05437 15.0251 9.01775 15.0251C8.60225 15.0251 8.26425 14.687 8.26425 14.2716V13.8371C8.26425 13.4216 8.60225 13.0836 9.01775 13.0836H31.9013C32.3167 13.0836 32.6548 13.4216 32.6548 13.8371V14.2716C32.6548 14.687 32.3167 15.0251 31.9013 15.0251H28.04H25.0117C24.4513 15.0251 23.9967 15.4793 23.9967 16.0401C23.9967 16.6007 24.4511 17.0551 25.0117 17.0551H27.3685L34.2197 33.1822H30.0575C29.497 33.1822 29.0425 33.6364 29.0425 34.197ZM33.6501 52.548C33.6512 52.569 33.6534 52.5896 33.6548 52.6105C33.6608 52.7126 33.6679 52.8143 33.678 52.9156C33.6795 52.9299 33.6816 52.9438 33.6831 52.9582C33.6946 53.0658 33.7079 53.173 33.7241 53.2797C33.7253 53.2867 33.7267 53.2938 33.7277 53.3008C33.743 53.3988 33.7591 53.4967 33.7783 53.5937H31.0725V49.5056V42.2342V35.2121H35.7508L35.7542 35.2123L35.7594 35.2121H36.9405C37.5586 35.2121 38.0616 35.7149 38.0616 36.333V36.9264V45.5029C35.6178 46.5304 33.9481 48.7886 33.6797 51.4284C33.6785 51.4402 33.6776 51.452 33.6765 51.4639C33.667 51.562 33.6595 51.6608 33.6539 51.7599C33.6524 51.7867 33.6506 51.8134 33.6494 51.8403C33.6443 51.953 33.6408 52.066 33.6408 52.1799C33.6409 52.303 33.6441 52.4258 33.6501 52.548ZM40.8901 57.3993C38.2841 57.3993 36.1182 55.4794 35.7321 52.9797C35.7318 52.9772 35.7314 52.9748 35.7309 52.9724C35.7189 52.894 35.7091 52.815 35.7007 52.7355C35.6997 52.7268 35.6985 52.7179 35.6976 52.7092C35.6901 52.6356 35.685 52.5613 35.6808 52.4868C35.6799 52.4725 35.6785 52.4584 35.6776 52.4442C35.6732 52.3567 35.6709 52.2686 35.6709 52.1799C35.6709 52.0964 35.6732 52.0134 35.6772 51.9308C35.6782 51.9106 35.6796 51.8903 35.6809 51.87C35.6847 51.8032 35.6896 51.7367 35.6961 51.6704C35.6976 51.6554 35.6991 51.6405 35.7006 51.6255C35.9129 49.6249 37.2598 47.958 39.084 47.2831C39.092 47.2801 39.1 47.2771 39.108 47.2742C39.1725 47.2507 39.2378 47.2289 39.3034 47.2078C39.3196 47.2027 39.3356 47.1969 39.352 47.1919C39.3664 47.1874 39.381 47.1839 39.3955 47.1796C39.4982 47.1488 39.6019 47.1218 39.7061 47.0974C39.7284 47.0923 39.7504 47.0869 39.7726 47.0821C39.8862 47.0572 40.0006 47.0353 40.1159 47.0181C40.1256 47.0166 40.1356 47.0158 40.1454 47.0143C40.2492 46.9993 40.3539 46.9882 40.4588 46.9795C40.4874 46.9773 40.5161 46.9748 40.5449 46.973C40.6598 46.9654 40.7749 46.9603 40.8905 46.9603C40.9745 46.9603 41.0581 46.9627 41.1413 46.9667C41.1619 46.9677 41.1823 46.9693 41.2028 46.9704C41.2685 46.9743 41.3341 46.979 41.3993 46.9854C41.4168 46.987 41.434 46.9889 41.4514 46.9908C41.5257 46.9988 41.6 47.008 41.6735 47.0191C41.6791 47.0199 41.6849 47.0207 41.6905 47.0215C42.4636 47.1409 43.1814 47.4307 43.8039 47.8509C43.8078 47.8535 43.8116 47.8563 43.8155 47.8589C43.8761 47.9001 43.9356 47.9427 43.9944 47.9863C44.0091 47.9973 44.0238 48.0085 44.0384 48.0196C44.0815 48.0523 44.1239 48.0858 44.166 48.1198C44.2064 48.1524 44.2459 48.1858 44.2853 48.2197C44.3166 48.2465 44.3484 48.2733 44.3791 48.301C44.4226 48.3402 44.4646 48.3804 44.5066 48.4209C44.5351 48.4484 44.5643 48.4755 44.5921 48.5038C44.6497 48.5618 44.7061 48.6212 44.7609 48.6818C44.7886 48.7124 44.815 48.7442 44.8421 48.7754C44.8749 48.8134 44.9076 48.8513 44.9393 48.8903C44.9688 48.9266 44.9972 48.9635 45.0259 49.0004C45.0524 49.0349 45.0786 49.0695 45.1044 49.1047C45.1345 49.1458 45.1641 49.1873 45.1931 49.2293C45.214 49.2597 45.2342 49.2904 45.2544 49.3212C45.2854 49.3684 45.3165 49.4157 45.346 49.4638C45.3586 49.4842 45.3703 49.5052 45.3824 49.5258C45.8439 50.3039 46.1097 51.211 46.1097 52.1794C46.1096 55.058 43.7681 57.3993 40.8901 57.3993ZM48.4831 36.9263V48.4904H47.1304C47.0578 48.368 46.9803 48.2484 46.9005 48.1304L46.8991 48.1286C46.7054 47.8422 46.491 47.5695 46.2583 47.3128C46.2551 47.3094 46.2521 47.306 46.249 47.3027C46.0955 47.134 45.9349 46.9717 45.7663 46.8181V36.9263V35.3705H48.4831V36.9263ZM48.4831 33.3409H45.7663V20.6962H48.4831V33.3409ZM53.9352 48.4906H50.513V37.9414H53.9352V48.4906Z" fill="url(#paint2_linear)"/>
</g>
<defs>
<linearGradient id="paint0_linear" x1="10.5709" y1="55.5016" x2="3.92773" y2="55.5016" gradientUnits="userSpaceOnUse">
<stop offset="0.02" stop-color="#669935"/>
<stop offset="1" stop-color="#335F5E"/>
</linearGradient>
<linearGradient id="paint1_linear" x1="44.2116" y1="55.5016" x2="37.5684" y2="55.5016" gradientUnits="userSpaceOnUse">
<stop offset="0.02" stop-color="#669935"/>
<stop offset="1" stop-color="#335F5E"/>
</linearGradient>
<linearGradient id="paint2_linear" x1="64.0003" y1="59.4293" x2="-5.16576e-07" y2="59.4293" gradientUnits="userSpaceOnUse">
<stop offset="0.02" stop-color="#669935"/>
<stop offset="1" stop-color="#335F5E"/>
</linearGradient>
<clipPath id="clip0">
<rect width="64" height="64" fill="white"/>
</clipPath>
</defs>
</svg>
