<svg width="24" height="24" viewBox="0 0 24 24" fill="none" xmlns="http://www.w3.org/2000/svg">
<path d="M19.283 14.4624C18.3038 13.9856 17.1661 13.6163 15.9309 13.366L16.7007 12.3164C17.8879 10.6974 18.9534 9.0694 18.9534 6.96423C18.9534 3.13696 15.8498 0.0206909 12.0271 0H11.9883C8.14874 0 5.02496 3.12415 5.02496 6.96423C5.02496 9.0694 6.09045 10.6968 7.27789 12.3164L8.04749 13.366C6.81226 13.6163 5.67462 13.9856 4.69556 14.4624C2.57446 15.494 1.40625 16.9252 1.40625 18.4922C1.40625 20.0592 2.57446 21.4904 4.69556 22.522C6.65533 23.475 9.24554 24 11.9892 24C14.7328 24 17.3231 23.475 19.283 22.522C21.4041 21.4904 22.5721 20.0592 22.5721 18.4922C22.5721 16.9252 21.4041 15.494 19.283 14.4624ZM11.9564 1.40625H11.9892C15.0538 1.40625 17.5472 3.8996 17.5472 6.96423C17.5472 8.64661 16.65 10.0069 15.5667 11.4849C15.5667 11.4849 12.1082 16.2127 11.994 16.3702L8.41168 11.4849C7.32843 10.0069 6.43121 8.64661 6.43121 6.96423C6.43121 3.9104 8.90717 1.42365 11.9564 1.40625ZM11.976 18.7247C11.976 18.7247 12.906 17.5051 13.0809 17.2659C14.2064 17.3264 15.2542 17.4811 16.1058 17.716C17.228 18.0253 17.6255 18.3666 17.7001 18.4922C17.6255 18.6178 17.228 18.9591 16.1058 19.2684C14.9835 19.5778 13.5216 19.7479 11.9892 19.7479C10.4568 19.7479 8.99487 19.5778 7.87262 19.2684C6.75055 18.9591 6.35303 18.6178 6.2785 18.4922C6.35303 18.3666 6.75055 18.0253 7.87262 17.716C8.72681 17.4807 9.7771 17.326 10.9059 17.2654L11.976 18.7247ZM18.668 21.2573C16.8957 22.1193 14.5237 22.5938 11.9892 22.5938C9.45465 22.5938 7.08289 22.1193 5.31042 21.2573C3.7229 20.4853 2.8125 19.4775 2.8125 18.4922C2.8125 17.5069 3.7229 16.4991 5.31042 15.7271C6.35303 15.2199 7.60309 14.8471 8.97144 14.6265L9.9267 15.9294C8.92969 16.0285 8.01233 16.2001 7.2431 16.4344C6.57935 16.637 6.04688 16.881 5.66071 17.1595C5.00244 17.6343 4.8642 18.1463 4.8642 18.4922C4.8642 18.8381 5.00244 19.35 5.66071 19.8248C6.04688 20.1033 6.57935 20.3474 7.2431 20.5499C8.521 20.9396 10.2061 21.1542 11.9892 21.1542C13.7723 21.1542 15.4576 20.9396 16.7353 20.5499C17.399 20.3474 17.9315 20.1033 18.3179 19.8248C18.976 19.35 19.1142 18.8381 19.1142 18.4922C19.1142 18.1463 18.976 17.6343 18.3179 17.1595C17.9315 16.881 17.399 16.637 16.7353 16.4344C15.9657 16.2001 15.0487 16.0285 14.0513 15.9294L15.007 14.6265C16.3753 14.8471 17.6255 15.2199 18.668 15.7271C20.2557 16.4991 21.1659 17.5069 21.1659 18.4922C21.1659 19.4775 20.2557 20.4853 18.668 21.2573Z" fill="url(#paint0_linear)"/>
<path d="M11.9892 11.2509C14.3531 11.2509 16.2759 9.32806 16.2759 6.96417C16.2759 4.60028 14.3531 2.67749 11.9892 2.67749C9.62531 2.67749 7.70251 4.60028 7.70251 6.96417C7.70251 9.32806 9.62531 11.2509 11.9892 11.2509ZM11.9892 4.08374C13.5778 4.08374 14.8696 5.37555 14.8696 6.96417C14.8696 8.5528 13.5778 9.8446 11.9892 9.8446C10.4006 9.8446 9.10876 8.5528 9.10876 6.96417C9.10876 5.37555 10.4006 4.08374 11.9892 4.08374Z" fill="url(#paint1_linear)"/>
<defs>
<linearGradient id="paint0_linear" x1="22.5721" y1="24" x2="1.40625" y2="24" gradientUnits="userSpaceOnUse">
<stop offset="0.02" stop-color="#669935"/>
<stop offset="1" stop-color="#335F5E"/>
</linearGradient>
<linearGradient id="paint1_linear" x1="16.2759" y1="11.2509" x2="7.70251" y2="11.2509" gradientUnits="userSpaceOnUse">
<stop offset="0.02" stop-color="#669935"/>
<stop offset="1" stop-color="#335F5E"/>
</linearGradient>
</defs>
</svg>
