<svg width="150" height="57" viewBox="0 0 150 57" fill="none" xmlns="http://www.w3.org/2000/svg">
<g clip-path="url(#clip0)">
<path d="M20 7.12563L37.3894 38.5L2.61056 38.5L20 7.12563Z" stroke="#DC231A" stroke-width="4"/>
<rect x="18" y="15" width="22" height="29" fill="white"/>
<path d="M8.9754 46.3437V51H7.6972V45.19H11.7559V46.3437H8.9754ZM13.3881 46.5512H16.9654V51H15.7038V47.6302H14.575C14.575 48.2167 14.5529 48.712 14.5086 49.1159C14.4644 49.5198 14.4035 49.8491 14.326 50.1036C14.2486 50.3581 14.1407 50.5546 14.0023 50.6929C13.864 50.8312 13.7146 50.9253 13.5541 50.9751C13.3937 51.0249 13.1945 51.0498 12.9565 51.0498C12.7297 51.0498 12.5166 51.0249 12.3174 50.9751L12.4004 49.9542C12.5 49.9708 12.5886 49.9791 12.666 49.9791C12.7988 49.9791 12.904 49.9487 12.9814 49.8878C13.0589 49.8214 13.1308 49.6775 13.1972 49.4562C13.2692 49.2293 13.319 48.8835 13.3466 48.4187C13.3743 47.9484 13.3881 47.3259 13.3881 46.5512ZM19.6867 51.083C19.2495 51.083 18.8843 50.9613 18.5911 50.7178C18.3033 50.4743 18.1595 50.1368 18.1595 49.7052C18.1595 49.2349 18.3199 48.8807 18.6409 48.6428C18.9673 48.4049 19.4045 48.2859 19.9523 48.2859C20.323 48.2859 20.6854 48.3468 21.0396 48.4685V48.3938C21.0396 47.8515 20.7214 47.5804 20.0851 47.5804C19.7033 47.5804 19.2938 47.6606 18.8567 47.8211L18.5413 46.8583C19.0835 46.6204 19.659 46.5014 20.2677 46.5014C20.9372 46.5014 21.438 46.6674 21.77 46.9994C22.0909 47.3203 22.2514 47.7934 22.2514 48.4187V51H21.0313V50.5186C20.6937 50.8949 20.2455 51.083 19.6867 51.083ZM20.0685 50.2115C20.3617 50.2115 20.5997 50.1396 20.7823 49.9957C20.9649 49.8463 21.0562 49.6582 21.0562 49.4313V49.2072C20.8182 49.0965 20.5499 49.0412 20.2511 49.0412C19.9744 49.0412 19.7586 49.0965 19.6037 49.2072C19.4543 49.3123 19.3796 49.4673 19.3796 49.672C19.3796 49.838 19.4432 49.9708 19.5705 50.0704C19.6977 50.1645 19.8637 50.2115 20.0685 50.2115ZM23.669 46.5512H26.1092C26.5629 46.5512 26.9226 46.6508 27.1882 46.85C27.4593 47.0492 27.5949 47.3203 27.5949 47.6634C27.5949 48.1282 27.3597 48.463 26.8894 48.6677C27.4704 48.8448 27.7609 49.2183 27.7609 49.7882C27.7609 50.1645 27.6115 50.4605 27.3127 50.6763C27.0194 50.8921 26.6155 51 26.1009 51H23.669V46.5512ZM24.914 48.3357H25.8021C25.9736 48.3357 26.1037 48.2942 26.1922 48.2112C26.2863 48.1282 26.3333 48.0203 26.3333 47.8875C26.3333 47.7713 26.289 47.6745 26.2005 47.597C26.1175 47.5195 25.9902 47.4808 25.8187 47.4808H24.914V48.3357ZM24.914 50.0123H25.91C26.2918 50.0123 26.4827 49.8629 26.4827 49.5641C26.4827 49.2764 26.2807 49.1325 25.8768 49.1325H24.914V50.0123ZM33.0531 46.5512V51H31.7915V49.2985H30.2394V51H28.9778V46.5512H30.2394V48.261H31.7915V46.5512H33.0531ZM35.7751 51.083C35.3379 51.083 34.9727 50.9613 34.6795 50.7178C34.3917 50.4743 34.2479 50.1368 34.2479 49.7052C34.2479 49.2349 34.4083 48.8807 34.7293 48.6428C35.0557 48.4049 35.4929 48.2859 36.0407 48.2859C36.4114 48.2859 36.7738 48.3468 37.128 48.4685V48.3938C37.128 47.8515 36.8098 47.5804 36.1735 47.5804C35.7917 47.5804 35.3822 47.6606 34.9451 47.8211L34.6297 46.8583C35.1719 46.6204 35.7474 46.5014 36.3561 46.5014C37.0256 46.5014 37.5264 46.6674 37.8584 46.9994C38.1793 47.3203 38.3398 47.7934 38.3398 48.4187V51H37.1197V50.5186C36.7821 50.8949 36.3339 51.083 35.7751 51.083ZM36.1569 50.2115C36.4501 50.2115 36.6881 50.1396 36.8707 49.9957C37.0533 49.8463 37.1446 49.6582 37.1446 49.4313V49.2072C36.9066 49.0965 36.6383 49.0412 36.3395 49.0412C36.0628 49.0412 35.847 49.0965 35.6921 49.2072C35.5427 49.3123 35.468 49.4673 35.468 49.672C35.468 49.838 35.5316 49.9708 35.6589 50.0704C35.7861 50.1645 35.9521 50.2115 36.1569 50.2115ZM43.6999 46.5512V51H42.4383V49.5724H41.7577L40.8198 51H39.359L40.4961 49.3649C39.8763 49.127 39.5665 48.6843 39.5665 48.0369C39.5665 47.5832 39.7242 47.2235 40.0396 46.9579C40.355 46.6868 40.7976 46.5512 41.3676 46.5512H43.6999ZM41.5834 48.6594H42.4383V47.5389H41.5751C41.3427 47.5389 41.1628 47.5887 41.0356 47.6883C40.9083 47.7824 40.8447 47.9207 40.8447 48.1033C40.8447 48.2804 40.9083 48.4187 41.0356 48.5183C41.1684 48.6124 41.351 48.6594 41.5834 48.6594ZM49.2454 51.083C48.8082 51.083 48.443 50.9613 48.1498 50.7178C47.862 50.4743 47.7182 50.1368 47.7182 49.7052C47.7182 49.2349 47.8786 48.8807 48.1996 48.6428C48.526 48.4049 48.9632 48.2859 49.511 48.2859C49.8817 48.2859 50.2441 48.3468 50.5983 48.4685V48.3938C50.5983 47.8515 50.2801 47.5804 49.6438 47.5804C49.262 47.5804 48.8525 47.6606 48.4154 47.8211L48.1 46.8583C48.6422 46.6204 49.2177 46.5014 49.8264 46.5014C50.4959 46.5014 50.9967 46.6674 51.3287 46.9994C51.6496 47.3203 51.8101 47.7934 51.8101 48.4187V51H50.59V50.5186C50.2524 50.8949 49.8042 51.083 49.2454 51.083ZM49.6272 50.2115C49.9204 50.2115 50.1584 50.1396 50.341 49.9957C50.5236 49.8463 50.6149 49.6582 50.6149 49.4313V49.2072C50.3769 49.0965 50.1086 49.0412 49.8098 49.0412C49.5331 49.0412 49.3173 49.0965 49.1624 49.2072C49.013 49.3123 48.9383 49.4673 48.9383 49.672C48.9383 49.838 49.0019 49.9708 49.1292 50.0704C49.2564 50.1645 49.4224 50.2115 49.6272 50.2115ZM53.2277 46.5512H55.6679C56.1216 46.5512 56.4813 46.6508 56.7469 46.85C57.018 47.0492 57.1536 47.3203 57.1536 47.6634C57.1536 48.1282 56.9184 48.463 56.4481 48.6677C57.0291 48.8448 57.3196 49.2183 57.3196 49.7882C57.3196 50.1645 57.1702 50.4605 56.8714 50.6763C56.5781 50.8921 56.1742 51 55.6596 51H53.2277V46.5512ZM54.4727 48.3357H55.3608C55.5323 48.3357 55.6624 48.2942 55.7509 48.2112C55.845 48.1282 55.892 48.0203 55.892 47.8875C55.892 47.7713 55.8477 47.6745 55.7592 47.597C55.6762 47.5195 55.5489 47.4808 55.3774 47.4808H54.4727V48.3357ZM54.4727 50.0123H55.4687C55.8505 50.0123 56.0414 49.8629 56.0414 49.5641C56.0414 49.2764 55.8394 49.1325 55.4355 49.1325H54.4727V50.0123ZM62.0142 46.5512V47.6302H60.6945V51H59.4163V47.6302H58.0966V46.5512H62.0142ZM66.9357 50.4273C66.4764 50.8755 65.9037 51.0996 65.2176 51.0996C64.5314 51.0996 63.9587 50.8783 63.4995 50.4356C63.0457 49.9874 62.8189 49.4368 62.8189 48.7839C62.8189 48.1365 63.0485 47.5887 63.5078 47.1405C63.9726 46.6923 64.548 46.4682 65.2342 46.4682C65.9203 46.4682 66.4902 46.6923 66.944 47.1405C67.4032 47.5832 67.6329 48.131 67.6329 48.7839C67.6329 49.4313 67.4005 49.9791 66.9357 50.4273ZM65.2342 50.0123C65.5828 50.0123 65.8622 49.8961 66.0725 49.6637C66.2827 49.4258 66.3879 49.1325 66.3879 48.7839C66.3879 48.4464 66.2772 48.1586 66.0559 47.9207C65.8401 47.6772 65.5606 47.5555 65.2176 47.5555C64.869 47.5555 64.5895 47.6745 64.3793 47.9124C64.169 48.1448 64.0639 48.4353 64.0639 48.7839C64.0639 49.1214 64.1718 49.4119 64.3876 49.6554C64.6089 49.8933 64.8911 50.0123 65.2342 50.0123ZM75.5018 46.5512V51H68.8784V46.5512H70.14V49.921H71.5593V46.5512H72.8209V49.921H74.2319V46.5512H75.5018ZM76.9592 51V46.5512H78.2208V48.3772L79.8144 46.5512H81.2669L79.6318 48.3772L81.4744 51H79.9804L78.7935 49.3068L78.2208 49.9293V51H76.9592ZM86.2662 50.4273C85.807 50.8755 85.2343 51.0996 84.5481 51.0996C83.862 51.0996 83.2893 50.8783 82.83 50.4356C82.3763 49.9874 82.1494 49.4368 82.1494 48.7839C82.1494 48.1365 82.3791 47.5887 82.8383 47.1405C83.3031 46.6923 83.8786 46.4682 84.5647 46.4682C85.2509 46.4682 85.8208 46.6923 86.2745 47.1405C86.7338 47.5832 86.9634 48.131 86.9634 48.7839C86.9634 49.4313 86.731 49.9791 86.2662 50.4273ZM84.5647 50.0123C84.9133 50.0123 85.1928 49.8961 85.403 49.6637C85.6133 49.4258 85.7184 49.1325 85.7184 48.7839C85.7184 48.4464 85.6078 48.1586 85.3864 47.9207C85.1706 47.6772 84.8912 47.5555 84.5481 47.5555C84.1995 47.5555 83.9201 47.6745 83.7098 47.9124C83.4996 48.1448 83.3944 48.4353 83.3944 48.7839C83.3944 49.1214 83.5023 49.4119 83.7181 49.6554C83.9395 49.8933 84.2217 50.0123 84.5647 50.0123ZM88.7402 46.5512H92.3175V51H91.0559V47.6302H89.9271C89.9271 48.2167 89.9049 48.712 89.8607 49.1159C89.8164 49.5198 89.7555 49.8491 89.6781 50.1036C89.6006 50.3581 89.4927 50.5546 89.3544 50.6929C89.216 50.8312 89.0666 50.9253 88.9062 50.9751C88.7457 51.0249 88.5465 51.0498 88.3086 51.0498C88.0817 51.0498 87.8687 51.0249 87.6695 50.9751L87.7525 49.9542C87.8521 49.9708 87.9406 49.9791 88.0181 49.9791C88.1509 49.9791 88.256 49.9487 88.3335 49.8878C88.4109 49.8214 88.4829 49.6775 88.5493 49.4562C88.6212 49.2293 88.671 48.8835 88.6987 48.4187C88.7263 47.9484 88.7402 47.3259 88.7402 46.5512ZM95.0387 51.083C94.6016 51.083 94.2364 50.9613 93.9431 50.7178C93.6554 50.4743 93.5115 50.1368 93.5115 49.7052C93.5115 49.2349 93.672 48.8807 93.9929 48.6428C94.3194 48.4049 94.7565 48.2859 95.3043 48.2859C95.675 48.2859 96.0375 48.3468 96.3916 48.4685V48.3938C96.3916 47.8515 96.0734 47.5804 95.4371 47.5804C95.0553 47.5804 94.6458 47.6606 94.2087 47.8211L93.8933 46.8583C94.4356 46.6204 95.011 46.5014 95.6197 46.5014C96.2892 46.5014 96.79 46.6674 97.122 46.9994C97.4429 47.3203 97.6034 47.7934 97.6034 48.4187V51H96.3833V50.5186C96.0458 50.8949 95.5976 51.083 95.0387 51.083ZM95.4205 50.2115C95.7138 50.2115 95.9517 50.1396 96.1343 49.9957C96.3169 49.8463 96.4082 49.6582 96.4082 49.4313V49.2072C96.1703 49.0965 95.9019 49.0412 95.6031 49.0412C95.3264 49.0412 95.1106 49.0965 94.9557 49.2072C94.8063 49.3123 94.7316 49.4673 94.7316 49.672C94.7316 49.838 94.7952 49.9708 94.9225 50.0704C95.0498 50.1645 95.2158 50.2115 95.4205 50.2115ZM101.841 46.5512H104.282C104.735 46.5512 105.095 46.6508 105.361 46.85C105.632 47.0492 105.767 47.3203 105.767 47.6634C105.767 48.1282 105.532 48.463 105.062 48.6677C105.643 48.8448 105.933 49.2183 105.933 49.7882C105.933 50.1645 105.784 50.4605 105.485 50.6763C105.192 50.8921 104.788 51 104.273 51H101.841V46.5512ZM103.086 48.3357H103.974C104.146 48.3357 104.276 48.2942 104.365 48.2112C104.459 48.1282 104.506 48.0203 104.506 47.8875C104.506 47.7713 104.461 47.6745 104.373 47.597C104.29 47.5195 104.163 47.4808 103.991 47.4808H103.086V48.3357ZM103.086 50.0123H104.082C104.464 50.0123 104.655 49.8629 104.655 49.5641C104.655 49.2764 104.453 49.1325 104.049 49.1325H103.086V50.0123ZM109.489 52.2118V49.8463H110.037C110.264 49.3206 110.427 48.7645 110.527 48.178C110.626 47.5915 110.676 46.8223 110.676 45.8706V45.19H114.901V49.8463H115.598L115.432 52.2118H114.361V51H110.726L110.643 52.2118H109.489ZM113.623 46.3437H111.904V46.933C111.904 48.0286 111.73 48.9997 111.382 49.8463H113.623V46.3437ZM120.765 46.5512V51H119.503V49.2985H117.951V51H116.69V46.5512H117.951V48.261H119.503V46.5512H120.765ZM124.334 51.0996C123.658 51.0996 123.102 50.8866 122.665 50.4605C122.228 50.0289 122.01 49.47 122.01 48.7839C122.01 48.1365 122.217 47.5887 122.632 47.1405C123.047 46.6923 123.573 46.4682 124.209 46.4682C124.912 46.4682 125.449 46.7006 125.819 47.1654C126.19 47.6302 126.375 48.2029 126.375 48.8835C126.375 48.9499 126.37 49.0606 126.359 49.2155H123.263C123.324 49.4977 123.448 49.7135 123.636 49.8629C123.824 50.0123 124.062 50.087 124.35 50.087C124.743 50.087 125.103 49.9348 125.429 49.6305L126.151 50.2696C125.703 50.8229 125.097 51.0996 124.334 51.0996ZM123.246 48.427H125.147C125.108 48.1393 125.006 47.9096 124.84 47.7381C124.679 47.5666 124.469 47.4808 124.209 47.4808C123.955 47.4808 123.741 47.5666 123.57 47.7381C123.404 47.9041 123.296 48.1337 123.246 48.427ZM131.69 46.5512V51H130.428V47.6302H128.909V51H127.648V46.5512H131.69ZM133.151 52.328V46.5512H134.412V47.1903C134.767 46.7089 135.229 46.4682 135.799 46.4682C136.352 46.4682 136.828 46.6757 137.226 47.0907C137.625 47.5057 137.824 48.0701 137.824 48.7839C137.824 49.4922 137.625 50.0538 137.226 50.4688C136.833 50.8783 136.357 51.083 135.799 51.083C135.245 51.083 134.783 50.8617 134.412 50.419V52.328H133.151ZM134.703 49.672C134.913 49.8989 135.171 50.0123 135.475 50.0123C135.779 50.0123 136.036 49.8989 136.247 49.672C136.457 49.4396 136.562 49.138 136.562 48.7673C136.562 48.4076 136.457 48.1144 136.247 47.8875C136.036 47.6551 135.779 47.5389 135.475 47.5389C135.171 47.5389 134.913 47.6551 134.703 47.8875C134.498 48.1144 134.396 48.4132 134.396 48.7839C134.396 49.1436 134.498 49.4396 134.703 49.672ZM141.192 51.0996C140.517 51.0996 139.961 50.8866 139.524 50.4605C139.087 50.0289 138.868 49.47 138.868 48.7839C138.868 48.1365 139.075 47.5887 139.49 47.1405C139.905 46.6923 140.431 46.4682 141.067 46.4682C141.77 46.4682 142.307 46.7006 142.678 47.1654C143.048 47.6302 143.234 48.2029 143.234 48.8835C143.234 48.9499 143.228 49.0606 143.217 49.2155H140.121C140.182 49.4977 140.307 49.7135 140.495 49.8629C140.683 50.0123 140.921 50.087 141.209 50.087C141.601 50.087 141.961 49.9348 142.288 49.6305L143.01 50.2696C142.561 50.8229 141.956 51.0996 141.192 51.0996ZM140.105 48.427H142.005C141.967 48.1393 141.864 47.9096 141.698 47.7381C141.538 47.5666 141.328 47.4808 141.067 47.4808C140.813 47.4808 140.6 47.5666 140.428 47.7381C140.262 47.9041 140.154 48.1337 140.105 48.427Z" fill="black"/>
<path d="M20.82 40V21.8H34.158V40H30.414V25.232H24.564V40H20.82ZM50.2343 28.092C50.2343 30.12 49.593 31.6887 48.3103 32.798C47.045 33.9073 45.4157 34.462 43.4223 34.462H41.2903V40H37.5463V21.8H43.5783C45.6237 21.8 47.2443 22.3633 48.4403 23.49C49.6363 24.5993 50.2343 26.1333 50.2343 28.092ZM46.4383 28.17C46.4383 27.1993 46.1783 26.4627 45.6583 25.96C45.1383 25.4573 44.4103 25.206 43.4743 25.206H41.2903V31.082H43.5003C44.4017 31.082 45.1123 30.822 45.6323 30.302C46.1697 29.7647 46.4383 29.054 46.4383 28.17ZM68.2005 31.03C68.2005 33.734 67.4292 35.9527 65.8865 37.686C64.3439 39.4193 62.3765 40.286 59.9845 40.286C57.5752 40.286 55.5992 39.428 54.0565 37.712C52.5312 35.996 51.7685 33.786 51.7685 31.082V30.77C51.7685 28.0487 52.5399 25.83 54.0825 24.114C55.6252 22.3807 57.6012 21.514 60.0105 21.514C62.4025 21.514 64.3612 22.372 65.8865 24.088C67.4292 25.804 68.2005 28.014 68.2005 30.718V31.03ZM64.3265 31.082V30.77C64.3265 29.002 63.9192 27.598 63.1045 26.558C62.3072 25.5007 61.2672 24.972 59.9845 24.972C58.6845 24.972 57.6359 25.492 56.8385 26.532C56.0585 27.5547 55.6685 28.95 55.6685 30.718V31.03C55.6685 32.798 56.0672 34.2107 56.8645 35.268C57.6792 36.308 58.7279 36.828 60.0105 36.828C61.3105 36.828 62.3505 36.3167 63.1305 35.294C63.9279 34.254 64.3265 32.85 64.3265 31.082ZM84.2608 37.816C83.4461 38.6307 82.5708 39.246 81.6348 39.662C80.7161 40.0607 79.6068 40.26 78.3068 40.26C75.9668 40.26 74.0341 39.4107 72.5088 37.712C71.0008 36.0133 70.2468 33.786 70.2468 31.03V30.796C70.2468 28.04 71.0181 25.8127 72.5608 24.114C74.1035 22.398 76.0795 21.54 78.4888 21.54C80.7248 21.54 82.6055 22.2333 84.1308 23.62L82.3628 26.662C81.0975 25.5873 79.8321 25.05 78.5668 25.05C77.2668 25.05 76.2008 25.5613 75.3688 26.584C74.5541 27.6067 74.1468 28.9933 74.1468 30.744V31.004C74.1468 32.7893 74.5541 34.1933 75.3688 35.216C76.1835 36.2387 77.2581 36.75 78.5928 36.75C79.8928 36.75 81.1841 36.1953 82.4668 35.086L84.2608 37.816ZM86.7097 40V21.8H100.048V40H96.3037V25.232H90.4537V40H86.7097ZM115.24 40H103.436V21.8H115.136V25.18H107.154V29.158H114.174V32.538H107.154V36.62H115.24V40ZM132.357 40H127.911L123.387 32.512L121.697 34.644V40H117.953V21.8H121.697V29.652L127.625 21.8H132.097L125.987 29.496L132.357 40ZM145.873 25.284H141.349V40H137.579V25.284H133.029V21.8H145.873V25.284Z" fill="black"/>
</g>
<defs>
<clipPath id="clip0">
<rect width="150" height="57" fill="white"/>
</clipPath>
</defs>
</svg>
