<svg width="30" height="40" viewBox="0 0 30 40" fill="none" xmlns="http://www.w3.org/2000/svg">
<g clip-path="url(#clip0)">
<path d="M0.937476 13.0001H29.0624C29.58 13.0001 29.9999 12.328 29.9999 11.5001C29.9999 10.672 29.5799 10.0001 29.0624 10.0001H0.937476C0.419955 10.0001 0 10.6721 0 11.5001C0 12.328 0.420033 13.0001 0.937476 13.0001Z" fill="url(#paint0_linear)"/>
<path d="M29.0624 19H0.937476C0.419955 19 0 19.6721 0 20.5C0 21.3279 0.420033 22 0.937476 22H29.0624C29.58 22 29.9999 21.3279 29.9999 20.5C29.9999 19.6721 29.58 19 29.0624 19Z" fill="url(#paint1_linear)"/>
<path d="M29.0796 28H10.6704C10.1623 28 9.75 28.6721 9.75 29.5C9.75 30.3281 10.1624 31 10.6704 31H29.0796C29.5877 31 30 30.3279 30 29.5C30.0001 28.6719 29.5877 28 29.0796 28Z" fill="url(#paint2_linear)"/>
</g>
<defs>
<linearGradient id="paint0_linear" x1="29.9999" y1="13.0001" x2="-2.42143e-07" y2="13" gradientUnits="userSpaceOnUse">
<stop offset="0.02" stop-color="#669935"/>
<stop offset="1" stop-color="#335F5E"/>
</linearGradient>
<linearGradient id="paint1_linear" x1="29.9999" y1="22" x2="-2.42143e-07" y2="22" gradientUnits="userSpaceOnUse">
<stop offset="0.02" stop-color="#669935"/>
<stop offset="1" stop-color="#335F5E"/>
</linearGradient>
<linearGradient id="paint2_linear" x1="30" y1="31" x2="9.75" y2="31" gradientUnits="userSpaceOnUse">
<stop offset="0.02" stop-color="#669935"/>
<stop offset="1" stop-color="#335F5E"/>
</linearGradient>
<clipPath id="clip0">
<rect width="30" height="40" fill="white"/>
</clipPath>
</defs>
</svg>
