<svg width="24" height="24" viewBox="0 0 24 24" fill="none" xmlns="http://www.w3.org/2000/svg">
<path d="M23.2969 14.1094C23.6852 14.1094 24 13.7946 24 13.4062C24 13.0179 23.6852 12.7031 23.2969 12.7031H21.1875V6.375C21.1875 5.43494 20.5496 4.6637 19.7344 4.38318V3.5625C19.7344 2.39941 18.7881 1.45312 17.625 1.45312C16.4619 1.45312 15.5156 2.39941 15.5156 3.5625V4.26562H14.1094V3.5625C14.1094 2.39941 13.1631 1.45312 12 1.45312C10.8369 1.45312 9.89062 2.39941 9.89062 3.5625V4.26562H8.48438V3.5625C8.48438 2.39941 7.53809 1.45312 6.375 1.45312C5.21191 1.45312 4.26562 2.39941 4.26562 3.5625V4.38318C3.44879 4.66425 2.8125 5.43585 2.8125 6.375V9.89062H1.40625V9.1875C1.40625 8.79913 1.09149 8.48438 0.703125 8.48438C0.314758 8.48438 0 8.79913 0 9.1875V14.8125C0 15.2009 0.314758 15.5156 0.703125 15.5156C1.09149 15.5156 1.40625 15.2009 1.40625 14.8125V14.1094H2.8125V17.625C2.8125 18.7906 3.80182 19.7344 4.96875 19.7344H11.2969V20.4375C11.2969 21.6006 12.2432 22.5469 13.4062 22.5469H19.0312C20.1965 22.5469 21.1875 21.6052 21.1875 20.4375V19.7344H23.2969C23.6852 19.7344 24 19.4196 24 19.0312V16.2188C24 15.8304 23.6852 15.5156 23.2969 15.5156H21.1875V14.1094H23.2969ZM16.9219 3.5625C16.9219 3.17487 17.2374 2.85938 17.625 2.85938C18.0126 2.85938 18.3281 3.17487 18.3281 3.5625V4.26562H16.9219V3.5625ZM11.2969 3.5625C11.2969 3.17487 11.6124 2.85938 12 2.85938C12.3876 2.85938 12.7031 3.17487 12.7031 3.5625V4.26562H11.2969V3.5625ZM6.375 2.85938C6.76263 2.85938 7.07812 3.17487 7.07812 3.5625V4.26562H5.67188V3.5625C5.67188 3.17487 5.98737 2.85938 6.375 2.85938ZM4.96875 5.67188H19.0312C19.4308 5.67188 19.7812 6.00037 19.7812 6.375V7.07812H4.21875V6.375C4.21875 6.00037 4.56921 5.67188 4.96875 5.67188ZM1.40625 12.7031V11.2969H2.8125V12.7031H1.40625ZM19.7812 20.4375C19.7812 20.8121 19.4308 21.1406 19.0312 21.1406H13.4062C13.0186 21.1406 12.7031 20.8251 12.7031 20.4375V19.0312C12.7031 18.6429 12.3884 18.3281 12 18.3281H4.96875C4.56921 18.3281 4.21875 17.9996 4.21875 17.625V16.9219H19.7812V20.4375ZM22.5938 16.9219V18.3281H21.1875V16.9219H22.5938ZM19.7812 15.5156H4.21875V8.48438H19.7812V12.7031H17.625C17.2374 12.7031 16.9219 12.3876 16.9219 12V10.5938C16.9219 10.2054 16.6071 9.89062 16.2188 9.89062C15.8304 9.89062 15.5156 10.2054 15.5156 10.5938V12C15.5156 12.2465 15.5585 12.483 15.6365 12.7031H14.8125C14.4249 12.7031 14.1094 12.3876 14.1094 12V10.5938C14.1094 10.2054 13.7946 9.89062 13.4062 9.89062C13.0179 9.89062 12.7031 10.2054 12.7031 10.5938V12C12.7031 12.2465 12.746 12.483 12.824 12.7031H12C11.6124 12.7031 11.2969 12.3876 11.2969 12V10.5938C11.2969 10.2054 10.9821 9.89062 10.5938 9.89062C10.2054 9.89062 9.89062 10.2054 9.89062 10.5938V12C9.89062 12.2465 9.93347 12.483 10.0115 12.7031H9.1875C8.79987 12.7031 8.48438 12.3876 8.48438 12V10.5938C8.48438 10.2054 8.16962 9.89062 7.78125 9.89062C7.39288 9.89062 7.07812 10.2054 7.07812 10.5938V12C7.07812 13.1631 8.02441 14.1094 9.1875 14.1094H19.7812V15.5156Z" fill="url(#paint0_linear)"/>
<defs>
<linearGradient id="paint0_linear" x1="24" y1="22.5469" x2="-1.93715e-07" y2="22.5469" gradientUnits="userSpaceOnUse">
<stop offset="0.02" stop-color="#669935"/>
<stop offset="1" stop-color="#335F5E"/>
</linearGradient>
</defs>
</svg>
