<svg width="32" height="32" viewBox="0 0 32 32" fill="none" xmlns="http://www.w3.org/2000/svg">
<path d="M14.6399 26.5107H10.9585C10.4407 26.5107 10.0208 26.9307 10.0208 27.4487C10.0208 27.9666 10.4407 28.3865 10.9585 28.3865H14.6399C15.1577 28.3865 15.5776 27.9666 15.5776 27.4487C15.5776 26.9307 15.1577 26.5107 14.6399 26.5107Z" fill="url(#paint0_linear)"/>
<path d="M24.8926 8.32837H22.7861V3.60742C22.7859 1.61841 21.1677 0 19.1785 0H6.41992C4.43091 0 2.8125 1.61841 2.8125 3.60742V28.3926C2.8125 30.3816 4.43091 32 6.41992 32H19.1785C21.1677 32 22.7859 30.3816 22.7859 28.3926V20.3811H24.8926C27.2512 20.3811 29.1702 18.4622 29.1702 16.1033V12.6062C29.1704 10.2476 27.2512 8.32837 24.8926 8.32837ZM15.5896 1.87573V2.80322H10.0088V1.87573H15.5896ZM20.9102 28.3926C20.9102 29.3474 20.1333 30.1243 19.1785 30.1243H6.41992C5.46509 30.1243 4.68823 29.3474 4.68823 28.3926V3.60742C4.68823 2.65259 5.46509 1.87573 6.41992 1.87573H8.13306V2.87964C8.13306 3.87183 8.94019 4.67896 9.93237 4.67896H15.6663C16.6582 4.67896 17.4653 3.87183 17.4653 2.87964V1.87573H19.1785C20.1333 1.87573 20.9102 2.65259 20.9102 3.60742V8.32837H16.1392C13.7803 8.32837 11.8613 10.2473 11.8613 12.6062V20.9126C11.8613 21.343 12.0986 21.7336 12.4805 21.9321C12.6479 22.0193 12.8298 22.0623 13.011 22.0623C13.2124 22.0623 13.4128 22.009 13.5916 21.9041L16.6082 20.3811H20.9102V28.3926ZM27.2947 16.1033C27.2947 17.428 26.217 18.5054 24.8926 18.5054H16.4304C16.2244 18.5054 16.0254 18.5598 15.8491 18.6631L13.7371 19.7295V12.6062C13.7371 11.2817 14.8147 10.2041 16.1392 10.2041H24.8926C26.217 10.2041 27.2947 11.2817 27.2947 12.6062V16.1033Z" fill="url(#paint1_linear)"/>
<path d="M24.6191 11.6799H16.4126C15.8948 11.6799 15.4749 12.0999 15.4749 12.6177C15.4749 13.1357 15.8948 13.5557 16.4126 13.5557H24.6191C25.137 13.5557 25.5569 13.1357 25.5569 12.6177C25.5569 12.0999 25.137 11.6799 24.6191 11.6799Z" fill="url(#paint2_linear)"/>
<path d="M24.6191 14.8826H20.5159C19.9978 14.8826 19.5781 15.3025 19.5781 15.8203C19.5781 16.3384 19.9978 16.7583 20.5159 16.7583H24.6191C25.137 16.7583 25.5569 16.3384 25.5569 15.8203C25.5569 15.3025 25.137 14.8826 24.6191 14.8826Z" fill="url(#paint3_linear)"/>
<defs>
<linearGradient id="paint0_linear" x1="15.5776" y1="28.3865" x2="10.0208" y2="28.3865" gradientUnits="userSpaceOnUse">
<stop offset="0.02" stop-color="#669935"/>
<stop offset="1" stop-color="#335F5E"/>
</linearGradient>
<linearGradient id="paint1_linear" x1="29.1702" y1="32" x2="2.8125" y2="32" gradientUnits="userSpaceOnUse">
<stop offset="0.02" stop-color="#669935"/>
<stop offset="1" stop-color="#335F5E"/>
</linearGradient>
<linearGradient id="paint2_linear" x1="25.5569" y1="13.5557" x2="15.4749" y2="13.5557" gradientUnits="userSpaceOnUse">
<stop offset="0.02" stop-color="#669935"/>
<stop offset="1" stop-color="#335F5E"/>
</linearGradient>
<linearGradient id="paint3_linear" x1="25.5569" y1="16.7583" x2="19.5781" y2="16.7583" gradientUnits="userSpaceOnUse">
<stop offset="0.02" stop-color="#669935"/>
<stop offset="1" stop-color="#335F5E"/>
</linearGradient>
</defs>
</svg>
