<svg width="48" height="48" viewBox="0 0 48 48" fill="none" xmlns="http://www.w3.org/2000/svg">
<g clip-path="url(#clip0)">
<path d="M18.8791 45.8314C21.7711 48.723 26.4593 48.723 29.3512 45.8314L32.0614 43.1338C32.5685 43.5813 33.2205 43.8296 33.8972 43.8323H33.9132C34.6641 43.8276 35.3811 43.5192 35.901 42.977L37.354 41.4853C38.4224 40.3841 38.4126 38.6304 37.3321 37.5417L30.4724 30.6804C29.9435 30.1507 29.2242 29.8552 28.4756 29.8591C27.727 29.863 27.0112 30.1664 26.4878 30.7015L25.0348 32.1874C24.2205 33.0255 24.009 34.28 24.5035 35.3389L23.0876 36.7544C22.8672 36.9792 22.5662 37.1067 22.2511 37.1074C21.9364 37.1086 21.6342 36.9835 21.4122 36.7603L11.5991 26.9472C11.5807 26.9288 11.5627 26.9097 11.5455 26.8905C11.1398 26.4222 11.1664 25.7201 11.6054 25.2835L13.0048 23.884C14.081 24.4121 15.3738 24.1983 16.2224 23.3516L17.7024 21.8716C18.797 20.777 18.797 19.0031 17.7024 17.9085L10.8427 11.0488C9.74852 9.95461 7.97416 9.95461 6.88 11.0488L5.4 12.5292C4.37424 13.5577 4.3031 15.1987 5.23621 16.312L2.53422 19.014C-0.357759 21.906 -0.357759 26.5942 2.53422 29.4862L18.8791 45.8314ZM26.1794 33.3066L27.6324 31.8024C27.854 31.5666 28.1609 31.4298 28.4846 31.4232H28.4912C28.8122 31.429 29.1175 31.5623 29.3403 31.7934L36.2 38.6621C36.6629 39.13 36.6672 39.8821 36.2098 40.3555L34.7568 41.8437C34.5238 42.0748 34.2095 42.2049 33.8815 42.2061C33.5579 42.2061 33.3026 42.0834 33.0024 41.8547L26.1657 34.9957C25.7087 34.5231 25.715 33.7718 26.1794 33.3066ZM6.53248 13.6612L8.01247 12.1812C8.48157 11.7122 9.24189 11.7122 9.71099 12.1812L16.57 19.041C17.0387 19.5101 17.0387 20.2704 16.57 20.7391L15.09 22.2195C14.6205 22.6874 13.8609 22.6874 13.3914 22.2195L6.53248 15.3598C6.06455 14.8903 6.06455 14.1307 6.53248 13.6612ZM3.66669 20.1461L6.36086 17.4519L11.7664 22.8579L10.4795 24.1448C9.44439 25.1822 9.38575 26.8428 10.3454 27.9507C10.3881 27.9988 10.433 28.0461 10.4729 28.0852L20.2856 37.8979C21.3735 38.9776 23.1295 38.9748 24.2143 37.8924L25.518 36.5887L30.9235 41.9946L28.2192 44.699C25.9526 46.9655 22.2781 46.9655 20.0112 44.699L3.6663 28.3541C1.40018 26.0876 1.40018 22.413 3.6663 20.1461H3.66669Z" fill="url(#paint0_linear)"/>
<path d="M34.4794 0H34.5033V0.0175911C29.4546 0.00820917 24.845 2.8865 22.6367 7.42696C20.4289 11.9674 21.0109 17.3706 24.1355 21.336L22.2509 25.719C22.1344 25.9887 22.1751 26.3006 22.3568 26.5317C22.5386 26.7623 22.8322 26.8753 23.1219 26.8256L30.0848 25.5833C31.4741 26.0782 32.9392 26.3272 34.4145 26.3194H34.4626C41.7125 26.3194 47.6157 20.4299 47.6258 13.1777C47.6356 5.9196 41.7387 0 34.4794 0ZM34.4431 24.7608C33.0768 24.764 31.7215 24.5165 30.4444 24.031C30.3096 23.9798 30.1634 23.9657 30.0215 23.9907L24.3032 24.9934L25.7937 21.5241C25.9141 21.2434 25.8645 20.9185 25.6655 20.6867C23.881 18.6067 22.9002 15.9563 22.8998 13.2156C22.8928 8.53598 25.7074 4.31334 30.0297 2.51944C34.352 0.725535 39.3295 1.71376 42.6382 5.02323C45.9473 8.3327 46.9351 13.3102 45.1404 17.6321C43.3461 21.9541 39.1231 24.7683 34.4431 24.7608Z" fill="url(#paint1_linear)"/>
<path d="M30.0369 12.1089H33.8898C34.3319 12.1089 34.6903 11.7505 34.6903 11.3083C34.6903 10.8662 34.3319 10.5078 33.8898 10.5078H30.0369C29.5948 10.5078 29.2363 10.8662 29.2363 11.3083C29.2363 11.7505 29.5948 12.1089 30.0369 12.1089Z" fill="url(#paint2_linear)"/>
<path d="M38.8852 14.1104H30.0389C29.5967 14.1104 29.2383 14.4689 29.2383 14.911C29.2383 15.3531 29.5967 15.7116 30.0389 15.7116H38.8852C39.3274 15.7116 39.6858 15.3531 39.6858 14.911C39.6858 14.4689 39.3274 14.1104 38.8852 14.1104Z" fill="url(#paint3_linear)"/>
</g>
<defs>
<linearGradient id="paint0_linear" x1="38.1489" y1="48.0001" x2="0.365234" y2="48.0001" gradientUnits="userSpaceOnUse">
<stop offset="0.02" stop-color="#669935"/>
<stop offset="1" stop-color="#335F5E"/>
</linearGradient>
<linearGradient id="paint1_linear" x1="47.6259" y1="26.8372" x2="21.3105" y2="26.8372" gradientUnits="userSpaceOnUse">
<stop offset="0.02" stop-color="#669935"/>
<stop offset="1" stop-color="#335F5E"/>
</linearGradient>
<linearGradient id="paint2_linear" x1="34.6903" y1="12.1089" x2="29.2363" y2="12.1089" gradientUnits="userSpaceOnUse">
<stop offset="0.02" stop-color="#669935"/>
<stop offset="1" stop-color="#335F5E"/>
</linearGradient>
<linearGradient id="paint3_linear" x1="39.6858" y1="15.7116" x2="29.2383" y2="15.7116" gradientUnits="userSpaceOnUse">
<stop offset="0.02" stop-color="#669935"/>
<stop offset="1" stop-color="#335F5E"/>
</linearGradient>
<clipPath id="clip0">
<rect width="48" height="48" fill="white"/>
</clipPath>
</defs>
</svg>
