<svg width="20" height="20" viewBox="0 0 20 20" fill="none" xmlns="http://www.w3.org/2000/svg">
<g clip-path="url(#clip0)">
<path d="M6.32812 20.0781H13.6719C15.2658 20.0781 16.5625 18.7814 16.5625 17.1875V2.89062C16.5625 1.29672 15.2658 0 13.6719 0H6.32812C4.73422 0 3.4375 1.29672 3.4375 2.89062V17.1875C3.4375 18.7814 4.73422 20.0781 6.32812 20.0781ZM5.3125 2.89062C5.3125 2.33063 5.76813 1.875 6.32812 1.875H13.6719C14.2319 1.875 14.6875 2.33063 14.6875 2.89062V17.1875C14.6875 17.7475 14.2319 18.2031 13.6719 18.2031H6.32812C5.76813 18.2031 5.3125 17.7475 5.3125 17.1875V2.89062Z" fill="url(#paint0_linear)"/>
<path d="M8.75 4.6875H11.25C11.7678 4.6875 12.1875 4.26777 12.1875 3.75C12.1875 3.23223 11.7678 2.8125 11.25 2.8125H8.75C8.23223 2.8125 7.8125 3.23223 7.8125 3.75C7.8125 4.26777 8.23223 4.6875 8.75 4.6875Z" fill="url(#paint1_linear)"/>
</g>
<defs>
<linearGradient id="paint0_linear" x1="16.5625" y1="20.0781" x2="3.4375" y2="20.0781" gradientUnits="userSpaceOnUse">
<stop offset="0.02" stop-color="#669935"/>
<stop offset="1" stop-color="#335F5E"/>
</linearGradient>
<linearGradient id="paint1_linear" x1="12.1875" y1="4.6875" x2="7.8125" y2="4.6875" gradientUnits="userSpaceOnUse">
<stop offset="0.02" stop-color="#669935"/>
<stop offset="1" stop-color="#335F5E"/>
</linearGradient>
<clipPath id="clip0">
<rect width="20" height="20" fill="white"/>
</clipPath>
</defs>
</svg>
