<svg width="32" height="32" viewBox="0 0 32 32" fill="none" xmlns="http://www.w3.org/2000/svg">
<g clip-path="url(#clip0)">
<path d="M22.9368 10.6274C22.9368 6.81372 19.8342 3.71118 16.0208 3.71118C12.2073 3.71118 9.10474 6.81372 9.10474 10.6274C9.10474 14.4409 12.2073 17.5435 16.0208 17.5435C19.8342 17.5435 22.9368 14.4409 22.9368 10.6274ZM10.9797 10.6274C10.9797 7.84766 13.2412 5.58618 16.0208 5.58618C18.8005 5.58618 21.062 7.84766 21.062 10.6274C21.062 13.407 18.8005 15.6685 16.0208 15.6685C13.2412 15.6685 10.9797 13.407 10.9797 10.6274Z" fill="url(#paint0_linear)"/>
<path d="M27.2402 23.3416C25.8247 22.7373 24.0129 22.2651 21.9341 21.9539C21.9912 21.8831 22.0483 21.812 22.1055 21.7397C23.4316 20.0645 24.4907 18.3838 25.2534 16.7444C26.2266 14.6536 26.7197 12.6196 26.7197 10.699C26.7197 4.79956 21.9202 0 16.0208 0C10.1213 0 5.32178 4.79956 5.32178 10.699C5.32178 12.6196 5.81494 14.6536 6.78809 16.7444C7.55078 18.3838 8.60986 20.0645 9.93604 21.7397C9.99316 21.812 10.0503 21.8831 10.1074 21.9539C8.02856 22.2651 6.21704 22.7375 4.80127 23.3416C3.32373 23.9719 1.5625 25.0779 1.5625 26.7668C1.5625 30.2024 8.83594 32 16.0208 32C23.2056 32 30.479 30.2024 30.479 26.7668C30.479 25.0779 28.7178 23.9719 27.2402 23.3416ZM7.19678 10.699C7.19678 5.8335 11.1553 1.875 16.0208 1.875C20.8865 1.875 24.8447 5.8335 24.8447 10.699C24.8447 17.9739 16.4482 24.9602 16.3635 25.0298C16.1938 25.1692 15.8479 25.1689 15.678 25.0298C15.593 24.96 7.19678 17.9875 7.19678 10.699ZM25.2974 28.9109C22.833 29.6938 19.5386 30.125 16.0208 30.125C12.5029 30.125 9.2085 29.6938 6.74414 28.9109C4.13403 28.0815 3.4375 27.1729 3.4375 26.7668C3.4375 26.1729 4.5686 25.4792 5.53711 25.0662C7.04297 24.4236 9.17114 23.926 11.5696 23.6528C13.1487 25.3733 14.4185 26.4216 14.4885 26.4792C14.9182 26.8318 15.4695 27.0078 16.0208 27.0078C16.572 27.0078 17.1235 26.8315 17.553 26.4792C17.623 26.4219 18.8931 25.3733 20.4719 23.6528C22.8704 23.9263 24.9988 24.4236 26.5044 25.0662C28.0542 25.7273 28.604 26.3955 28.604 26.7668C28.604 27.1729 27.9075 28.0815 25.2974 28.9109Z" fill="url(#paint1_linear)"/>
</g>
<defs>
<linearGradient id="paint0_linear" x1="22.9368" y1="17.5435" x2="9.10474" y2="17.5435" gradientUnits="userSpaceOnUse">
<stop offset="0.02" stop-color="#669935"/>
<stop offset="1" stop-color="#335F5E"/>
</linearGradient>
<linearGradient id="paint1_linear" x1="30.479" y1="32" x2="1.5625" y2="32" gradientUnits="userSpaceOnUse">
<stop offset="0.02" stop-color="#669935"/>
<stop offset="1" stop-color="#335F5E"/>
</linearGradient>
<clipPath id="clip0">
<rect width="32" height="32" fill="white"/>
</clipPath>
</defs>
</svg>
