<svg width="20" height="20" viewBox="0 0 20 20" fill="none" xmlns="http://www.w3.org/2000/svg">
<g clip-path="url(#clip0)">
<path d="M9.99997 0C5.58198 0 2 3.58198 2 7.99997C2 13.9999 9.23994 19.7304 9.23994 19.7304C9.65994 20.0879 10.3439 20.0919 10.76 19.7304C10.76 19.7304 17.9999 13.9999 17.9999 7.99997C17.9999 3.58198 14.4179 0 9.99997 0ZM10.5295 17.2764C10.343 17.4499 10.1655 17.6099 9.99997 17.7549C9.83446 17.6099 9.65746 17.4499 9.47047 17.2764C8.68148 16.5429 7.89197 15.7219 7.1595 14.8384C5.16653 12.4354 4 10.0619 4 7.99993C4 4.68644 6.68649 1.99996 9.99997 1.99996C13.3135 1.99996 15.9999 4.68644 15.9999 7.99993C15.9999 10.0619 14.8329 12.4354 12.8404 14.8384C12.1079 15.7219 11.3185 16.5429 10.5295 17.2764Z" fill="url(#paint0_linear)"/>
<path d="M9.99997 4.00002C7.79099 4.00002 6 5.79101 6 7.99998C6 10.209 7.79099 11.9999 9.99997 11.9999C12.209 11.9999 13.9999 10.209 13.9999 7.99998C13.9999 5.79101 12.209 4.00002 9.99997 4.00002ZM9.99997 9.99998C8.89546 9.99998 7.99996 9.10449 7.99996 7.99998C7.99996 6.89547 8.89546 5.99997 9.99997 5.99997C11.1045 5.99997 12 6.89547 12 7.99998C11.9999 9.10449 11.1044 9.99998 9.99997 9.99998Z" fill="url(#paint1_linear)"/>
</g>
<defs>
<linearGradient id="paint0_linear" x1="17.9999" y1="20.0001" x2="2" y2="20.0001" gradientUnits="userSpaceOnUse">
<stop offset="0.02" stop-color="#669935"/>
<stop offset="1" stop-color="#335F5E"/>
</linearGradient>
<linearGradient id="paint1_linear" x1="13.9999" y1="11.9999" x2="6" y2="11.9999" gradientUnits="userSpaceOnUse">
<stop offset="0.02" stop-color="#669935"/>
<stop offset="1" stop-color="#335F5E"/>
</linearGradient>
<clipPath id="clip0">
<rect width="20" height="20" fill="white"/>
</clipPath>
</defs>
</svg>
