<svg width="24" height="24" viewBox="0 0 24 24" fill="none" xmlns="http://www.w3.org/2000/svg">
<path d="M16.0443 9.15797H22.2777C22.5489 9.15797 22.8098 9.04336 22.9935 8.84348C23.1773 8.64342 23.2696 8.37356 23.2466 8.10295C23.16 7.08005 22.6969 6.13186 21.9428 5.433C21.7153 5.2223 21.4674 5.03995 21.2039 4.88784C21.7127 4.36889 22.027 3.65756 22.027 2.874C22.027 1.2893 20.7413 0 19.161 0C17.5807 0 16.295 1.2893 16.295 2.87405C16.295 3.65761 16.6093 4.36894 17.1181 4.88789C16.8546 5.04 16.6067 5.22234 16.3793 5.43305C15.6251 6.13186 15.162 7.08009 15.0755 8.103C15.0525 8.37356 15.1448 8.64352 15.3286 8.84353C15.5122 9.04336 15.7731 9.15797 16.0443 9.15797ZM17.7012 2.87405C17.7012 2.0647 18.3561 1.40625 19.161 1.40625C19.9659 1.40625 20.6207 2.0647 20.6207 2.87405C20.6207 3.68344 19.9659 4.34184 19.161 4.34184C18.3561 4.34184 17.7012 3.68339 17.7012 2.87405ZM17.3351 6.46453C17.8337 6.00253 18.4822 5.74809 19.161 5.74809C19.8399 5.74809 20.4883 6.00253 20.9869 6.46453C21.3655 6.8153 21.6326 7.26136 21.7635 7.75172H16.5585C16.6894 7.26136 16.9565 6.81534 17.3351 6.46453Z" fill="url(#paint0_linear)"/>
<path d="M4.43674 9.15797H10.6701C10.9413 9.15797 11.2022 9.04336 11.3859 8.84348C11.5697 8.64342 11.662 8.37356 11.639 8.10295C11.5524 7.08005 11.0893 6.13186 10.3352 5.433C10.1078 5.2223 9.85984 5.03995 9.59636 4.88784C10.1052 4.36884 10.4195 3.65756 10.4195 2.874C10.4195 1.2893 9.1338 0 7.55345 0C5.97311 0 4.68742 1.2893 4.68742 2.87405C4.68742 3.65761 5.00172 4.36894 5.51055 4.88789C5.24706 5.04 4.99914 5.22234 4.77175 5.43305C4.01753 6.13191 3.5545 7.08009 3.46792 8.103C3.445 8.37356 3.53725 8.64347 3.72105 8.84353C3.9047 9.04336 4.16556 9.15797 4.43674 9.15797ZM6.09367 2.87405C6.09367 2.0647 6.74852 1.40625 7.55345 1.40625C8.35839 1.40625 9.01323 2.0647 9.01323 2.87405C9.01323 3.68344 8.35839 4.34184 7.55345 4.34184C6.74852 4.34184 6.09367 3.68339 6.09367 2.87405ZM5.72758 6.46453C6.22619 6.00253 6.87461 5.74809 7.55345 5.74809C8.2323 5.74809 8.88072 6.00253 9.37933 6.46453C9.75794 6.8153 10.0251 7.26136 10.1559 7.75172H4.95095C5.08178 7.26136 5.34892 6.81534 5.72758 6.46453Z" fill="url(#paint1_linear)"/>
<path d="M21.9427 17.1356C21.7152 16.9249 21.4674 16.7426 21.2038 16.5905C21.7126 16.0715 22.0269 15.3602 22.0269 14.5767C22.0269 12.9919 20.7412 11.7026 19.1609 11.7026C17.5806 11.7026 16.2949 12.9919 16.2949 14.5767C16.2949 15.3602 16.6092 16.0715 17.118 16.5905C16.8545 16.7426 16.6066 16.9249 16.3792 17.1356C15.625 17.8344 15.162 18.7827 15.0754 19.8056C15.0525 20.0762 15.1447 20.3462 15.3285 20.5462C15.5122 20.746 15.773 20.8607 16.0442 20.8607H22.2776C22.5488 20.8607 22.8097 20.746 22.9934 20.5462C23.1772 20.3462 23.2695 20.0762 23.2465 19.8056C23.1599 18.7826 22.6969 17.8345 21.9427 17.1356ZM17.7012 14.5767C17.7012 13.7673 18.356 13.1089 19.161 13.1089C19.9659 13.1089 20.6207 13.7673 20.6207 14.5767C20.6207 15.386 19.9659 16.0445 19.161 16.0445C18.356 16.0444 17.7012 15.386 17.7012 14.5767ZM16.5585 19.4544C16.6894 18.964 16.9565 18.5179 17.3351 18.1671C17.8337 17.7051 18.4821 17.4507 19.161 17.4507C19.8398 17.4507 20.4882 17.7051 20.9868 18.1671C21.3655 18.5179 21.6326 18.964 21.7634 19.4544H16.5585Z" fill="url(#paint2_linear)"/>
<path d="M7.55351 10.5693C4.1471 10.5693 1.37581 13.3409 1.37581 16.7477C1.37581 18.3124 1.96043 19.7431 2.92273 20.8328L0.955948 22.7998C0.681401 23.0744 0.681448 23.5197 0.955995 23.7943C1.09329 23.9315 1.2732 24.0001 1.45315 24.0001C1.6331 24.0001 1.8131 23.9314 1.95035 23.7941L3.96804 21.7762C4.9797 22.4997 6.21776 22.9259 7.55351 22.9259C10.9599 22.9259 13.7312 20.1543 13.7312 16.7476C13.7312 13.3408 10.9599 10.5693 7.55351 10.5693ZM7.55351 21.5197C4.92251 21.5197 2.78206 19.3789 2.78206 16.7476C2.78206 14.1163 4.92251 11.9755 7.55351 11.9755C10.1845 11.9755 12.325 14.1163 12.325 16.7476C12.325 19.3789 10.1845 21.5197 7.55351 21.5197Z" fill="url(#paint3_linear)"/>
<path d="M9.51486 14.8444L6.71501 17.6445L5.59212 16.5215C5.31753 16.247 4.87236 16.247 4.59772 16.5215C4.32317 16.796 4.32312 17.2412 4.59767 17.5159L6.21781 19.1362C6.35516 19.2734 6.53511 19.3421 6.71501 19.3421C6.89492 19.3421 7.07492 19.2734 7.21217 19.1362L7.21222 19.1362L10.5093 15.8387C10.7838 15.5641 10.7838 15.1189 10.5092 14.8443C10.2346 14.5698 9.78941 14.5698 9.51486 14.8444Z" fill="url(#paint4_linear)"/>
<defs>
<linearGradient id="paint0_linear" x1="23.25" y1="9.15797" x2="15.072" y2="9.15797" gradientUnits="userSpaceOnUse">
<stop offset="0.02" stop-color="#669935"/>
<stop offset="1" stop-color="#335F5E"/>
</linearGradient>
<linearGradient id="paint1_linear" x1="11.6424" y1="9.15797" x2="3.46448" y2="9.15797" gradientUnits="userSpaceOnUse">
<stop offset="0.02" stop-color="#669935"/>
<stop offset="1" stop-color="#335F5E"/>
</linearGradient>
<linearGradient id="paint2_linear" x1="23.25" y1="20.8607" x2="15.072" y2="20.8607" gradientUnits="userSpaceOnUse">
<stop offset="0.02" stop-color="#669935"/>
<stop offset="1" stop-color="#335F5E"/>
</linearGradient>
<linearGradient id="paint3_linear" x1="13.7312" y1="24.0001" x2="0.750061" y2="24.0001" gradientUnits="userSpaceOnUse">
<stop offset="0.02" stop-color="#669935"/>
<stop offset="1" stop-color="#335F5E"/>
</linearGradient>
<linearGradient id="paint4_linear" x1="10.7152" y1="19.3421" x2="4.39178" y2="19.3421" gradientUnits="userSpaceOnUse">
<stop offset="0.02" stop-color="#669935"/>
<stop offset="1" stop-color="#335F5E"/>
</linearGradient>
</defs>
</svg>
