<svg width="64" height="64" viewBox="0 0 64 64" fill="none" xmlns="http://www.w3.org/2000/svg">
<path d="M32 0C14.3552 0 0 14.3552 0 32C0 49.6448 14.3552 64 32 64C49.6448 64 64 49.6448 64 32C64 14.3552 49.6448 0 32 0ZM48.6005 32.8811L25.1339 48.8811C24.9536 49.0037 24.7435 49.0667 24.5333 49.0667C24.3627 49.0667 24.1909 49.0261 24.0352 48.9429C23.6853 48.7584 23.4667 48.3957 23.4667 48V16C23.4667 15.6043 23.6853 15.2416 24.0352 15.0571C24.3851 14.8715 24.8075 14.8971 25.1349 15.1189L48.6016 31.1189C48.8917 31.3173 49.0667 31.6469 49.0667 32C49.0667 32.3531 48.8917 32.6827 48.6005 32.8811Z" fill="white"/>
</svg>
