<svg width="24" height="24" viewBox="0 0 24 24" fill="none" xmlns="http://www.w3.org/2000/svg">
<path d="M23.2969 13.1719H22.1719V6.89484C22.1719 6.01373 21.455 5.29688 20.5739 5.29688H17.2969V0.703125C17.2969 0.314812 16.9821 0 16.5938 0H4.59375C4.20544 0 3.89062 0.314812 3.89062 0.703125V5.29688H3.03806C1.36912 5.29688 0 6.60797 0 8.25V21.6463C0 22.9204 1.03195 24 2.31113 24H17.5739C18.455 24 19.1719 23.2832 19.1719 22.402V22.0781H20.5739C21.455 22.0781 22.1719 21.3613 22.1719 20.4802V19.0781H23.2969C23.6852 19.0781 24 18.7633 24 18.375V13.875C24 13.4867 23.6852 13.1719 23.2969 13.1719ZM20.5739 6.70312C20.6796 6.70312 20.7656 6.78909 20.7656 6.89484V13.1719H19.1719V11.3948C19.1719 10.524 18.4661 9.79688 17.5715 9.79688H17.2969V6.70312H20.5739ZM5.29688 1.40625H15.8906V9.79688H14.2969V3.75C14.2969 3.36169 13.9821 3.04688 13.5938 3.04688H7.59375C7.20544 3.04688 6.89062 3.36169 6.89062 3.75V9.79688H5.29688V1.40625ZM10.5938 6.79688C10.2054 6.79688 9.89062 7.11169 9.89062 7.5V9.79688H8.29688V4.45312H12.8906V9.79688H11.2969V7.5C11.2969 7.11169 10.9821 6.79688 10.5938 6.79688ZM1.875 7.16527C2.45222 6.60877 3.07833 6.70312 3.89062 6.70312V9.79688C3.59602 9.79688 3.34477 9.79688 3.03806 9.79688C1.59881 9.79688 0.862969 8.13975 1.875 7.16527ZM17.7656 22.402C17.7656 22.5077 17.6796 22.5938 17.5739 22.5938H2.31113C1.82063 22.5938 1.40625 22.1599 1.40625 21.6463V10.739C2.22248 11.2464 2.91581 11.2031 3.48422 11.2031H17.5739C17.6796 11.2031 17.7656 11.2891 17.7656 11.3948V13.1719H16.071C14.886 13.1719 13.9219 14.1324 13.9219 15.3132V16.9369C13.9219 18.1176 14.886 19.0781 16.071 19.0781H17.7656V22.402ZM20.7656 20.4802C20.7656 20.5859 20.6796 20.6719 20.5739 20.6719H19.1719V19.0781H20.7656V20.4802ZM22.5938 17.6719H16.071C15.6614 17.6719 15.3281 17.3422 15.3281 16.9368V15.3131C15.3281 14.9078 15.6614 14.5781 16.071 14.5781H22.5938V17.6719Z" fill="url(#paint0_linear)"/>
<defs>
<linearGradient id="paint0_linear" x1="24" y1="24" x2="-1.93715e-07" y2="24" gradientUnits="userSpaceOnUse">
<stop offset="0.02" stop-color="#669935"/>
<stop offset="1" stop-color="#335F5E"/>
</linearGradient>
</defs>
</svg>
