<svg width="80" height="50" viewBox="0 0 80 50" fill="none" xmlns="http://www.w3.org/2000/svg">
<path d="M0 0H80V50H0V0Z" fill="#669935"/>
<g clip-path="url(#clip0)">
<path d="M53.7552 24.6353L30.6402 13.0461C30.5462 12.9991 30.4385 12.988 30.3362 13.0129C30.1013 13.0709 29.9549 13.3086 30.0129 13.5462L32.3949 23.2786C32.4308 23.425 32.5386 23.5438 32.6823 23.5908L36.7636 24.9918L32.685 26.3928C32.5413 26.4425 32.4336 26.5586 32.4004 26.7051L30.0129 36.4512C29.988 36.5534 29.9991 36.6612 30.0461 36.7524C30.1538 36.9707 30.4191 37.0591 30.6402 36.9514L53.7552 25.4284C53.8408 25.387 53.9099 25.3151 53.9541 25.2322C54.0619 25.0112 53.9735 24.7459 53.7552 24.6353ZM32.7375 33.6824L34.1275 28.001L42.2847 25.2018C42.3483 25.1797 42.4008 25.13 42.4229 25.0637C42.4616 24.9476 42.4008 24.8232 42.2847 24.7818L34.1275 21.9853L32.7431 16.3261L50.0966 25.0277L32.7375 33.6824Z" fill="white"/>
</g>
<defs>
<clipPath id="clip0">
<rect width="24" height="24" fill="white" transform="translate(30 13)"/>
</clipPath>
</defs>
</svg>
