<svg width="24" height="24" viewBox="0 0 24 24" fill="none" xmlns="http://www.w3.org/2000/svg">
<g clip-path="url(#clip0)">
<path d="M23.7552 11.6353L0.640182 0.0460726C0.54623 -0.000903448 0.438461 -0.0119566 0.336219 0.0129131C0.101339 0.0709424 -0.0451162 0.308586 0.0129131 0.546229L2.39488 10.2786C2.4308 10.425 2.53857 10.5438 2.68226 10.5908L6.76365 11.9918L2.68502 13.3928C2.54133 13.4425 2.43356 13.5586 2.4004 13.7051L0.0129131 23.4512C-0.0119566 23.5534 -0.000903297 23.6612 0.0460728 23.7524C0.153841 23.9707 0.419118 24.0591 0.640182 23.9514L23.7552 12.4284C23.8408 12.387 23.9099 12.3151 23.9541 12.2322C24.0619 12.0112 23.9735 11.7459 23.7552 11.6353ZM2.73752 20.6824L4.12746 15.001L12.2847 12.2018C12.3483 12.1797 12.4008 12.13 12.4229 12.0637C12.4616 11.9476 12.4008 11.8232 12.2847 11.7818L4.12746 8.98534L2.74305 3.32611L20.0966 12.0277L2.73752 20.6824Z" fill="white"/>
</g>
<defs>
<clipPath id="clip0">
<rect width="24" height="24" fill="white"/>
</clipPath>
</defs>
</svg>
