<svg width="24" height="24" viewBox="0 0 24 24" fill="none" xmlns="http://www.w3.org/2000/svg">
<g clip-path="url(#clip0)">
<path d="M10.5938 5.625C10.9821 5.625 11.2969 5.31024 11.2969 4.92188C11.2969 4.53424 11.6124 4.21875 12 4.21875C12.3884 4.21875 12.7031 3.90399 12.7031 3.51562C12.7031 3.12726 12.3884 2.8125 12 2.8125C10.8369 2.8125 9.89062 3.75879 9.89062 4.92188C9.89062 5.31024 10.2054 5.625 10.5938 5.625Z" fill="url(#paint0_linear)"/>
<path d="M20.4844 4.21875H16.8715C16.5291 1.83673 14.4752 0 12 0C9.52478 0 7.47089 1.83673 7.12848 4.21875H3.51562C1.57709 4.21875 0 5.79584 0 7.73438V20.4844C0 22.4229 1.57709 24 3.51562 24H20.4844C22.4229 24 24 22.4229 24 20.4844V7.73438C24 5.79584 22.4229 4.21875 20.4844 4.21875ZM12 1.40625C13.9385 1.40625 15.5156 2.98334 15.5156 4.92188C15.5156 6.86041 13.9385 8.4375 12 8.4375C10.0615 8.4375 8.48438 6.86041 8.48438 4.92188C8.48438 2.98334 10.0615 1.40625 12 1.40625ZM12 18.375C12.3876 18.375 12.7031 18.6905 12.7031 19.0781C12.7031 19.4658 12.3876 19.7812 12 19.7812C11.6124 19.7812 11.2969 19.4658 11.2969 19.0781C11.2969 18.6905 11.6124 18.375 12 18.375ZM12.7031 13.6463C12.7031 14.0339 12.3876 14.3494 12 14.3494C11.6124 14.3494 11.2969 14.0339 11.2969 13.6463V9.7934C11.5267 9.82635 11.7612 9.84375 12 9.84375C12.2388 9.84375 12.4733 9.82635 12.7031 9.7934V13.6463ZM22.5938 20.4844C22.5938 21.6475 21.6475 22.5938 20.4844 22.5938H3.51562C2.35254 22.5938 1.40625 21.6475 1.40625 20.4844V7.73438C1.40625 6.57129 2.35254 5.625 3.51562 5.625H7.12848C7.36652 7.28101 8.43164 8.67316 9.89062 9.36823V13.6463C9.89062 13.8054 9.90894 13.9601 9.94244 14.1094H5.625V11.1292C6.44348 10.8387 7.03125 10.0573 7.03125 9.14062C7.03125 7.97754 6.08496 7.03125 4.92188 7.03125C3.75879 7.03125 2.8125 7.97754 2.8125 9.14062C2.8125 10.0573 3.40027 10.8387 4.21875 11.1292V17.0896C3.40027 17.38 2.8125 18.1615 2.8125 19.0781C2.8125 20.2412 3.75879 21.1875 4.92188 21.1875C6.08496 21.1875 7.03125 20.2412 7.03125 19.0781C7.03125 18.1615 6.44348 17.38 5.625 17.0896V15.5156H11.0244C11.1119 15.5614 11.2028 15.6013 11.2969 15.6346V17.0896C10.4784 17.38 9.89062 18.1615 9.89062 19.0781C9.89062 20.2412 10.8369 21.1875 12 21.1875C13.1631 21.1875 14.1094 20.2412 14.1094 19.0781C14.1094 18.1615 13.5216 17.38 12.7031 17.0896V15.6346C12.7972 15.6013 12.8881 15.5614 12.9756 15.5156H18.375V20.4844C18.375 20.8727 18.6898 21.1875 19.0781 21.1875C19.4665 21.1875 19.7812 20.8727 19.7812 20.4844V11.1292C20.5997 10.8387 21.1875 10.0573 21.1875 9.14062C21.1875 7.97754 20.2412 7.03125 19.0781 7.03125C17.915 7.03125 16.9688 7.97754 16.9688 9.14062C16.9688 10.0573 17.5565 10.8387 18.375 11.1292V14.1094H14.0576C14.0911 13.9601 14.1094 13.8054 14.1094 13.6463V9.36823C15.5684 8.67316 16.6335 7.28101 16.8715 5.625H20.4844C21.6475 5.625 22.5938 6.57129 22.5938 7.73438V20.4844ZM4.92188 9.84375C4.53424 9.84375 4.21875 9.52826 4.21875 9.14062C4.21875 8.75299 4.53424 8.4375 4.92188 8.4375C5.30951 8.4375 5.625 8.75299 5.625 9.14062C5.625 9.52826 5.30951 9.84375 4.92188 9.84375ZM4.92133 18.375H4.92188H4.92242C5.30988 18.3752 5.625 18.6905 5.625 19.0781C5.625 19.4658 5.30951 19.7812 4.92188 19.7812C4.53424 19.7812 4.21875 19.4658 4.21875 19.0781C4.21875 18.6905 4.53387 18.3754 4.92133 18.375ZM19.0781 9.84375C18.6905 9.84375 18.375 9.52826 18.375 9.14062C18.375 8.75299 18.6905 8.4375 19.0781 8.4375C19.4658 8.4375 19.7812 8.75299 19.7812 9.14062C19.7812 9.52826 19.4658 9.84375 19.0781 9.84375Z" fill="url(#paint1_linear)"/>
<g clip-path="url(#clip1)">
<path d="M-122.747 13.9037L-58.7467 35.237L-45.2533 -5.23765L-62.9893 -11.1497C-47.6373 -27.1923 -20.7493 -49.0003 12 -49.0003C44.7493 -49.0003 71.6507 -27.1817 86.992 -11.1523L69.2533 -5.23765L82.7467 35.237L146.747 13.9037C150.994 12.4877 154.688 9.77138 157.306 6.13931C159.924 2.50723 161.333 -1.85643 161.333 -6.33366V-70.3337H118.667V-39.8003C98.1067 -61.507 60.7707 -91.667 12 -91.667C-36.7707 -91.667 -74.1067 -61.507 -94.6667 -39.8003V-70.3337H-137.333V-6.33366C-137.333 -1.85643 -135.924 2.50723 -133.306 6.13931C-130.688 9.77138 -126.994 12.4877 -122.747 13.9037Z" fill="black"/>
</g>
</g>
<defs>
<linearGradient id="paint0_linear" x1="12.7031" y1="5.625" x2="9.89062" y2="5.625" gradientUnits="userSpaceOnUse">
<stop offset="0.02" stop-color="#669935"/>
<stop offset="1" stop-color="#335F5E"/>
</linearGradient>
<linearGradient id="paint1_linear" x1="24" y1="24" x2="-1.93715e-07" y2="24" gradientUnits="userSpaceOnUse">
<stop offset="0.02" stop-color="#669935"/>
<stop offset="1" stop-color="#335F5E"/>
</linearGradient>
<clipPath id="clip0">
<rect width="24" height="24" fill="white"/>
</clipPath>
<clipPath id="clip1">
<rect width="512" height="512" fill="white" transform="translate(-244 -241)"/>
</clipPath>
</defs>
</svg>
