<svg width="48" height="48" viewBox="0 0 48 48" fill="none" xmlns="http://www.w3.org/2000/svg">
<path d="M23.9999 21.75C21.7749 21.75 19.5998 22.4098 17.7498 23.646C15.8997 24.8821 14.4578 26.6391 13.6063 28.6948C12.7548 30.7505 12.532 33.0125 12.9661 35.1948C13.4002 37.3771 14.4717 39.3816 16.045 40.955C17.6183 42.5283 19.6229 43.5998 21.8052 44.0338C23.9875 44.4679 26.2495 44.2451 28.3051 43.3936C30.3608 42.5422 32.1178 41.1002 33.354 39.2502C34.5901 37.4001 35.2499 35.225 35.2499 33C35.2499 30.0163 34.0647 27.1548 31.9549 25.045C29.8451 22.9353 26.9836 21.75 23.9999 21.75ZM31.4549 26.73L27.7049 30.48C27.392 30.0006 26.9928 29.5835 26.5274 29.25L30.2774 25.5C30.7048 25.8752 31.0988 26.2867 31.4549 26.73ZM32.3399 27.975C32.8595 28.8363 33.244 29.7722 33.4799 30.75H29.5574L32.3399 27.975ZM23.9999 36C23.4066 36 22.8266 35.8241 22.3332 35.4944C21.8399 35.1648 21.4554 34.6962 21.2283 34.1481C21.0012 33.5999 20.9418 32.9967 21.0576 32.4147C21.1733 31.8328 21.4591 31.2982 21.8786 30.8787C22.2982 30.4591 22.8327 30.1734 23.4147 30.0576C23.9966 29.9419 24.5998 30.0013 25.148 30.2284C25.6962 30.4554 26.1647 30.8399 26.4943 31.3333C26.824 31.8266 26.9999 32.4067 26.9999 33C26.9999 33.7957 26.6839 34.5587 26.1213 35.1213C25.5586 35.6839 24.7956 36 23.9999 36ZM29.0249 24.66L25.0574 28.6275C24.3627 28.4574 23.6372 28.4574 22.9424 28.6275L18.9749 24.66C20.4889 23.7379 22.2273 23.2502 23.9999 23.2502C25.7726 23.2502 27.511 23.7379 29.0249 24.66ZM17.7299 25.545L21.4799 29.295C21.0005 29.6079 20.5834 30.0072 20.2499 30.4725L16.4999 26.7225C16.8751 26.2951 17.2866 25.9012 17.7299 25.545ZM18.4424 30.75H14.5199C14.7559 29.7722 15.1403 28.8363 15.6599 27.975L18.4424 30.75ZM14.2874 32.25H19.5374C19.5061 32.4987 19.4935 32.7494 19.4999 33C19.4998 33.3563 19.5427 33.7114 19.6274 34.0575L15.6599 38.025C14.742 36.5093 14.2546 34.772 14.2499 33C14.2499 32.745 14.2499 32.4975 14.2874 32.25ZM16.5374 39.27L20.2874 35.52C20.6026 36.0001 21.0044 36.4172 21.4724 36.75L17.7224 40.5C17.2951 40.1248 16.9011 39.7133 16.5449 39.27H16.5374ZM18.9674 41.34L22.9349 37.3725C23.6297 37.5426 24.3552 37.5426 25.0499 37.3725L29.0174 41.34C27.5035 42.2621 25.7651 42.7499 23.9924 42.7499C22.2198 42.7499 20.4814 42.2621 18.9674 41.34ZM30.2624 40.455L26.5124 36.705C26.9945 36.3928 27.4142 35.9935 27.7499 35.5275L31.4999 39.2775C31.1248 39.7049 30.7132 40.0988 30.2699 40.455H30.2624ZM32.3324 38.025L28.3649 34.0575C28.4522 33.7117 28.4976 33.3566 28.4999 33C28.4964 32.7487 28.4738 32.4979 28.4324 32.25H33.6824C33.6824 32.4975 33.6824 32.745 33.6824 33C33.6982 34.7657 33.2342 36.5025 32.3399 38.025H32.3324Z" fill="url(#paint0_linear)"/>
<path d="M46.5 0.75H1.5C1.30109 0.75 1.11032 0.829018 0.96967 0.96967C0.829018 1.11032 0.75 1.30109 0.75 1.5V31.5C0.75 31.6989 0.829018 31.8897 0.96967 32.0303C1.11032 32.171 1.30109 32.25 1.5 32.25H9.7875C9.7875 32.4975 9.75 32.745 9.75 33C9.75 36.7793 11.2513 40.4039 13.9237 43.0763C16.5961 45.7487 20.2207 47.25 24 47.25C27.7793 47.25 31.4039 45.7487 34.0763 43.0763C36.7487 40.4039 38.25 36.7793 38.25 33C38.25 32.745 38.25 32.4975 38.25 32.25H46.5C46.6989 32.25 46.8897 32.171 47.0303 32.0303C47.171 31.8897 47.25 31.6989 47.25 31.5V1.5C47.25 1.30109 47.171 1.11032 47.0303 0.96967C46.8897 0.829018 46.6989 0.75 46.5 0.75ZM5.25 27.75V5.25H12.54L6.915 27.75H5.25ZM14.085 5.25H15.54L9.915 27.75H8.46L14.085 5.25ZM41.085 27.75L35.46 5.25H42.75V27.75H41.085ZM33.915 5.25L39.54 27.75H38.085L32.46 5.25H33.915ZM30.915 5.25L35.895 25.17C34.8048 23.5222 33.3849 22.1182 31.7248 21.0468C30.0647 19.9754 28.2006 19.2597 26.25 18.945V15C26.25 14.8011 26.171 14.6103 26.0303 14.4697C25.8897 14.329 25.6989 14.25 25.5 14.25H22.5C22.3011 14.25 22.1103 14.329 21.9697 14.4697C21.829 14.6103 21.75 14.8011 21.75 15V18.945C19.7994 19.2597 17.9353 19.9754 16.2752 21.0468C14.6151 22.1182 13.1952 23.5222 12.105 25.17L17.085 5.25H30.915ZM24.75 18.7875C24.5025 18.7875 24.255 18.75 24 18.75C23.745 18.75 23.4975 18.75 23.25 18.7875V15.75H24.75V18.7875ZM24 45.75C21.4783 45.75 19.0132 45.0022 16.9165 43.6012C14.8198 42.2002 13.1856 40.209 12.2205 37.8792C11.2555 35.5495 11.003 32.9859 11.495 30.5126C11.9869 28.0393 13.2013 25.7675 14.9844 23.9844C16.7675 22.2013 19.0393 20.9869 21.5126 20.495C23.9859 20.003 26.5495 20.2555 28.8792 21.2205C31.209 22.1856 33.2002 23.8198 34.6012 25.9165C36.0022 28.0132 36.75 30.4783 36.75 33C36.75 36.3815 35.4067 39.6245 33.0156 42.0156C30.6245 44.4067 27.3815 45.75 24 45.75ZM45.75 30.75H38.055C37.975 30.2445 37.8673 29.7437 37.7325 29.25H43.5C43.6989 29.25 43.8897 29.171 44.0303 29.0303C44.171 28.8897 44.25 28.6989 44.25 28.5V4.5C44.25 4.30109 44.171 4.11032 44.0303 3.96967C43.8897 3.82902 43.6989 3.75 43.5 3.75H4.5C4.30109 3.75 4.11032 3.82902 3.96967 3.96967C3.82902 4.11032 3.75 4.30109 3.75 4.5V28.5C3.75 28.6989 3.82902 28.8897 3.96967 29.0303C4.11032 29.171 4.30109 29.25 4.5 29.25H10.2675C10.1327 29.7437 10.025 30.2445 9.945 30.75H2.25V2.25H45.75V30.75Z" fill="url(#paint1_linear)"/>
<path d="M22.5 12.75H25.5C25.6989 12.75 25.8897 12.671 26.0303 12.5303C26.171 12.3897 26.25 12.1989 26.25 12V7.5C26.25 7.30109 26.171 7.11032 26.0303 6.96967C25.8897 6.82902 25.6989 6.75 25.5 6.75H22.5C22.3011 6.75 22.1103 6.82902 21.9697 6.96967C21.829 7.11032 21.75 7.30109 21.75 7.5V12C21.75 12.1989 21.829 12.3897 21.9697 12.5303C22.1103 12.671 22.3011 12.75 22.5 12.75ZM23.25 8.25H24.75V11.25H23.25V8.25Z" fill="url(#paint2_linear)"/>
<defs>
<linearGradient id="paint0_linear" x1="35.2499" y1="44.25" x2="12.7499" y2="44.25" gradientUnits="userSpaceOnUse">
<stop offset="0.02" stop-color="#669935"/>
<stop offset="1" stop-color="#335F5E"/>
</linearGradient>
<linearGradient id="paint1_linear" x1="47.25" y1="47.25" x2="0.75" y2="47.25" gradientUnits="userSpaceOnUse">
<stop offset="0.02" stop-color="#669935"/>
<stop offset="1" stop-color="#335F5E"/>
</linearGradient>
<linearGradient id="paint2_linear" x1="26.25" y1="12.75" x2="21.75" y2="12.75" gradientUnits="userSpaceOnUse">
<stop offset="0.02" stop-color="#669935"/>
<stop offset="1" stop-color="#335F5E"/>
</linearGradient>
</defs>
</svg>
