<svg width="48" height="48" viewBox="0 0 48 48" fill="none" xmlns="http://www.w3.org/2000/svg">
<path d="M46.5 21.75H28.5C28.3011 21.75 28.1103 21.829 27.9697 21.9697C27.829 22.1103 27.75 22.3011 27.75 22.5V25.2075C26.3808 24.4199 24.8296 24.0037 23.25 24H21V22.5C22.477 21.4031 23.4993 19.8015 23.8725 18H24C24.5737 17.9968 25.1345 17.8291 25.6158 17.5169C26.0971 17.2046 26.4788 16.7609 26.7157 16.2383C26.9525 15.7158 27.0345 15.1362 26.952 14.5685C26.8694 14.0007 26.6258 13.4685 26.25 13.035V10.5C26.25 7.91414 25.2228 5.43419 23.3943 3.60571C21.5658 1.77723 19.0859 0.75 16.5 0.75C13.9141 0.75 11.4342 1.77723 9.60571 3.60571C7.77723 5.43419 6.75 7.91414 6.75 10.5V13.035C6.3742 13.4685 6.13059 14.0007 6.04805 14.5685C5.96551 15.1362 6.04752 15.7158 6.28433 16.2383C6.52115 16.7609 6.90285 17.2046 7.38418 17.5169C7.86551 17.8291 8.42628 17.9968 9 18H9.15C9.5174 19.7982 10.5314 21.3992 12 22.5V24H9.75C7.36305 24 5.07387 24.9482 3.38604 26.636C1.69821 28.3239 0.75 30.6131 0.75 33V46.5C0.75 46.6989 0.829018 46.8897 0.96967 47.0303C1.11032 47.171 1.30109 47.25 1.5 47.25H28.5L27.9697 45.75H20.1375L18 33.12L18.9075 31.305L20.6325 32.1675C20.746 32.2258 20.8725 32.2542 21 32.25C21.1572 32.2504 21.3106 32.2014 21.4385 32.1099C21.5663 32.0184 21.6622 31.889 21.7125 31.74L23.7825 25.5C25.2218 25.6078 26.5994 26.1287 27.75 27V46.5C27.75 46.6989 27.829 46.8897 27.9697 47.0303C28.1103 47.171 28.3011 47.25 28.5 47.25H46.5C46.6989 47.25 46.8897 47.171 47.0303 47.0303C47.171 46.8897 47.25 46.6989 47.25 46.5V22.5C47.25 22.3011 47.171 22.1103 47.0303 21.9697C46.8897 21.829 46.6989 21.75 46.5 21.75ZM24 16.5V13.5C24.3978 13.5 24.7794 13.658 25.0607 13.9393C25.342 14.2206 25.5 14.6022 25.5 15C25.5 15.3978 25.342 15.7794 25.0607 16.0607C24.7794 16.342 24.3978 16.5 24 16.5ZM7.5 15C7.5 14.6022 7.65804 14.2206 7.93934 13.9393C8.22064 13.658 8.60218 13.5 9 13.5V16.5C8.60218 16.5 8.22064 16.342 7.93934 16.0607C7.65804 15.7794 7.5 15.3978 7.5 15ZM9 12C8.74662 12.0039 8.4947 12.0392 8.25 12.105V10.5C8.25 8.31196 9.11919 6.21354 10.6664 4.66637C12.2135 3.11919 14.312 2.25 16.5 2.25C18.688 2.25 20.7865 3.11919 22.3336 4.66637C23.8808 6.21354 24.75 8.31196 24.75 10.5V12.105C24.5053 12.0392 24.2534 12.0039 24 12C24 11.8011 23.921 11.6103 23.7803 11.4697C23.6397 11.329 23.4489 11.25 23.25 11.25C22.6678 11.25 22.0937 11.1145 21.5729 10.8541C21.0522 10.5937 20.5993 10.2157 20.25 9.75L19.35 8.55C19.2801 8.45685 19.1896 8.38125 19.0854 8.32918C18.9813 8.27711 18.8664 8.25 18.75 8.25C18.6336 8.25 18.5187 8.27711 18.4146 8.32918C18.3104 8.38125 18.2199 8.45685 18.15 8.55L17.25 9.75C16.9007 10.2157 16.4478 10.5937 15.9271 10.8541C15.4063 11.1145 14.8322 11.25 14.25 11.25H9.75C9.55109 11.25 9.36032 11.329 9.21967 11.4697C9.07902 11.6103 9 11.8011 9 12ZM10.5 16.5V12.75H14.25C15.065 12.75 15.8689 12.5602 16.5979 12.1957C17.3269 11.8312 17.961 11.302 18.45 10.65L18.75 10.2525L19.05 10.65C19.8869 11.7586 21.126 12.4939 22.5 12.6975V16.5C22.5 18.0913 21.8679 19.6174 20.7426 20.7426C19.6174 21.8679 18.0913 22.5 16.5 22.5C14.9087 22.5 13.3826 21.8679 12.2574 20.7426C11.1321 19.6174 10.5 18.0913 10.5 16.5ZM16.5 24C17.5329 24.0005 18.5546 23.786 19.5 23.37V24.48L16.5 28.08L13.5 24.48V23.37C14.4454 23.786 15.4671 24.0005 16.5 24ZM12.435 30.4425L10.7925 25.5H12.3975L15.315 29.0025L12.435 30.4425ZM2.25 33C2.2452 31.0998 2.96187 29.2686 4.2552 27.8764C5.54852 26.4843 7.32208 25.6349 9.2175 25.5L11.2875 31.71C11.3326 31.8646 11.4262 32.0005 11.5545 32.0978C11.6828 32.195 11.839 32.2484 12 32.25C12.1174 32.2493 12.233 32.221 12.3375 32.1675L14.0625 31.305L15 33.12L12.8625 45.75H6.75V35.25H5.25V45.75H2.25V33ZM14.385 45.75L16.3875 33.75H16.6125L18.615 45.75H14.385ZM16.785 32.25H16.215L15.405 30.6375L16.5 30.09L17.595 30.6375L16.785 32.25ZM20.535 30.4425L17.655 29.0025L20.6025 25.5H22.2075L20.535 30.4425ZM33.75 23.25H41.25V24.75H33.75V23.25ZM45.75 45.75H29.25V23.25H32.25V25.5C32.25 25.6989 32.329 25.8897 32.4697 26.0303C32.6103 26.171 32.8011 26.25 33 26.25H42C42.1989 26.25 42.3897 26.171 42.5303 26.0303C42.671 25.8897 42.75 25.6989 42.75 25.5V23.25H45.75V45.75Z" fill="url(#paint0_linear)"/>
<path d="M34.5 27.75H31.5C31.3011 27.75 31.1103 27.829 30.9697 27.9697C30.829 28.1103 30.75 28.3011 30.75 28.5V31.5C30.75 31.6989 30.829 31.8897 30.9697 32.0303C31.1103 32.171 31.3011 32.25 31.5 32.25H34.5C34.6989 32.25 34.8897 32.171 35.0303 32.0303C35.171 31.8897 35.25 31.6989 35.25 31.5V28.5C35.25 28.3011 35.171 28.1103 35.0303 27.9697C34.8897 27.829 34.6989 27.75 34.5 27.75ZM33.75 30.75H32.25V29.25H33.75V30.75Z" fill="url(#paint1_linear)"/>
<path d="M34.5 33.75H31.5C31.3011 33.75 31.1103 33.829 30.9697 33.9697C30.829 34.1103 30.75 34.3011 30.75 34.5V37.5C30.75 37.6989 30.829 37.8897 30.9697 38.0303C31.1103 38.171 31.3011 38.25 31.5 38.25H34.5C34.6989 38.25 34.8897 38.171 35.0303 38.0303C35.171 37.8897 35.25 37.6989 35.25 37.5V34.5C35.25 34.3011 35.171 34.1103 35.0303 33.9697C34.8897 33.829 34.6989 33.75 34.5 33.75ZM33.75 36.75H32.25V35.25H33.75V36.75Z" fill="url(#paint2_linear)"/>
<path d="M34.5 39.75H31.5C31.3011 39.75 31.1103 39.829 30.9697 39.9697C30.829 40.1103 30.75 40.3011 30.75 40.5V43.5C30.75 43.6989 30.829 43.8897 30.9697 44.0303C31.1103 44.171 31.3011 44.25 31.5 44.25H34.5C34.6989 44.25 34.8897 44.171 35.0303 44.0303C35.171 43.8897 35.25 43.6989 35.25 43.5V40.5C35.25 40.3011 35.171 40.1103 35.0303 39.9697C34.8897 39.829 34.6989 39.75 34.5 39.75ZM33.75 42.75H32.25V41.25H33.75V42.75Z" fill="url(#paint3_linear)"/>
<path d="M36.75 27.75H44.25V29.25H36.75V27.75Z" fill="url(#paint4_linear)"/>
<path d="M36.75 30.75H44.25V32.25H36.75V30.75Z" fill="url(#paint5_linear)"/>
<path d="M36.75 33.75H44.25V35.25H36.75V33.75Z" fill="url(#paint6_linear)"/>
<path d="M36.75 36.75H44.25V38.25H36.75V36.75Z" fill="url(#paint7_linear)"/>
<path d="M36.75 39.75H44.25V41.25H36.75V39.75Z" fill="url(#paint8_linear)"/>
<path d="M36.75 42.75H44.25V44.25H36.75V42.75Z" fill="url(#paint9_linear)"/>
<defs>
<linearGradient id="paint0_linear" x1="47.25" y1="47.25" x2="0.75" y2="47.25" gradientUnits="userSpaceOnUse">
<stop offset="0.02" stop-color="#669935"/>
<stop offset="1" stop-color="#335F5E"/>
</linearGradient>
<linearGradient id="paint1_linear" x1="35.25" y1="32.25" x2="30.75" y2="32.25" gradientUnits="userSpaceOnUse">
<stop offset="0.02" stop-color="#669935"/>
<stop offset="1" stop-color="#335F5E"/>
</linearGradient>
<linearGradient id="paint2_linear" x1="35.25" y1="38.25" x2="30.75" y2="38.25" gradientUnits="userSpaceOnUse">
<stop offset="0.02" stop-color="#669935"/>
<stop offset="1" stop-color="#335F5E"/>
</linearGradient>
<linearGradient id="paint3_linear" x1="35.25" y1="44.25" x2="30.75" y2="44.25" gradientUnits="userSpaceOnUse">
<stop offset="0.02" stop-color="#669935"/>
<stop offset="1" stop-color="#335F5E"/>
</linearGradient>
<linearGradient id="paint4_linear" x1="44.25" y1="29.25" x2="36.75" y2="29.25" gradientUnits="userSpaceOnUse">
<stop offset="0.02" stop-color="#669935"/>
<stop offset="1" stop-color="#335F5E"/>
</linearGradient>
<linearGradient id="paint5_linear" x1="44.25" y1="32.25" x2="36.75" y2="32.25" gradientUnits="userSpaceOnUse">
<stop offset="0.02" stop-color="#669935"/>
<stop offset="1" stop-color="#335F5E"/>
</linearGradient>
<linearGradient id="paint6_linear" x1="44.25" y1="35.25" x2="36.75" y2="35.25" gradientUnits="userSpaceOnUse">
<stop offset="0.02" stop-color="#669935"/>
<stop offset="1" stop-color="#335F5E"/>
</linearGradient>
<linearGradient id="paint7_linear" x1="44.25" y1="38.25" x2="36.75" y2="38.25" gradientUnits="userSpaceOnUse">
<stop offset="0.02" stop-color="#669935"/>
<stop offset="1" stop-color="#335F5E"/>
</linearGradient>
<linearGradient id="paint8_linear" x1="44.25" y1="41.25" x2="36.75" y2="41.25" gradientUnits="userSpaceOnUse">
<stop offset="0.02" stop-color="#669935"/>
<stop offset="1" stop-color="#335F5E"/>
</linearGradient>
<linearGradient id="paint9_linear" x1="44.25" y1="44.25" x2="36.75" y2="44.25" gradientUnits="userSpaceOnUse">
<stop offset="0.02" stop-color="#669935"/>
<stop offset="1" stop-color="#335F5E"/>
</linearGradient>
</defs>
</svg>
