<svg width="48" height="48" viewBox="0 0 48 48" fill="none" xmlns="http://www.w3.org/2000/svg">
<path d="M27.0711 41.2204C26.5106 39.2601 24.9212 37.7938 22.923 37.3951L18.5806 36.5264V36.3228C20.0128 35.4913 21.0797 34.104 21.4884 32.4565C22.9168 32.1816 23.9999 30.9267 23.9999 29.4193V25.5484C23.9999 20.8529 20.1793 17.0322 15.4838 17.0322C10.7883 17.0322 6.96765 20.8529 6.96765 25.5484V29.4193C6.96765 30.9267 8.05075 32.1816 9.47914 32.4573C9.88791 34.1047 10.9548 35.4921 12.387 36.3236V36.5272L8.04533 37.3958C6.04636 37.7953 4.45694 39.2609 3.8972 41.2211L2.8443 44.9032H28.1233L27.0711 41.2204ZM21.6773 30.7525V28.0862C22.138 28.3548 22.4515 28.8487 22.4515 29.4193C22.4515 29.9899 22.138 30.4838 21.6773 30.7525ZM9.29024 30.7525C8.82959 30.4838 8.51604 29.9899 8.51604 29.4193C8.51604 28.8487 8.82959 28.3548 9.29024 28.0862V30.7525ZM8.51604 26.753V25.5484C8.51604 21.7068 11.6422 18.5806 15.4838 18.5806C19.3253 18.5806 22.4515 21.7068 22.4515 25.5484V26.753C21.994 26.4867 21.4698 26.3225 20.9031 26.3225C19.1132 26.3225 17.4301 25.6258 16.1643 24.3607L15.4838 23.6779L14.804 24.36C13.5375 25.6258 11.8544 26.3225 10.0644 26.3225C9.49772 26.3225 8.97359 26.4867 8.51604 26.753ZM10.8386 30.9677V27.8345C12.5628 27.6751 14.1754 26.9853 15.4838 25.8425C16.7922 26.9845 18.4048 27.6751 20.1289 27.8345V30.9677C20.1289 33.5295 18.0456 35.6129 15.4838 35.6129C12.922 35.6129 10.8386 33.5295 10.8386 30.9677ZM17.0322 36.9576V37.1613C17.0322 38.0152 16.3377 38.7096 15.4838 38.7096C14.6298 38.7096 13.9354 38.0152 13.9354 37.1613V36.9576C14.4317 37.0862 14.948 37.1613 15.4838 37.1613C16.0195 37.1613 16.5359 37.0862 17.0322 36.9576ZM22.282 43.3548L21.6541 40.8449L20.1522 41.2196L20.6856 43.3548H10.282L10.8154 41.2196L9.31346 40.8449L8.68559 43.3548H4.89746L5.38598 41.6454C5.78623 40.2449 6.9212 39.1989 8.34882 38.9133L12.5403 38.0748C12.9328 39.3352 14.0964 40.258 15.4838 40.258C16.8711 40.258 18.0348 39.3352 18.4273 38.0748L22.6188 38.9133C24.0464 39.1989 25.1813 40.2464 25.5816 41.6454L26.0701 43.3548H22.282Z" fill="url(#paint0_linear)"/>
<path d="M44.129 9.29032H31.7419V0H16.2581V9.29032H3.87097C1.73652 9.29032 0 11.0268 0 13.1613V44.129C0 46.2635 1.73652 48 3.87097 48H44.129C46.2635 48 48 46.2635 48 44.129V13.1613C48 11.0268 46.2635 9.29032 44.129 9.29032ZM20.9032 1.54839H27.0968V9.29032H28.6452V1.54839H30.1935V13.9355H28.6452V9.29032H27.0968V13.9355H20.9032V1.54839ZM17.8065 1.54839H19.3548V13.9355H17.8065V1.54839ZM46.4516 44.129C46.4516 45.4095 45.4095 46.4516 44.129 46.4516H3.87097C2.59045 46.4516 1.54839 45.4095 1.54839 44.129V13.1613C1.54839 11.8808 2.59045 10.8387 3.87097 10.8387H16.2581V13.9355H14.7097V15.4839H33.2903V13.9355H31.7419V10.8387H44.129C45.4095 10.8387 46.4516 11.8808 46.4516 13.1613V44.129Z" fill="url(#paint1_linear)"/>
<path d="M44.9033 21.6772H27.0968V23.2256H44.9033V21.6772Z" fill="url(#paint2_linear)"/>
<path d="M30.3439 26.3228H27.0968V27.8711H30.3439V26.3228Z" fill="url(#paint3_linear)"/>
<path d="M44.9032 26.3228H30.1935V27.8711H44.9032V26.3228Z" fill="url(#paint4_linear)"/>
<path d="M44.9033 30.9678H27.0968V32.5162H44.9033V30.9678Z" fill="url(#paint5_linear)"/>
<path d="M41.8065 35.6128H27.0968V37.1612H41.8065V35.6128Z" fill="url(#paint6_linear)"/>
<path d="M44.9032 35.6128H41.5001V37.1612H44.9032V35.6128Z" fill="url(#paint7_linear)"/>
<defs>
<linearGradient id="paint0_linear" x1="28.1233" y1="44.9032" x2="2.8443" y2="44.9032" gradientUnits="userSpaceOnUse">
<stop offset="0.02" stop-color="#669935"/>
<stop offset="1" stop-color="#335F5E"/>
</linearGradient>
<linearGradient id="paint1_linear" x1="48" y1="48" x2="-3.8743e-07" y2="48" gradientUnits="userSpaceOnUse">
<stop offset="0.02" stop-color="#669935"/>
<stop offset="1" stop-color="#335F5E"/>
</linearGradient>
<linearGradient id="paint2_linear" x1="44.9033" y1="23.2256" x2="27.0968" y2="23.2256" gradientUnits="userSpaceOnUse">
<stop offset="0.02" stop-color="#669935"/>
<stop offset="1" stop-color="#335F5E"/>
</linearGradient>
<linearGradient id="paint3_linear" x1="30.3439" y1="27.8711" x2="27.0968" y2="27.8711" gradientUnits="userSpaceOnUse">
<stop offset="0.02" stop-color="#669935"/>
<stop offset="1" stop-color="#335F5E"/>
</linearGradient>
<linearGradient id="paint4_linear" x1="44.9032" y1="27.8711" x2="30.1935" y2="27.8711" gradientUnits="userSpaceOnUse">
<stop offset="0.02" stop-color="#669935"/>
<stop offset="1" stop-color="#335F5E"/>
</linearGradient>
<linearGradient id="paint5_linear" x1="44.9033" y1="32.5162" x2="27.0968" y2="32.5162" gradientUnits="userSpaceOnUse">
<stop offset="0.02" stop-color="#669935"/>
<stop offset="1" stop-color="#335F5E"/>
</linearGradient>
<linearGradient id="paint6_linear" x1="41.8065" y1="37.1612" x2="27.0968" y2="37.1612" gradientUnits="userSpaceOnUse">
<stop offset="0.02" stop-color="#669935"/>
<stop offset="1" stop-color="#335F5E"/>
</linearGradient>
<linearGradient id="paint7_linear" x1="44.9032" y1="37.1612" x2="41.5001" y2="37.1612" gradientUnits="userSpaceOnUse">
<stop offset="0.02" stop-color="#669935"/>
<stop offset="1" stop-color="#335F5E"/>
</linearGradient>
</defs>
</svg>
