<svg width="48" height="48" viewBox="0 0 48 48" fill="none" xmlns="http://www.w3.org/2000/svg">
<g clip-path="url(#clip0)">
<path d="M45.4185 11.4101H45.4193L38.6201 4.6141C37.6686 3.70611 36.1715 3.70611 35.2201 4.6141L28.4217 11.4093C27.4828 12.348 27.4826 13.8702 28.4214 14.809C28.4215 14.8091 28.4216 14.8092 28.4217 14.8093L32.9547 19.3424C33.8936 20.2811 33.8938 21.8032 32.955 22.7421C32.9549 22.7422 32.9548 22.7423 32.9547 22.7424L22.7547 32.9408C21.8033 33.8488 20.3062 33.8488 19.3547 32.9408L14.8225 28.4085C13.8837 27.4697 12.3616 27.4695 11.4228 28.4082C11.4227 28.4083 11.4226 28.4084 11.4225 28.4085L4.62245 35.2077C3.68611 36.1477 3.68611 37.6678 4.62245 38.6077L11.4217 45.4069C14.8639 48.849 20.4447 48.849 23.887 45.4069L45.4185 23.8754C48.8606 20.4332 48.8606 14.8524 45.4185 11.4101ZM29.5539 13.6762C29.2411 13.3633 29.2411 12.8561 29.5539 12.5432L36.3531 5.74396C36.6661 5.43115 37.1733 5.43115 37.4862 5.74396L38.0535 6.3105L30.1205 14.2428L29.5539 13.6762ZM5.75632 37.4747C5.44351 37.1617 5.44351 36.6545 5.75632 36.3416L12.5555 29.5416C12.8682 29.2285 13.3757 29.2282 13.6888 29.541C13.689 29.5412 13.6892 29.5414 13.6894 29.5416L14.2559 30.1081L6.32286 38.0412L5.75632 37.4747ZM44.2862 22.7463L44.2861 22.7424L22.7546 44.2739C19.9364 47.0859 15.3737 47.0859 12.5554 44.2739L7.45582 39.1743L15.3889 31.2412L18.2216 34.0738C19.7862 35.6385 22.323 35.6385 23.8877 34.0738L34.0869 23.8754C35.6489 22.3097 35.6489 19.7751 34.0869 18.2093L31.2542 15.3758L39.1873 7.44276L44.2861 12.5472C47.1026 15.3635 47.1027 19.9298 44.2862 22.7463Z" fill="url(#paint0_linear)"/>
<path d="M16.2734 0.801857C10.0832 -1.55883 3.1513 1.54558 0.790611 7.73589C-1.57008 13.9261 1.53434 20.858 7.72464 23.2187C11.8754 24.8016 16.561 23.961 19.9028 21.0341L21.8396 22.9701C22.1526 23.283 22.66 23.2829 22.9729 22.9699C23.123 22.8197 23.2075 22.6159 23.2075 22.4036V16.2847C25.568 10.0944 22.4636 3.16255 16.2734 0.801857ZM21.6617 15.8375C21.6241 15.9319 21.6048 16.0325 21.6048 16.134V20.4692L20.4878 19.3521C20.1749 19.0393 19.6676 19.0393 19.3547 19.3521C15.2864 23.4201 8.69063 23.4198 4.62263 19.3515C2.66941 17.3981 1.572 14.7488 1.5718 11.9864C1.56288 6.23311 6.21966 1.56201 11.9729 1.5532C17.7262 1.54438 22.3973 6.20106 22.4061 11.9543C22.4081 13.2843 22.1554 14.6025 21.6617 15.8375Z" fill="url(#paint1_linear)"/>
<path d="M9.58498 6.37744H4.77705V7.98008H9.58498V6.37744Z" fill="url(#paint2_linear)"/>
<path d="M19.2008 6.37744H11.1876V7.98008H19.2008V6.37744Z" fill="url(#paint3_linear)"/>
<path d="M12.7903 9.58252H4.77705V11.1852H12.7903V9.58252Z" fill="url(#paint4_linear)"/>
<path d="M19.2008 9.58252H14.3929V11.1852H19.2008V9.58252Z" fill="url(#paint5_linear)"/>
<path d="M8.78366 12.7876H4.77705V14.3903H8.78366V12.7876Z" fill="url(#paint6_linear)"/>
<path d="M19.2008 12.7876H10.3863V14.3903H19.2008V12.7876Z" fill="url(#paint7_linear)"/>
<path d="M19.2008 15.9932H4.77705V17.5958H19.2008V15.9932Z" fill="url(#paint8_linear)"/>
</g>
<defs>
<linearGradient id="paint0_linear" x1="48" y1="47.9885" x2="3.9202" y2="47.9885" gradientUnits="userSpaceOnUse">
<stop offset="0.02" stop-color="#669935"/>
<stop offset="1" stop-color="#335F5E"/>
</linearGradient>
<linearGradient id="paint1_linear" x1="23.998" y1="24.0063" x2="-1.54525e-05" y2="24.0063" gradientUnits="userSpaceOnUse">
<stop offset="0.02" stop-color="#669935"/>
<stop offset="1" stop-color="#335F5E"/>
</linearGradient>
<linearGradient id="paint2_linear" x1="9.58498" y1="7.98008" x2="4.77705" y2="7.98008" gradientUnits="userSpaceOnUse">
<stop offset="0.02" stop-color="#669935"/>
<stop offset="1" stop-color="#335F5E"/>
</linearGradient>
<linearGradient id="paint3_linear" x1="19.2008" y1="7.98008" x2="11.1876" y2="7.98008" gradientUnits="userSpaceOnUse">
<stop offset="0.02" stop-color="#669935"/>
<stop offset="1" stop-color="#335F5E"/>
</linearGradient>
<linearGradient id="paint4_linear" x1="12.7903" y1="11.1852" x2="4.77705" y2="11.1852" gradientUnits="userSpaceOnUse">
<stop offset="0.02" stop-color="#669935"/>
<stop offset="1" stop-color="#335F5E"/>
</linearGradient>
<linearGradient id="paint5_linear" x1="19.2008" y1="11.1852" x2="14.3929" y2="11.1852" gradientUnits="userSpaceOnUse">
<stop offset="0.02" stop-color="#669935"/>
<stop offset="1" stop-color="#335F5E"/>
</linearGradient>
<linearGradient id="paint6_linear" x1="8.78366" y1="14.3903" x2="4.77705" y2="14.3903" gradientUnits="userSpaceOnUse">
<stop offset="0.02" stop-color="#669935"/>
<stop offset="1" stop-color="#335F5E"/>
</linearGradient>
<linearGradient id="paint7_linear" x1="19.2008" y1="14.3903" x2="10.3863" y2="14.3903" gradientUnits="userSpaceOnUse">
<stop offset="0.02" stop-color="#669935"/>
<stop offset="1" stop-color="#335F5E"/>
</linearGradient>
<linearGradient id="paint8_linear" x1="19.2008" y1="17.5958" x2="4.77705" y2="17.5958" gradientUnits="userSpaceOnUse">
<stop offset="0.02" stop-color="#669935"/>
<stop offset="1" stop-color="#335F5E"/>
</linearGradient>
<clipPath id="clip0">
<rect width="48" height="48" fill="white"/>
</clipPath>
</defs>
</svg>
