<svg width="48" height="48" viewBox="0 0 48 48" fill="none" xmlns="http://www.w3.org/2000/svg">
<path d="M46.5 39.75H45.75V35.5575C45.7459 34.0698 45.3157 32.6145 44.5102 31.3637C43.7047 30.1129 42.5577 29.1191 41.205 28.5L41.0475 27.75H42.75C43.3467 27.75 43.919 27.5129 44.341 27.091C44.7629 26.669 45 26.0967 45 25.5V24C45 23.4033 44.7629 22.831 44.341 22.409C43.919 21.9871 43.3467 21.75 42.75 21.75H39.75L39 18.3825C38.7389 17.2161 38.0904 16.1726 37.1601 15.4221C36.2298 14.6716 35.0727 14.2584 33.8775 14.25H14.1225C12.9273 14.2584 11.7702 14.6716 10.8399 15.4221C9.90962 16.1726 9.26106 17.2161 9 18.3825L8.25 21.75H5.25C4.65326 21.75 4.08097 21.9871 3.65901 22.409C3.23705 22.831 3 23.4033 3 24V25.5C3 26.0967 3.23705 26.669 3.65901 27.091C4.08097 27.5129 4.65326 27.75 5.25 27.75H6.9525L6.795 28.5C5.44227 29.1191 4.29527 30.1129 3.48979 31.3637C2.6843 32.6145 2.25406 34.0698 2.25 35.5575V39.75H1.5C1.30109 39.75 1.11032 39.829 0.96967 39.9697C0.829018 40.1103 0.75 40.3011 0.75 40.5V43.5C0.75 43.6989 0.829018 43.8897 0.96967 44.0303C1.11032 44.171 1.30109 44.25 1.5 44.25H5.25V45C5.25 45.5967 5.48705 46.169 5.90901 46.591C6.33097 47.0129 6.90326 47.25 7.5 47.25H13.5C14.0967 47.25 14.669 47.0129 15.091 46.591C15.5129 46.169 15.75 45.5967 15.75 45V44.25H32.25V45C32.25 45.5967 32.4871 46.169 32.909 46.591C33.331 47.0129 33.9033 47.25 34.5 47.25H40.5C41.0967 47.25 41.669 47.0129 42.091 46.591C42.5129 46.169 42.75 45.5967 42.75 45V44.25H46.5C46.6989 44.25 46.8897 44.171 47.0303 44.0303C47.171 43.8897 47.25 43.6989 47.25 43.5V40.5C47.25 40.3011 47.171 40.1103 47.0303 39.9697C46.8897 39.829 46.6989 39.75 46.5 39.75ZM42.75 23.25C42.9489 23.25 43.1397 23.329 43.2803 23.4697C43.421 23.6103 43.5 23.8011 43.5 24V25.5C43.5 25.6989 43.421 25.8897 43.2803 26.0303C43.1397 26.171 42.9489 26.25 42.75 26.25H40.7175L40.065 23.25H42.75ZM14.1225 15.75H33.8775C34.4597 15.75 35.0338 15.8855 35.5546 16.1459C36.0753 16.4063 36.5282 16.7843 36.8775 17.25H11.145C11.492 16.7873 11.9414 16.4111 12.4579 16.1509C12.9744 15.8907 13.5441 15.7535 14.1225 15.75ZM5.25 26.25C5.05109 26.25 4.86032 26.171 4.71967 26.0303C4.57902 25.8897 4.5 25.6989 4.5 25.5V24C4.5 23.8011 4.57902 23.6103 4.71967 23.4697C4.86032 23.329 5.05109 23.25 5.25 23.25H7.935L7.2825 26.25H5.25ZM10.4475 18.75H37.5525L39.5475 27.9225C39.0201 27.8083 38.4821 27.7505 37.9425 27.75H10.0575C9.5179 27.7505 8.97988 27.8083 8.4525 27.9225L10.4475 18.75ZM3.75 35.5575C3.74901 34.7289 3.91149 33.9083 4.22812 33.1426C4.54475 32.3769 5.00932 31.6811 5.59522 31.0952C6.18112 30.5093 6.87685 30.0448 7.64256 29.7281C8.40826 29.4115 9.22891 29.249 10.0575 29.25H37.9425C38.7711 29.249 39.5917 29.4115 40.3574 29.7281C41.1231 30.0448 41.8189 30.5093 42.4048 31.0952C42.9907 31.6811 43.4552 32.3769 43.7719 33.1426C44.0885 33.9083 44.251 34.7289 44.25 35.5575V39.75H30.75V33C30.75 32.4033 30.5129 31.831 30.091 31.409C29.669 30.9871 29.0967 30.75 28.5 30.75H19.5C18.9033 30.75 18.331 30.9871 17.909 31.409C17.4871 31.831 17.25 32.4033 17.25 33V39.75H3.75V35.5575ZM29.25 33.75H18.75V33C18.75 32.8011 18.829 32.6103 18.9697 32.4697C19.1103 32.329 19.3011 32.25 19.5 32.25H28.5C28.6989 32.25 28.8897 32.329 29.0303 32.4697C29.171 32.6103 29.25 32.8011 29.25 33V33.75ZM18.75 35.25H29.25V36.75H18.75V35.25ZM18.75 38.25H29.25V39.75H18.75V38.25ZM14.25 45C14.25 45.1989 14.171 45.3897 14.0303 45.5303C13.8897 45.671 13.6989 45.75 13.5 45.75H7.5C7.30109 45.75 7.11032 45.671 6.96967 45.5303C6.82902 45.3897 6.75 45.1989 6.75 45V44.25H14.25V45ZM41.25 45C41.25 45.1989 41.171 45.3897 41.0303 45.5303C40.8897 45.671 40.6989 45.75 40.5 45.75H34.5C34.3011 45.75 34.1103 45.671 33.9697 45.5303C33.829 45.3897 33.75 45.1989 33.75 45V44.25H41.25V45ZM45.75 42.75H2.25V41.25H45.75V42.75Z" fill="url(#paint0_linear)"/>
<path d="M10.5 31.5C7.56 31.5 5.25 33 5.25 34.875C5.25 36.75 7.56 38.25 10.5 38.25C13.44 38.25 15.75 36.75 15.75 34.875C15.75 33 13.44 31.5 10.5 31.5ZM10.5 36.75C8.2875 36.75 6.75 35.76 6.75 34.875C6.75 33.99 8.2875 33 10.5 33C12.7125 33 14.25 33.99 14.25 34.875C14.25 35.76 12.75 36.75 10.5 36.75Z" fill="url(#paint1_linear)"/>
<path d="M37.5 38.25C40.44 38.25 42.75 36.75 42.75 34.875C42.75 33 40.44 31.5 37.5 31.5C34.56 31.5 32.25 33 32.25 34.875C32.25 36.75 34.56 38.25 37.5 38.25ZM37.5 33C39.75 33 41.25 33.99 41.25 34.875C41.25 35.76 39.75 36.75 37.5 36.75C35.25 36.75 33.75 35.76 33.75 34.875C33.75 33.99 35.2875 33 37.5 33Z" fill="url(#paint2_linear)"/>
<path d="M12.555 5.25007L15.75 6.07507V9.75007C15.7429 9.91646 15.7913 10.0805 15.8878 10.2163C15.9842 10.3521 16.123 10.4519 16.2825 10.5001L23.7825 12.7501C23.9247 12.7901 24.0752 12.7901 24.2175 12.7501L31.7175 10.5001C31.8769 10.4519 32.0158 10.3521 32.1122 10.2163C32.2086 10.0805 32.2571 9.91646 32.25 9.75007V6.07507L34.5 5.47507V8.38507C33.9996 8.562 33.5778 8.91012 33.3093 9.36793C33.0407 9.82574 32.9426 10.3638 33.0324 10.8869C33.1221 11.41 33.3939 11.8845 33.7997 12.2267C34.2055 12.5688 34.7192 12.7564 35.25 12.7564C35.7807 12.7564 36.2944 12.5688 36.7002 12.2267C37.106 11.8845 37.3778 11.41 37.4676 10.8869C37.5573 10.3638 37.4593 9.82574 37.1907 9.36793C36.9221 8.91012 36.5004 8.562 36 8.38507V4.50007C36.0058 4.33075 35.9541 4.16445 35.8533 4.02826C35.7525 3.89208 35.6086 3.79402 35.445 3.75007L24.195 0.750073C24.0667 0.720028 23.9332 0.720028 23.805 0.750073L12.555 3.75007C12.3928 3.79072 12.2489 3.88438 12.146 4.01619C12.0432 4.14799 11.9873 4.31039 11.9873 4.47757C11.9873 4.64476 12.0432 4.80715 12.146 4.93896C12.2489 5.07077 12.3928 5.16443 12.555 5.20507V5.25007ZM30.75 9.19507L24 11.2501L17.25 9.22507V6.48007L23.805 8.25007C23.9332 8.28012 24.0667 8.28012 24.195 8.25007L30.75 6.48007V9.19507ZM35.25 11.2501C35.1016 11.2501 34.9566 11.2061 34.8333 11.1237C34.71 11.0413 34.6138 10.9241 34.5571 10.7871C34.5003 10.65 34.4855 10.4992 34.5144 10.3538C34.5433 10.2083 34.6148 10.0746 34.7196 9.96974C34.8245 9.86485 34.9582 9.79342 35.1037 9.76448C35.2491 9.73555 35.3999 9.7504 35.537 9.80716C35.674 9.86393 35.7912 9.96006 35.8736 10.0834C35.956 10.2067 36 10.3517 36 10.5001C36 10.699 35.921 10.8898 35.7803 11.0304C35.6397 11.1711 35.4489 11.2501 35.25 11.2501ZM24 2.25007L32.34 4.50007L24 6.75007L15.66 4.50007L24 2.25007Z" fill="url(#paint3_linear)"/>
<path d="M18.2211 20.4687L13.7186 24.9712L14.7793 26.0319L19.2818 21.5293L18.2211 20.4687Z" fill="url(#paint4_linear)"/>
<path d="M25.7219 20.4677L21.2194 24.9702L22.2801 26.0309L26.7826 21.5284L25.7219 20.4677Z" fill="url(#paint5_linear)"/>
<path d="M33.2227 20.4672L28.7202 24.9697L29.7809 26.0304L34.2834 21.5279L33.2227 20.4672Z" fill="url(#paint6_linear)"/>
<defs>
<linearGradient id="paint0_linear" x1="47.25" y1="47.25" x2="0.75" y2="47.25" gradientUnits="userSpaceOnUse">
<stop offset="0.02" stop-color="#669935"/>
<stop offset="1" stop-color="#335F5E"/>
</linearGradient>
<linearGradient id="paint1_linear" x1="15.75" y1="38.25" x2="5.25" y2="38.25" gradientUnits="userSpaceOnUse">
<stop offset="0.02" stop-color="#669935"/>
<stop offset="1" stop-color="#335F5E"/>
</linearGradient>
<linearGradient id="paint2_linear" x1="42.75" y1="38.25" x2="32.25" y2="38.25" gradientUnits="userSpaceOnUse">
<stop offset="0.02" stop-color="#669935"/>
<stop offset="1" stop-color="#335F5E"/>
</linearGradient>
<linearGradient id="paint3_linear" x1="37.5" y1="12.7801" x2="11.9873" y2="12.7801" gradientUnits="userSpaceOnUse">
<stop offset="0.02" stop-color="#669935"/>
<stop offset="1" stop-color="#335F5E"/>
</linearGradient>
<linearGradient id="paint4_linear" x1="19.2818" y1="21.5293" x2="14.7793" y2="26.0318" gradientUnits="userSpaceOnUse">
<stop offset="0.02" stop-color="#669935"/>
<stop offset="1" stop-color="#335F5E"/>
</linearGradient>
<linearGradient id="paint5_linear" x1="26.7826" y1="21.5284" x2="22.2801" y2="26.0309" gradientUnits="userSpaceOnUse">
<stop offset="0.02" stop-color="#669935"/>
<stop offset="1" stop-color="#335F5E"/>
</linearGradient>
<linearGradient id="paint6_linear" x1="34.2834" y1="21.5279" x2="29.7808" y2="26.0304" gradientUnits="userSpaceOnUse">
<stop offset="0.02" stop-color="#669935"/>
<stop offset="1" stop-color="#335F5E"/>
</linearGradient>
</defs>
</svg>
