<svg width="192" height="192" viewBox="0 0 192 192" fill="none" xmlns="http://www.w3.org/2000/svg">
<path d="M3 183V189H189V183H141H51H3Z" fill="url(#paint0_linear)"/>
<path d="M51 147C44.382 147 39 152.382 39 159C39 165.618 44.382 171 51 171C57.618 171 63 165.618 63 159C63 152.382 57.618 147 51 147ZM51 165C47.691 165 45 162.309 45 159C45 155.691 47.691 153 51 153C54.309 153 57 155.691 57 159C57 162.309 54.309 165 51 165Z" fill="url(#paint1_linear)"/>
<path d="M141 147C134.382 147 129 152.382 129 159C129 165.618 134.382 171 141 171C147.618 171 153 165.618 153 159C153 152.382 147.618 147 141 147ZM141 165C137.691 165 135 162.309 135 159C135 155.691 137.691 153 141 153C144.309 153 147 155.691 147 159C147 162.309 144.309 165 141 165Z" fill="url(#paint2_linear)"/>
<path d="M187.341 120.315L163.959 108.624L139.782 77.193C135.834 72.063 129.612 69 123.135 69H87.789C91.2 62.562 93 55.416 93 48C93 41.253 91.542 34.764 88.668 28.713L83.247 31.287C85.737 36.528 87 42.15 87 48C87 55.995 84.591 63.63 80.067 70.158C76.206 71.487 72.744 73.911 70.218 77.196L66.138 82.497C60.582 85.425 54.33 87 48 87C38.772 87 30.063 83.829 23.076 78H33V72H18C16.344 72 15 73.344 15 75V90H21V83.943C28.746 89.793 38.103 93 48 93C51.765 93 55.512 92.526 59.136 91.602L46.293 108.297L17.229 114.525C8.985 116.292 3 123.693 3 132.126V153C3 157.962 7.038 162 12 162H27.207C28.692 173.82 38.784 183 51 183C63.216 183 73.308 173.82 74.793 162H117.21C118.695 173.82 128.787 183 141.003 183C153.219 183 163.311 173.82 164.796 162H180C184.962 162 189 157.962 189 153V123C189 121.863 188.358 120.825 187.341 120.315ZM183 144H177V121.854L183 124.854V144ZM9.012 132H15V138H9V132.126C9 132.084 9.012 132.042 9.012 132ZM51 177C41.073 177 33 168.927 33 159C33 149.073 41.073 141 51 141C60.927 141 69 149.073 69 159C69 168.927 60.927 177 51 177ZM141 177C131.073 177 123 168.927 123 159C123 149.073 131.073 141 141 141C150.927 141 159 149.073 159 159C159 168.927 150.927 177 141 177ZM180 156H164.793C163.308 144.18 153.216 135 141 135C128.784 135 118.692 144.18 117.207 156H74.793C73.308 144.18 63.216 135 51 135C38.784 135 28.692 144.18 27.207 156H12C10.347 156 9 154.653 9 153V144H18C19.656 144 21 142.656 21 141V129C21 127.344 19.656 126 18 126H10.725C12.396 123.21 15.156 121.107 18.486 120.393L48.63 113.934C49.326 113.784 49.944 113.394 50.379 112.83L74.976 80.856C77.793 77.187 82.239 75 86.865 75H123.138C127.764 75 132.207 77.187 135.027 80.856L159.624 112.83C159.9 113.19 160.254 113.481 160.659 113.685L171 118.854V147C171 148.656 172.344 150 174 150H183V153C183 154.653 181.653 156 180 156Z" fill="url(#paint3_linear)"/>
<path d="M149.661 115.386C150.177 114.393 150.099 113.196 149.457 112.281L131.145 86.121C128.904 82.914 125.229 81 121.314 81H88.6857C84.7707 81 81.0957 82.914 78.8547 86.121L60.5427 112.281C59.9007 113.196 59.8227 114.393 60.3387 115.386C60.8547 116.376 61.8807 117 62.9997 117H147C148.119 117 149.145 116.376 149.661 115.386ZM83.7717 89.559C84.8907 87.957 86.7297 87 88.6857 87H102V111H68.7627L83.7717 89.559ZM108 111V87H121.314C123.27 87 125.109 87.957 126.228 89.559L141.237 111H108Z" fill="url(#paint4_linear)"/>
<path d="M96 123H108V129H96V123Z" fill="url(#paint5_linear)"/>
<path d="M138 123H150V129H138V123Z" fill="url(#paint6_linear)"/>
<path d="M12.75 64.713C10.263 59.472 9 53.85 9 48C9 26.496 26.496 9 48 9C57.228 9 65.937 12.171 72.924 18H63V24H78C79.656 24 81 22.656 81 21V6H75V12.057C67.254 6.207 57.897 3 48 3C23.187 3 3 23.187 3 48C3 54.747 4.458 61.236 7.332 67.287L12.75 64.713Z" fill="url(#paint7_linear)"/>
<path d="M44.4143 60.465L35.3423 49.128L30.6562 52.875L42.6562 67.875C43.2292 68.589 44.0932 69 44.9992 69C45.1042 69 45.2092 68.994 45.3142 68.985C46.3312 68.877 47.2222 68.259 47.6812 67.344L65.6812 31.344L60.3142 28.659L44.4143 60.465Z" fill="url(#paint8_linear)"/>
<path d="M102 24C108.618 24 114 29.382 114 36C114 37.656 115.344 39 117 39C118.656 39 120 37.656 120 36C120 29.382 125.382 24 132 24C133.656 24 135 22.656 135 21C135 19.344 133.656 18 132 18C125.382 18 120 12.618 120 6C120 4.344 118.656 3 117 3C115.344 3 114 4.344 114 6C114 12.618 108.618 18 102 18C100.344 18 99 19.344 99 21C99 22.656 100.344 24 102 24ZM117 15.939C118.332 17.943 120.057 19.668 122.061 21C120.057 22.332 118.332 24.057 117 26.061C115.668 24.057 113.943 22.332 111.939 21C113.943 19.668 115.668 17.943 117 15.939Z" fill="url(#paint9_linear)"/>
<path d="M156 24C162.618 24 168 29.382 168 36C168 37.656 169.344 39 171 39C172.656 39 174 37.656 174 36C174 29.382 179.382 24 186 24C187.656 24 189 22.656 189 21C189 19.344 187.656 18 186 18C179.382 18 174 12.618 174 6C174 4.344 172.656 3 171 3C169.344 3 168 4.344 168 6C168 12.618 162.618 18 156 18C154.344 18 153 19.344 153 21C153 22.656 154.344 24 156 24ZM171 15.939C172.332 17.943 174.057 19.668 176.061 21C174.057 22.332 172.332 24.057 171 26.061C169.668 24.057 167.943 22.332 165.939 21C167.943 19.668 169.668 17.943 171 15.939Z" fill="url(#paint10_linear)"/>
<path d="M138 54C144.618 54 150 59.382 150 66C150 67.656 151.344 69 153 69C154.656 69 156 67.656 156 66C156 59.382 161.382 54 168 54C169.656 54 171 52.656 171 51C171 49.344 169.656 48 168 48C161.382 48 156 42.618 156 36C156 34.344 154.656 33 153 33C151.344 33 150 34.344 150 36C150 42.618 144.618 48 138 48C136.344 48 135 49.344 135 51C135 52.656 136.344 54 138 54ZM153 45.939C154.332 47.943 156.057 49.665 158.061 51C156.057 52.332 154.335 54.057 153 56.061C151.668 54.057 149.943 52.335 147.939 51C149.943 49.668 151.668 47.943 153 45.939Z" fill="url(#paint11_linear)"/>
<defs>
<linearGradient id="paint0_linear" x1="189" y1="189" x2="3" y2="189" gradientUnits="userSpaceOnUse">
<stop offset="0.02" stop-color="#669935"/>
<stop offset="1" stop-color="#335F5E"/>
</linearGradient>
<linearGradient id="paint1_linear" x1="63" y1="171" x2="39" y2="171" gradientUnits="userSpaceOnUse">
<stop offset="0.02" stop-color="#669935"/>
<stop offset="1" stop-color="#335F5E"/>
</linearGradient>
<linearGradient id="paint2_linear" x1="153" y1="171" x2="129" y2="171" gradientUnits="userSpaceOnUse">
<stop offset="0.02" stop-color="#669935"/>
<stop offset="1" stop-color="#335F5E"/>
</linearGradient>
<linearGradient id="paint3_linear" x1="189" y1="183" x2="3" y2="183" gradientUnits="userSpaceOnUse">
<stop offset="0.02" stop-color="#669935"/>
<stop offset="1" stop-color="#335F5E"/>
</linearGradient>
<linearGradient id="paint4_linear" x1="149.999" y1="117" x2="60" y2="117" gradientUnits="userSpaceOnUse">
<stop offset="0.02" stop-color="#669935"/>
<stop offset="1" stop-color="#335F5E"/>
</linearGradient>
<linearGradient id="paint5_linear" x1="108" y1="129" x2="96" y2="129" gradientUnits="userSpaceOnUse">
<stop offset="0.02" stop-color="#669935"/>
<stop offset="1" stop-color="#335F5E"/>
</linearGradient>
<linearGradient id="paint6_linear" x1="150" y1="129" x2="138" y2="129" gradientUnits="userSpaceOnUse">
<stop offset="0.02" stop-color="#669935"/>
<stop offset="1" stop-color="#335F5E"/>
</linearGradient>
<linearGradient id="paint7_linear" x1="81" y1="67.287" x2="3" y2="67.287" gradientUnits="userSpaceOnUse">
<stop offset="0.02" stop-color="#669935"/>
<stop offset="1" stop-color="#335F5E"/>
</linearGradient>
<linearGradient id="paint8_linear" x1="65.6812" y1="69" x2="30.6562" y2="69" gradientUnits="userSpaceOnUse">
<stop offset="0.02" stop-color="#669935"/>
<stop offset="1" stop-color="#335F5E"/>
</linearGradient>
<linearGradient id="paint9_linear" x1="135" y1="39" x2="99" y2="39" gradientUnits="userSpaceOnUse">
<stop offset="0.02" stop-color="#669935"/>
<stop offset="1" stop-color="#335F5E"/>
</linearGradient>
<linearGradient id="paint10_linear" x1="189" y1="39" x2="153" y2="39" gradientUnits="userSpaceOnUse">
<stop offset="0.02" stop-color="#669935"/>
<stop offset="1" stop-color="#335F5E"/>
</linearGradient>
<linearGradient id="paint11_linear" x1="171" y1="69" x2="135" y2="69" gradientUnits="userSpaceOnUse">
<stop offset="0.02" stop-color="#669935"/>
<stop offset="1" stop-color="#335F5E"/>
</linearGradient>
</defs>
</svg>
