<svg width="24" height="24" viewBox="0 0 24 24" fill="none" xmlns="http://www.w3.org/2000/svg">
<path d="M5.70755 7.75088H12.138C12.5278 7.75088 12.8439 7.43483 12.8439 7.045C12.8439 6.65516 12.5278 6.33911 12.138 6.33911H5.70755C5.31771 6.33911 5.00166 6.65516 5.00166 7.045C5.00166 7.43483 5.31766 7.75088 5.70755 7.75088Z" fill="url(#paint0_linear)"/>
<path d="M5.70755 10.6732H12.138C12.5278 10.6732 12.8439 10.3572 12.8439 9.96736C12.8439 9.57752 12.5278 9.26147 12.138 9.26147H5.70755C5.31771 9.26147 5.00166 9.57752 5.00166 9.96736C5.00166 10.3572 5.31766 10.6732 5.70755 10.6732Z" fill="url(#paint1_linear)"/>
<path d="M23.2941 4.75666C23.684 4.75666 24 4.44061 24 4.05077V0.714916C24 0.32508 23.684 0.0090332 23.2941 0.0090332H0.705882C0.316047 0.0090332 0 0.32508 0 0.714916V4.05077C0 4.44061 0.316047 4.75666 0.705882 4.75666H1.22353V19.097C1.22353 19.4868 1.53958 19.8029 1.92941 19.8029H6.85332C7.12659 20.6634 7.93506 21.3106 8.91718 21.3106H12.7049C12.907 21.3106 13.1022 21.2803 13.2861 21.2242V23.2852C13.2861 23.675 13.6022 23.9911 13.992 23.9911H13.9921H23.2941C23.6839 23.9911 24 23.675 24 23.2852V17.0762C24 16.0664 23.5199 15.167 22.7764 14.5927V4.75666H23.2941ZM1.41176 1.4208H22.5882V3.34489H1.41176V1.4208ZM22.5882 22.5793H20.7512V18.3554C20.7512 17.9656 20.4351 17.6495 20.0453 17.6495C19.6554 17.6495 19.3394 17.9656 19.3394 18.3554V22.5793H14.698V18.3554C14.698 17.9656 14.3819 17.6495 13.9921 17.6495C13.6023 17.6495 13.2862 17.9656 13.2862 18.3554V19.3153C13.2862 19.3161 13.2861 19.3168 13.2861 19.3176C13.2861 19.6381 13.0254 19.8988 12.7049 19.8988H8.91718C8.49958 19.8988 8.16329 19.5608 8.16329 19.1449C8.16329 18.7292 8.50151 18.391 8.91718 18.391H11.1995C11.5894 18.391 11.9054 18.075 11.9054 17.6851V17.0762C11.9054 16.1247 12.6798 15.3505 13.6315 15.3505H20.8626C21.8141 15.3505 22.5882 16.1247 22.5882 17.0762V22.5793ZM15.6418 12.5616V11.3444C15.6418 10.5852 16.2594 9.96753 17.0187 9.96753C17.7779 9.96753 18.3956 10.5852 18.3956 11.3444V12.5616C18.3956 13.3209 17.7779 13.9385 17.0187 13.9385C16.2594 13.9385 15.6418 13.3209 15.6418 12.5616ZM21.3647 13.9795C21.2011 13.953 21.0335 13.9388 20.8626 13.9388H19.4421C19.6741 13.5322 19.8074 13.0623 19.8074 12.5616V11.3444C19.8074 9.80673 18.5564 8.55576 17.0187 8.55576C15.481 8.55576 14.2301 9.80673 14.2301 11.3444V12.5616C14.2301 13.0623 14.3634 13.5322 14.5953 13.9388H13.6316C11.9337 13.9388 10.5465 15.2939 10.4952 16.9792H8.91718C8.68871 16.9792 8.46847 17.0151 8.26155 17.0809L5.80085 12.4147C5.61901 12.0699 5.192 11.9378 4.8472 12.1196C4.50235 12.3015 4.37026 12.7284 4.55209 13.0733L7.11854 17.94C7.02466 18.0798 6.94668 18.231 6.88706 18.3911H2.63529V4.75666H21.3647V13.9795Z" fill="url(#paint2_linear)"/>
<defs>
<linearGradient id="paint0_linear" x1="12.8439" y1="7.75088" x2="5.00166" y2="7.75088" gradientUnits="userSpaceOnUse">
<stop offset="0.02" stop-color="#669935"/>
<stop offset="1" stop-color="#335F5E"/>
</linearGradient>
<linearGradient id="paint1_linear" x1="12.8439" y1="10.6732" x2="5.00166" y2="10.6732" gradientUnits="userSpaceOnUse">
<stop offset="0.02" stop-color="#669935"/>
<stop offset="1" stop-color="#335F5E"/>
</linearGradient>
<linearGradient id="paint2_linear" x1="24" y1="23.9911" x2="-1.93715e-07" y2="23.9911" gradientUnits="userSpaceOnUse">
<stop offset="0.02" stop-color="#669935"/>
<stop offset="1" stop-color="#335F5E"/>
</linearGradient>
</defs>
</svg>
