<svg width="24" height="24" viewBox="0 0 24 24" fill="none" xmlns="http://www.w3.org/2000/svg">
<path d="M19.8478 4.86923V4.22938H21.4456V1.40981H22.9024V0H1.09761V1.40981H2.55439V4.22938H4.15217V4.86923C4.15217 8.03825 6.04038 10.7744 8.75074 12.0122C6.04043 13.2499 4.15217 15.9861 4.15217 19.1551V19.7706H2.55439V22.5902H1.09761V24H22.9024V22.5902H21.4456V19.7706H19.8478V19.1551C19.8478 15.9861 17.9596 13.2499 15.2492 12.0122C17.9596 10.7743 19.8478 8.03825 19.8478 4.86923ZM3.9642 2.81957V1.40981H20.0358V2.81962H3.9642V2.81957ZM5.98287 7.15841C5.71118 6.44675 5.56188 5.67515 5.56188 4.86923V4.22938H18.438V4.86923C18.438 5.67515 18.2887 6.44675 18.017 7.15841H5.98287ZM11.2951 12.7558V14.5814L5.80507 17.4003C6.5088 14.9191 8.66669 13.0434 11.2951 12.7558ZM20.0358 21.1804V22.5902H3.9642V21.1804H20.0358ZM18.4381 19.1551V19.7706H5.56193V19.1551C5.56193 19.1399 5.5624 19.1248 5.56249 19.1096L12.0003 15.8041L18.4373 19.1015C18.4375 19.1193 18.4381 19.1372 18.4381 19.1551ZM18.1927 17.3921L12.7049 14.581V12.7558C15.3303 13.043 17.4864 14.915 18.1927 17.3921ZM12 11.3073C9.82562 11.3073 7.89982 10.2236 6.73361 8.56817H17.2663C16.1001 10.2236 14.1743 11.3073 12 11.3073Z" fill="url(#paint0_linear)"/>
<defs>
<linearGradient id="paint0_linear" x1="22.9024" y1="24" x2="1.09761" y2="24" gradientUnits="userSpaceOnUse">
<stop offset="0.02" stop-color="#669935"/>
<stop offset="1" stop-color="#335F5E"/>
</linearGradient>
</defs>
</svg>
