<svg width="64" height="64" viewBox="0 0 64 64" fill="none" xmlns="http://www.w3.org/2000/svg">
<path d="M14.4513 46.9678C12.1741 46.9678 10.3223 48.8196 10.3223 51.0968C10.3223 53.374 12.1741 55.2258 14.4513 55.2258C16.7285 55.2258 18.5803 53.374 18.5803 51.0968C18.5803 48.8196 16.7285 46.9678 14.4513 46.9678ZM14.4513 53.1613C13.3127 53.1613 12.3868 52.2354 12.3868 51.0968C12.3868 49.9582 13.3127 49.0323 14.4513 49.0323C15.5899 49.0323 16.5158 49.9582 16.5158 51.0968C16.5158 52.2354 15.5899 53.1613 14.4513 53.1613Z" fill="url(#paint0_linear)"/>
<path d="M54.7101 46.9678C52.4329 46.9678 50.5811 48.8196 50.5811 51.0968C50.5811 53.374 52.4329 55.2258 54.7101 55.2258C56.9872 55.2258 58.8391 53.374 58.8391 51.0968C58.8391 48.8196 56.9872 46.9678 54.7101 46.9678ZM54.7101 53.1613C53.5715 53.1613 52.6456 52.2354 52.6456 51.0968C52.6456 49.9582 53.5715 49.0323 54.7101 49.0323C55.8487 49.0323 56.7746 49.9582 56.7746 51.0968C56.7746 52.2354 55.8487 53.1613 54.7101 53.1613Z" fill="url(#paint1_linear)"/>
<path d="M60.6245 40.7452C60.7618 40.7638 60.9012 40.7741 61.0405 40.7741C62.6725 40.7741 64 39.4466 64 37.8146V18.211L37.1613 14.082V8.02982L24.4428 3.79034C24.0888 3.67266 23.7203 3.61279 23.3476 3.61279H23.073C21.1654 3.61279 19.6129 5.16531 19.6129 7.07395C19.6129 8.52428 20.5285 9.83008 21.8911 10.3256L30.9677 13.6257V36.5078L33.0323 36.803V41.8063H28.9032V19.0967C28.9032 17.3893 27.5138 15.9999 25.8064 15.9999H11.8803C10.5053 15.9999 9.28 16.9238 8.90219 18.2461L5.41523 30.4515H5.16129C4.02271 30.4515 3.09677 31.3774 3.09677 32.516V43.8709C1.38942 43.8709 0 45.2603 0 46.9676V49.0321C0 50.7395 1.38942 52.1289 3.09677 52.1289H5.22219C5.73832 56.7669 9.67845 60.387 14.4516 60.387C19.2248 60.387 23.1649 56.7669 23.681 52.1289H45.4803C45.9964 56.7669 49.9365 60.387 54.7097 60.387C59.8317 60.387 64 56.2187 64 51.0967C64 46.6848 60.9053 42.9883 56.7742 42.0458V40.195L60.6245 40.7452ZM22.5961 8.38492C22.0459 8.1857 21.6774 7.65821 21.6774 7.07395C21.6774 6.30389 22.304 5.67731 23.0741 5.67731H23.3486C23.4994 5.67731 23.648 5.70105 23.7905 5.74853L35.0968 9.51834V15.8533L61.9355 19.9823V23.0399L33.0323 18.2223V12.1805L22.5961 8.38492ZM39.2258 31.4838V21.347L43.3548 22.0355V36.1919L39.2258 35.6025V33.5483H37.1613V35.3072L33.0323 34.7178V20.3147L37.1613 21.0032V31.4838H39.2258ZM35.0968 37.0982L54.7097 39.8998V41.8063H35.0968V37.0982ZM49.5484 37.0776L45.4194 36.4881V22.3792L49.5484 23.0678V37.0776ZM5.16129 32.516H19.6129V34.5805H10.3226C8.61523 34.5805 7.22581 35.97 7.22581 37.6773V43.8709H5.16129V32.516ZM22.7097 36.6451V38.7096H9.29032V37.6773C9.29032 37.1085 9.75381 36.6451 10.3226 36.6451H22.7097ZM5.22219 50.0644H3.09677C2.528 50.0644 2.06452 49.6009 2.06452 49.0321V46.9676C2.06452 46.3989 2.528 45.9354 3.09677 45.9354H6.73239C5.9231 47.1421 5.39045 48.549 5.22219 50.0644ZM14.4516 58.3225C10.4671 58.3225 7.22581 55.0812 7.22581 51.0967C7.22581 47.1121 10.4671 43.8709 14.4516 43.8709C18.4361 43.8709 21.6774 47.1121 21.6774 51.0967C21.6774 55.0812 18.4361 58.3225 14.4516 58.3225ZM30.9677 50.0644H28.9032V47.9999H30.9677V50.0644ZM35.0968 50.0644H33.0323V47.9999H35.0968V50.0644ZM39.2258 50.0644H37.1613V47.9999H39.2258V50.0644ZM41.2903 50.0644V45.9354H26.8387V50.0644H23.681C23.1649 45.4265 19.2248 41.8063 14.4516 41.8063C12.543 41.8063 10.7675 42.3865 9.29032 43.3774V40.7741H22.7097C23.8483 40.7741 24.7742 39.8481 24.7742 38.7096V36.6451C24.7742 35.5065 23.8483 34.5805 22.7097 34.5805H21.6774V32.516C21.6774 31.3774 20.7515 30.4515 19.6129 30.4515H7.56232L10.8872 18.8138C11.0132 18.372 11.4209 18.0644 11.8803 18.0644H25.8064C26.3752 18.0644 26.8387 18.5279 26.8387 19.0967V43.8709H48.8836C47.0266 45.3718 45.7579 47.5694 45.4803 50.0644H41.2903ZM61.9355 51.0967C61.9355 55.0812 58.6942 58.3225 54.7097 58.3225C50.7252 58.3225 47.4839 55.0812 47.4839 51.0967C47.4839 47.1121 50.7252 43.8709 54.7097 43.8709C58.6942 43.8709 61.9355 47.1121 61.9355 51.0967ZM55.7419 28.387V37.9622L51.6129 37.3728V23.4115L55.7419 24.1V26.3225H57.8064V24.4438L61.9355 25.1323V37.8146C61.9355 38.3514 61.409 38.7736 60.9135 38.7013L57.8064 38.2574V28.387H55.7419Z" fill="url(#paint2_linear)"/>
<path d="M12.6749 20.1292L9.92188 28.3872H24.774V20.1292H12.6749ZM22.7095 26.3227H12.7864L14.1624 22.1937H22.7095V26.3227Z" fill="url(#paint3_linear)"/>
<defs>
<linearGradient id="paint0_linear" x1="18.5803" y1="55.2258" x2="10.3223" y2="55.2258" gradientUnits="userSpaceOnUse">
<stop offset="0.02" stop-color="#669935"/>
<stop offset="1" stop-color="#335F5E"/>
</linearGradient>
<linearGradient id="paint1_linear" x1="58.8391" y1="55.2258" x2="50.5811" y2="55.2258" gradientUnits="userSpaceOnUse">
<stop offset="0.02" stop-color="#669935"/>
<stop offset="1" stop-color="#335F5E"/>
</linearGradient>
<linearGradient id="paint2_linear" x1="64" y1="60.387" x2="-5.16574e-07" y2="60.387" gradientUnits="userSpaceOnUse">
<stop offset="0.02" stop-color="#669935"/>
<stop offset="1" stop-color="#335F5E"/>
</linearGradient>
<linearGradient id="paint3_linear" x1="24.774" y1="28.3872" x2="9.92187" y2="28.3872" gradientUnits="userSpaceOnUse">
<stop offset="0.02" stop-color="#669935"/>
<stop offset="1" stop-color="#335F5E"/>
</linearGradient>
</defs>
</svg>
