<svg width="13" height="13" viewBox="0 0 13 13" fill="none" xmlns="http://www.w3.org/2000/svg">
<path fill-rule="evenodd" clip-rule="evenodd" d="M0.146877 9.8541C0.100319 9.80766 0.0633803 9.75249 0.0381768 9.69175C0.0129733 9.63101 0 9.5659 0 9.50014C0 9.43438 0.0129733 9.36927 0.0381768 9.30853C0.0633803 9.24779 0.100319 9.19262 0.146877 9.14618L6.14617 3.14689C6.19261 3.10033 6.24778 3.06339 6.30852 3.03819C6.36926 3.01298 6.43437 3.00001 6.50013 3.00001C6.56589 3.00001 6.631 3.01298 6.69174 3.03819C6.75248 3.06339 6.80765 3.10033 6.85409 3.14689L12.8534 9.14618C12.9473 9.24006 13 9.36738 13 9.50014C13 9.6329 12.9473 9.76022 12.8534 9.8541C12.7595 9.94798 12.6322 10.0007 12.4994 10.0007C12.3667 10.0007 12.2393 9.94798 12.1455 9.8541L6.50013 4.20776L0.854794 9.8541C0.808353 9.90066 0.753184 9.9376 0.692446 9.9628C0.631708 9.988 0.566595 10.001 0.500835 10.001C0.435075 10.001 0.369962 9.988 0.309224 9.9628C0.248486 9.9376 0.193317 9.90066 0.146877 9.8541Z" fill="#222222"/>
</svg>
