<svg width="24" height="24" viewBox="0 0 24 24" fill="none" xmlns="http://www.w3.org/2000/svg">
<path d="M22.9915 8.47064C22.9916 6.21661 22.1082 4.09186 20.504 2.48767C18.8998 0.883484 16.775 0 14.5208 0H9.50189C9.50171 0 9.50171 0 9.50171 0C7.24786 0 5.12292 0.883484 3.51892 2.48749C1.91473 4.09186 1.03125 6.21661 1.03125 8.47064V12.4158C1.03125 14.1616 1.56372 15.8406 2.57117 17.272C3.45996 18.5347 4.65527 19.5211 6.04889 20.1464V22.4125C6.04889 23.5842 6.70496 24 7.26672 24C7.66809 24 8.06946 23.8019 8.46021 23.4113L10.9849 20.8867L14.521 20.8865C16.775 20.8865 18.8998 20.003 20.504 18.399C22.1082 16.7948 22.9916 14.6699 22.9916 12.4158L22.9915 8.47064ZM14.521 19.4802L10.6937 19.4804C10.5071 19.4804 10.3284 19.5544 10.1966 19.6862L7.46594 22.4169C7.46246 22.4205 7.4588 22.424 7.45514 22.4275C7.45514 22.4225 7.45514 22.4174 7.45514 22.4125V19.6771C7.45514 19.3854 7.27515 19.1241 7.00269 19.0201C4.27222 17.9782 2.43768 15.3241 2.43768 12.4158V8.47064C2.43768 6.59216 3.17487 4.82043 4.51337 3.48175C5.85187 2.14343 7.62341 1.40625 9.50189 1.40625H14.5208C16.3993 1.40625 18.171 2.14343 19.5095 3.48193C20.8482 4.82062 21.5854 6.59235 21.5852 8.47064L21.5854 12.4158C21.5852 16.3112 18.4162 19.4802 14.521 19.4802Z" fill="#669935"/>
<path d="M13.8823 11.5001C13.6078 11.2255 13.1627 11.2255 12.8881 11.5001L12.3201 12.0679L10.1191 9.86719L10.6871 9.29938C10.819 9.16754 10.8931 8.98865 10.8931 8.80206C10.8931 8.61566 10.819 8.43677 10.6871 8.30493L8.02441 5.64221C7.89257 5.51038 7.71386 5.43622 7.52728 5.43622C7.34087 5.43622 7.16198 5.51038 7.03014 5.64221L5.16613 7.50623C4.15813 8.51422 4.15813 10.1547 5.16631 11.1632L11.024 17.0213C11.5111 17.5082 12.1606 17.7762 12.8525 17.7762C13.5447 17.7762 14.1941 17.5082 14.6812 17.0213L16.5452 15.1575C16.6771 15.0255 16.7512 14.8467 16.7512 14.6602C16.7512 14.4738 16.6771 14.2949 16.5452 14.163L13.8823 11.5001ZM13.6868 16.0267C13.4654 16.248 13.1691 16.37 12.8525 16.37C12.5359 16.37 12.2397 16.248 12.0183 16.0267L6.16076 10.1688C5.7008 9.7088 5.70061 8.96027 6.16058 8.50049L7.52728 7.13361L9.19555 8.80206L8.62756 9.36987C8.49572 9.50171 8.42156 9.6806 8.42156 9.867C8.42156 10.0536 8.49572 10.2323 8.62756 10.3643L11.8227 13.5595C12.0974 13.834 12.5425 13.8342 12.8172 13.5595L13.3852 12.9917L15.0535 14.66L13.6868 16.0267Z" fill="#669935"/>
<path d="M12.1836 3.11041C11.7952 3.11041 11.4805 3.42517 11.4805 3.81354C11.4805 4.20172 11.7952 4.51666 12.1836 4.51666C13.7927 4.51666 15.3057 5.14325 16.4435 6.28125C17.5815 7.41907 18.2081 8.93188 18.2081 10.5412C18.2081 10.9294 18.5229 11.2443 18.9113 11.2443C19.2994 11.2443 19.6144 10.9296 19.6144 10.5412C19.6144 8.55634 18.8415 6.69031 17.438 5.2868C16.0345 3.8833 14.1685 3.11041 12.1836 3.11041Z" fill="#669935"/>
<path d="M15.1957 10.541C15.1957 10.9292 15.5106 11.2441 15.8988 11.2441C16.2872 11.2441 16.6019 10.9292 16.6019 10.541C16.6019 8.1048 14.6198 6.12286 12.1836 6.12286C11.7952 6.12286 11.4805 6.43762 11.4805 6.82599C11.4805 7.21436 11.7952 7.52911 12.1836 7.52911C13.8445 7.52911 15.1957 8.88025 15.1957 10.541Z" fill="#669935"/>
</svg>
