<svg width="24" height="24" viewBox="0 0 24 24" fill="none" xmlns="http://www.w3.org/2000/svg">
<path d="M11.9988 2.86035C6.9592 2.86035 2.85912 6.96044 2.85912 12.0001C2.85912 17.0397 6.9592 21.1398 11.9988 21.1398C17.0385 21.1398 21.1386 17.0397 21.1386 12.0001C21.1386 6.96044 17.0385 2.86035 11.9988 2.86035ZM11.9988 4.26646C15.7831 4.26646 18.9408 6.99868 19.604 10.594C19.1626 10.526 16.5505 11.0103 14.5627 8.89206C13.438 7.69339 11.9562 7.77265 11.9985 7.7817C11.0172 7.7817 10.1068 8.17611 9.43504 8.89201C8.4201 9.97359 6.95132 10.5939 5.4054 10.5939H4.3937C5.05687 6.99868 8.21462 4.26646 11.9988 4.26646ZM4.82767 14.8944C7.55277 14.3208 10.1649 16.6051 9.87295 19.4365C7.57681 18.7791 5.71479 17.0844 4.82767 14.8944ZM11.2582 19.6981C11.7353 15.8319 8.17347 12.6856 4.42046 13.5455C4.3188 13.046 4.26523 12.5292 4.26523 12.0001C4.73098 11.926 7.98726 12.4896 10.4605 9.85422C11.2917 8.96827 12.6996 8.96138 13.5373 9.85426C16.0129 12.4922 19.2556 11.9242 19.7325 12.0001C19.7325 12.5292 19.6789 13.046 19.5773 13.5455C15.8166 12.684 12.2634 15.84 12.7395 19.6981C12.2607 19.7438 11.7746 19.7473 11.2582 19.6981ZM14.1247 19.4365C13.8325 16.6019 16.4482 14.3214 19.1701 14.8944C18.283 17.0844 16.4209 18.7791 14.1247 19.4365Z" fill="url(#paint0_linear)"/>
<path d="M14.108 12.7034C14.108 11.5404 13.1619 10.5942 11.9989 10.5942C10.8358 10.5942 9.88969 11.5404 9.88969 12.7034C9.88969 13.8664 10.8358 14.8126 11.9989 14.8126C13.1619 14.8126 14.108 13.8664 14.108 12.7034ZM11.9989 13.4065C11.6112 13.4065 11.2958 13.0911 11.2958 12.7034C11.2958 12.3157 11.6112 12.0004 11.9989 12.0004C12.3866 12.0004 12.7019 12.3157 12.7019 12.7034C12.7019 13.0911 12.3866 13.4065 11.9989 13.4065Z" fill="url(#paint1_linear)"/>
<path d="M20.4736 3.52556C18.2011 1.253 15.1913 0.00146484 11.9988 0.00146484C5.39197 0.00146484 0 5.39386 0 12.0003C0 18.6072 5.3924 23.9991 11.9988 23.9991C15.1913 23.9991 18.2011 22.7476 20.4736 20.475C25.1747 15.7739 25.1763 8.2283 20.4736 3.52556ZM11.9988 22.593C6.15798 22.593 1.40611 17.8411 1.40611 12.0003C1.40611 6.15944 6.15798 1.40758 11.9988 1.40758C17.8397 1.40758 22.5915 6.15944 22.5915 12.0003C22.5915 17.8411 17.8397 22.593 11.9988 22.593Z" fill="url(#paint2_linear)"/>
<defs>
<linearGradient id="paint0_linear" x1="21.1386" y1="21.1398" x2="2.85912" y2="21.1398" gradientUnits="userSpaceOnUse">
<stop offset="0.02" stop-color="#669935"/>
<stop offset="1" stop-color="#335F5E"/>
</linearGradient>
<linearGradient id="paint1_linear" x1="14.108" y1="14.8126" x2="9.88969" y2="14.8126" gradientUnits="userSpaceOnUse">
<stop offset="0.02" stop-color="#669935"/>
<stop offset="1" stop-color="#335F5E"/>
</linearGradient>
<linearGradient id="paint2_linear" x1="24" y1="23.9991" x2="-1.93715e-07" y2="23.9991" gradientUnits="userSpaceOnUse">
<stop offset="0.02" stop-color="#669935"/>
<stop offset="1" stop-color="#335F5E"/>
</linearGradient>
</defs>
</svg>
